<svg xmlns="http://www.w3.org/2000/svg" xmlns:xlink="http://www.w3.org/1999/xlink" width="500" zoomAndPan="magnify" viewBox="0 0 375 374.999991" height="500" preserveAspectRatio="xMidYMid meet" version="1.2"><defs><clipPath id="cfb3731f1c"><path d="M 77 179 L 107 179 L 107 199 L 77 199 Z M 77 179 "/></clipPath><clipPath id="b43ddf018d"><path d="M 86.679688 143.613281 L 134.785156 182.625 L 95.085938 231.574219 L 46.980469 192.5625 Z M 86.679688 143.613281 "/></clipPath><clipPath id="a6654dce1a"><path d="M 86.679688 143.613281 L 134.785156 182.625 L 95.085938 231.574219 L 46.980469 192.5625 Z M 86.679688 143.613281 "/></clipPath><clipPath id="31f3028efb"><path d="M 86.679688 143.613281 L 134.785156 182.625 L 95.085938 231.574219 L 46.980469 192.5625 Z M 86.679688 143.613281 "/></clipPath><clipPath id="61a8a037ef"><path d="M 109 190 L 129 190 L 129 194 L 109 194 Z M 109 190 "/></clipPath><clipPath id="1fc618ae74"><path d="M 86.679688 143.613281 L 134.785156 182.625 L 95.085938 231.574219 L 46.980469 192.5625 Z M 86.679688 143.613281 "/></clipPath><clipPath id="2032eac351"><path d="M 86.679688 143.613281 L 134.785156 182.625 L 95.085938 231.574219 L 46.980469 192.5625 Z M 86.679688 143.613281 "/></clipPath><clipPath id="11b55054ce"><path d="M 86.679688 143.613281 L 134.785156 182.625 L 95.085938 231.574219 L 46.980469 192.5625 Z M 86.679688 143.613281 "/></clipPath><clipPath id="b635ad434c"><path d="M 117.625 181.773438 L 128.394531 190.507812 L 119.292969 201.734375 L 108.523438 192.996094 Z M 117.625 181.773438 "/></clipPath><clipPath id="fcad42d1fe"><path d="M 55 196 L 76 196 L 76 200 L 55 200 Z M 55 196 "/></clipPath><clipPath id="ccd3241e49"><path d="M 86.679688 143.613281 L 134.785156 182.625 L 95.085938 231.574219 L 46.980469 192.5625 Z M 86.679688 143.613281 "/></clipPath><clipPath id="ee4a1317c3"><path d="M 86.679688 143.613281 L 134.785156 182.625 L 95.085938 231.574219 L 46.980469 192.5625 Z M 86.679688 143.613281 "/></clipPath><clipPath id="e82b789f38"><path d="M 86.679688 143.613281 L 134.785156 182.625 L 95.085938 231.574219 L 46.980469 192.5625 Z M 86.679688 143.613281 "/></clipPath><clipPath id="923b20a759"><path d="M 64.792969 188.425781 L 75.601562 197.191406 L 66.511719 208.402344 L 55.703125 199.636719 Z M 64.792969 188.425781 "/></clipPath><clipPath id="411ca46d02"><path d="M 63 172 L 79 172 L 79 186 L 63 186 Z M 63 172 "/></clipPath><clipPath id="b8b62ea6b6"><path d="M 86.679688 143.613281 L 134.785156 182.625 L 95.085938 231.574219 L 46.980469 192.5625 Z M 86.679688 143.613281 "/></clipPath><clipPath id="e35af533a7"><path d="M 86.679688 143.613281 L 134.785156 182.625 L 95.085938 231.574219 L 46.980469 192.5625 Z M 86.679688 143.613281 "/></clipPath><clipPath id="4f4736879e"><path d="M 86.679688 143.613281 L 134.785156 182.625 L 95.085938 231.574219 L 46.980469 192.5625 Z M 86.679688 143.613281 "/></clipPath><clipPath id="37530038fc"><path d="M 87 158 L 91 158 L 91 179 L 87 179 Z M 87 158 "/></clipPath><clipPath id="156b51a7e0"><path d="M 86.679688 143.613281 L 134.785156 182.625 L 95.085938 231.574219 L 46.980469 192.5625 Z M 86.679688 143.613281 "/></clipPath><clipPath id="a3199996de"><path d="M 86.679688 143.613281 L 134.785156 182.625 L 95.085938 231.574219 L 46.980469 192.5625 Z M 86.679688 143.613281 "/></clipPath><clipPath id="93d3379eba"><path d="M 86.679688 143.613281 L 134.785156 182.625 L 95.085938 231.574219 L 46.980469 192.5625 Z M 86.679688 143.613281 "/></clipPath><clipPath id="2e14c7a0f2"><path d="M 102 166 L 115 166 L 115 182 L 102 182 Z M 102 166 "/></clipPath><clipPath id="87e8b93405"><path d="M 86.679688 143.613281 L 134.785156 182.625 L 95.085938 231.574219 L 46.980469 192.5625 Z M 86.679688 143.613281 "/></clipPath><clipPath id="56aba0adb4"><path d="M 86.679688 143.613281 L 134.785156 182.625 L 95.085938 231.574219 L 46.980469 192.5625 Z M 86.679688 143.613281 "/></clipPath><clipPath id="db8a600df2"><path d="M 86.679688 143.613281 L 134.785156 182.625 L 95.085938 231.574219 L 46.980469 192.5625 Z M 86.679688 143.613281 "/></clipPath><clipPath id="11579f9c52"><path d="M 56 185 L 76 185 L 76 192 L 56 192 Z M 56 185 "/></clipPath><clipPath id="04a007a895"><path d="M 86.679688 143.613281 L 134.785156 182.625 L 95.085938 231.574219 L 46.980469 192.5625 Z M 86.679688 143.613281 "/></clipPath><clipPath id="282c02e6e4"><path d="M 86.679688 143.613281 L 134.785156 182.625 L 95.085938 231.574219 L 46.980469 192.5625 Z M 86.679688 143.613281 "/></clipPath><clipPath id="06831d5ef9"><path d="M 86.679688 143.613281 L 134.785156 182.625 L 95.085938 231.574219 L 46.980469 192.5625 Z M 86.679688 143.613281 "/></clipPath><clipPath id="d04976384d"><path d="M 74 163 L 85 163 L 85 181 L 74 181 Z M 74 163 "/></clipPath><clipPath id="18391ef877"><path d="M 86.679688 143.613281 L 134.785156 182.625 L 95.085938 231.574219 L 46.980469 192.5625 Z M 86.679688 143.613281 "/></clipPath><clipPath id="13c0d24bae"><path d="M 86.679688 143.613281 L 134.785156 182.625 L 95.085938 231.574219 L 46.980469 192.5625 Z M 86.679688 143.613281 "/></clipPath><clipPath id="a701f9b7f2"><path d="M 86.679688 143.613281 L 134.785156 182.625 L 95.085938 231.574219 L 46.980469 192.5625 Z M 86.679688 143.613281 "/></clipPath><clipPath id="6bf07eaa8e"><path d="M 95 159 L 103 159 L 103 179 L 95 179 Z M 95 159 "/></clipPath><clipPath id="53efd30f03"><path d="M 86.679688 143.613281 L 134.785156 182.625 L 95.085938 231.574219 L 46.980469 192.5625 Z M 86.679688 143.613281 "/></clipPath><clipPath id="6c1e039fa5"><path d="M 86.679688 143.613281 L 134.785156 182.625 L 95.085938 231.574219 L 46.980469 192.5625 Z M 86.679688 143.613281 "/></clipPath><clipPath id="7c73ddd67a"><path d="M 86.679688 143.613281 L 134.785156 182.625 L 95.085938 231.574219 L 46.980469 192.5625 Z M 86.679688 143.613281 "/></clipPath><clipPath id="7609fe3634"><path d="M 106 177 L 125 177 L 125 188 L 106 188 Z M 106 177 "/></clipPath><clipPath id="b7b0efc315"><path d="M 86.679688 143.613281 L 134.785156 182.625 L 95.085938 231.574219 L 46.980469 192.5625 Z M 86.679688 143.613281 "/></clipPath><clipPath id="96e119d931"><path d="M 86.679688 143.613281 L 134.785156 182.625 L 95.085938 231.574219 L 46.980469 192.5625 Z M 86.679688 143.613281 "/></clipPath><clipPath id="65bd645857"><path d="M 86.679688 143.613281 L 134.785156 182.625 L 95.085938 231.574219 L 46.980469 192.5625 Z M 86.679688 143.613281 "/></clipPath><clipPath id="d155a7265f"><path d="M 62 193 L 75 193 L 75 195 L 62 195 Z M 62 193 "/></clipPath><clipPath id="a5871393e4"><path d="M 86.679688 143.613281 L 134.785156 182.625 L 95.085938 231.574219 L 46.980469 192.5625 Z M 86.679688 143.613281 "/></clipPath><clipPath id="526f04e4ae"><path d="M 86.679688 143.613281 L 134.785156 182.625 L 95.085938 231.574219 L 46.980469 192.5625 Z M 86.679688 143.613281 "/></clipPath><clipPath id="b7d4e625b2"><path d="M 86.679688 143.613281 L 134.785156 182.625 L 95.085938 231.574219 L 46.980469 192.5625 Z M 86.679688 143.613281 "/></clipPath><clipPath id="1a6d947616"><path d="M 72 172 L 81 172 L 81 183 L 72 183 Z M 72 172 "/></clipPath><clipPath id="89f9e7d1d8"><path d="M 86.679688 143.613281 L 134.785156 182.625 L 95.085938 231.574219 L 46.980469 192.5625 Z M 86.679688 143.613281 "/></clipPath><clipPath id="bd4e3329c1"><path d="M 86.679688 143.613281 L 134.785156 182.625 L 95.085938 231.574219 L 46.980469 192.5625 Z M 86.679688 143.613281 "/></clipPath><clipPath id="52a4629e90"><path d="M 86.679688 143.613281 L 134.785156 182.625 L 95.085938 231.574219 L 46.980469 192.5625 Z M 86.679688 143.613281 "/></clipPath><clipPath id="c1bfad0478"><path d="M 92 165 L 95 165 L 95 178 L 92 178 Z M 92 165 "/></clipPath><clipPath id="39e295586c"><path d="M 86.679688 143.613281 L 134.785156 182.625 L 95.085938 231.574219 L 46.980469 192.5625 Z M 86.679688 143.613281 "/></clipPath><clipPath id="0cf3825292"><path d="M 86.679688 143.613281 L 134.785156 182.625 L 95.085938 231.574219 L 46.980469 192.5625 Z M 86.679688 143.613281 "/></clipPath><clipPath id="e9af107786"><path d="M 86.679688 143.613281 L 134.785156 182.625 L 95.085938 231.574219 L 46.980469 192.5625 Z M 86.679688 143.613281 "/></clipPath><clipPath id="a18eafd769"><path d="M 105 175 L 115 175 L 115 184 L 105 184 Z M 105 175 "/></clipPath><clipPath id="0ad0a1e1cd"><path d="M 86.679688 143.613281 L 134.785156 182.625 L 95.085938 231.574219 L 46.980469 192.5625 Z M 86.679688 143.613281 "/></clipPath><clipPath id="ddd7329671"><path d="M 86.679688 143.613281 L 134.785156 182.625 L 95.085938 231.574219 L 46.980469 192.5625 Z M 86.679688 143.613281 "/></clipPath><clipPath id="59e3d42226"><path d="M 86.679688 143.613281 L 134.785156 182.625 L 95.085938 231.574219 L 46.980469 192.5625 Z M 86.679688 143.613281 "/></clipPath><clipPath id="2b7dea50b2"><path d="M 65 181 L 77 181 L 77 188 L 65 188 Z M 65 181 "/></clipPath><clipPath id="5ae94c3484"><path d="M 86.679688 143.613281 L 134.785156 182.625 L 95.085938 231.574219 L 46.980469 192.5625 Z M 86.679688 143.613281 "/></clipPath><clipPath id="b2d7e52010"><path d="M 86.679688 143.613281 L 134.785156 182.625 L 95.085938 231.574219 L 46.980469 192.5625 Z M 86.679688 143.613281 "/></clipPath><clipPath id="ff3fe40f16"><path d="M 86.679688 143.613281 L 134.785156 182.625 L 95.085938 231.574219 L 46.980469 192.5625 Z M 86.679688 143.613281 "/></clipPath><clipPath id="6193491b1d"><path d="M 82 166 L 88 166 L 88 179 L 82 179 Z M 82 166 "/></clipPath><clipPath id="87c87e30d1"><path d="M 86.679688 143.613281 L 134.785156 182.625 L 95.085938 231.574219 L 46.980469 192.5625 Z M 86.679688 143.613281 "/></clipPath><clipPath id="72929aae22"><path d="M 86.679688 143.613281 L 134.785156 182.625 L 95.085938 231.574219 L 46.980469 192.5625 Z M 86.679688 143.613281 "/></clipPath><clipPath id="9abc416f78"><path d="M 86.679688 143.613281 L 134.785156 182.625 L 95.085938 231.574219 L 46.980469 192.5625 Z M 86.679688 143.613281 "/></clipPath><clipPath id="6600414255"><path d="M 99 168 L 106 168 L 106 180 L 99 180 Z M 99 168 "/></clipPath><clipPath id="f390bd26c5"><path d="M 86.679688 143.613281 L 134.785156 182.625 L 95.085938 231.574219 L 46.980469 192.5625 Z M 86.679688 143.613281 "/></clipPath><clipPath id="22b6ad462c"><path d="M 86.679688 143.613281 L 134.785156 182.625 L 95.085938 231.574219 L 46.980469 192.5625 Z M 86.679688 143.613281 "/></clipPath><clipPath id="2b2b5c78cb"><path d="M 86.679688 143.613281 L 134.785156 182.625 L 95.085938 231.574219 L 46.980469 192.5625 Z M 86.679688 143.613281 "/></clipPath><clipPath id="c5a188f04b"><path d="M 108 185 L 121 185 L 121 191 L 108 191 Z M 108 185 "/></clipPath><clipPath id="61cc9028c3"><path d="M 86.679688 143.613281 L 134.785156 182.625 L 95.085938 231.574219 L 46.980469 192.5625 Z M 86.679688 143.613281 "/></clipPath><clipPath id="ad6afd1e5b"><path d="M 86.679688 143.613281 L 134.785156 182.625 L 95.085938 231.574219 L 46.980469 192.5625 Z M 86.679688 143.613281 "/></clipPath><clipPath id="bc6334f90a"><path d="M 86.679688 143.613281 L 134.785156 182.625 L 95.085938 231.574219 L 46.980469 192.5625 Z M 86.679688 143.613281 "/></clipPath><clipPath id="cb6ebf7fc6"><path d="M 79.3125 192 L 84 192 L 84 206 L 79.3125 206 Z M 79.3125 192 "/></clipPath><clipPath id="a31bc5d14f"><path d="M 81 183 L 105.933594 183 L 105.933594 210.660156 L 81 210.660156 Z M 81 183 "/></clipPath></defs><g id="1763de9118"><rect x="0" width="375" y="0" height="374.999991" style="fill:#ffffff;fill-opacity:1;stroke:none;"/><rect x="0" width="375" y="0" height="374.999991" style="fill:#ffffff;fill-opacity:1;stroke:none;"/><g clip-rule="nonzero" clip-path="url(#cfb3731f1c)"><g clip-rule="nonzero" clip-path="url(#b43ddf018d)"><g clip-rule="nonzero" clip-path="url(#a6654dce1a)"><g clip-rule="nonzero" clip-path="url(#31f3028efb)"><path style=" stroke:none;fill-rule:nonzero;fill:#f0a322;fill-opacity:1;" d="M 106.394531 194.003906 C 106.402344 193.824219 106.410156 193.609375 106.40625 193.351562 C 106.398438 193.097656 106.390625 192.800781 106.367188 192.46875 C 106.351562 192.304688 106.332031 192.128906 106.3125 191.945312 C 106.308594 191.898438 106.304688 191.851562 106.296875 191.808594 C 106.292969 191.761719 106.285156 191.714844 106.277344 191.664062 C 106.261719 191.570312 106.246094 191.472656 106.230469 191.375 C 106.214844 191.273438 106.195312 191.171875 106.179688 191.070312 C 106.160156 190.964844 106.136719 190.859375 106.113281 190.753906 C 106.089844 190.648438 106.0625 190.539062 106.039062 190.429688 C 106.035156 190.402344 106.027344 190.375 106.023438 190.34375 C 106.015625 190.316406 106.007812 190.289062 106 190.261719 C 105.984375 190.207031 105.96875 190.152344 105.953125 190.09375 C 105.890625 189.867188 105.832031 189.632812 105.746094 189.398438 C 105.703125 189.28125 105.664062 189.160156 105.621094 189.035156 C 105.613281 189.007812 105.601562 188.976562 105.589844 188.945312 C 105.582031 188.914062 105.566406 188.882812 105.554688 188.855469 C 105.53125 188.792969 105.507812 188.730469 105.484375 188.671875 C 105.433594 188.546875 105.386719 188.421875 105.335938 188.296875 C 105.28125 188.171875 105.21875 188.046875 105.164062 187.921875 C 105.132812 187.855469 105.105469 187.792969 105.074219 187.730469 C 105.042969 187.664062 105.015625 187.597656 104.980469 187.535156 C 104.914062 187.410156 104.847656 187.28125 104.78125 187.152344 C 104.230469 186.117188 103.476562 185.070312 102.542969 184.085938 C 102.488281 184.023438 102.425781 183.964844 102.363281 183.90625 C 102.300781 183.84375 102.242188 183.785156 102.179688 183.722656 C 102.117188 183.664062 102.054688 183.605469 101.992188 183.542969 C 101.929688 183.484375 101.863281 183.425781 101.800781 183.367188 C 101.667969 183.253906 101.539062 183.132812 101.402344 183.019531 C 101.265625 182.910156 101.125 182.796875 100.988281 182.6875 C 100.847656 182.570312 100.699219 182.46875 100.554688 182.363281 C 100.40625 182.257812 100.261719 182.148438 100.105469 182.050781 C 99.949219 181.949219 99.792969 181.851562 99.640625 181.75 C 99.480469 181.65625 99.316406 181.566406 99.15625 181.472656 C 98.996094 181.375 98.824219 181.292969 98.65625 181.207031 C 98.488281 181.121094 98.320312 181.03125 98.148438 180.957031 C 97.972656 180.878906 97.800781 180.800781 97.621094 180.722656 C 97.445312 180.65625 97.265625 180.585938 97.082031 180.515625 C 96.355469 180.25 95.601562 180.03125 94.824219 179.878906 C 94.046875 179.730469 93.253906 179.640625 92.453125 179.609375 C 92.25 179.609375 92.050781 179.609375 91.851562 179.605469 L 91.699219 179.605469 L 90.917969 179.644531 L 90.878906 179.644531 L 90.84375 179.648438 L 90.777344 179.65625 L 90.636719 179.667969 L 90.359375 179.695312 L 90.222656 179.710938 L 90.152344 179.714844 C 90.085938 179.722656 90.121094 179.71875 90.101562 179.722656 L 90.085938 179.726562 L 90.046875 179.730469 C 89.25 179.835938 88.460938 180.007812 87.695312 180.234375 C 87.503906 180.296875 87.3125 180.359375 87.121094 180.417969 C 86.933594 180.484375 86.746094 180.558594 86.5625 180.628906 L 86.421875 180.679688 L 86.351562 180.707031 L 86.285156 180.738281 C 86.191406 180.777344 86.101562 180.816406 86.011719 180.855469 C 85.828125 180.9375 85.644531 181.011719 85.46875 181.105469 C 84.757812 181.445312 84.085938 181.859375 83.453125 182.300781 C 83.375 182.355469 83.296875 182.414062 83.21875 182.46875 C 83.140625 182.527344 83.0625 182.582031 82.988281 182.640625 C 82.835938 182.761719 82.6875 182.878906 82.539062 183 C 82.390625 183.121094 82.25 183.25 82.109375 183.371094 C 82.039062 183.4375 81.964844 183.496094 81.898438 183.5625 C 81.832031 183.628906 81.765625 183.691406 81.699219 183.757812 C 81.628906 183.824219 81.5625 183.886719 81.496094 183.953125 C 81.464844 183.984375 81.429688 184.019531 81.398438 184.050781 L 81.304688 184.152344 C 81.179688 184.289062 81.054688 184.425781 80.929688 184.558594 C 80.808594 184.699219 80.691406 184.839844 80.574219 184.976562 C 80.519531 185.046875 80.457031 185.117188 80.40625 185.1875 C 80.351562 185.257812 80.296875 185.332031 80.242188 185.402344 C 80.1875 185.472656 80.132812 185.546875 80.082031 185.617188 L 80 185.722656 L 79.925781 185.832031 C 79.828125 185.980469 79.726562 186.125 79.628906 186.269531 C 79.578125 186.339844 79.535156 186.417969 79.492188 186.492188 C 79.445312 186.566406 79.402344 186.636719 79.355469 186.710938 C 79.3125 186.785156 79.269531 186.859375 79.222656 186.933594 C 79.179688 187.007812 79.140625 187.082031 79.101562 187.15625 C 79.019531 187.304688 78.941406 187.453125 78.859375 187.601562 C 78.789062 187.753906 78.71875 187.902344 78.648438 188.050781 C 78.613281 188.125 78.578125 188.199219 78.542969 188.273438 C 78.511719 188.347656 78.480469 188.421875 78.449219 188.496094 C 78.386719 188.648438 78.328125 188.796875 78.265625 188.941406 C 78.214844 189.089844 78.160156 189.238281 78.109375 189.386719 C 78.082031 189.460938 78.058594 189.535156 78.03125 189.605469 C 78.007812 189.679688 77.988281 189.753906 77.964844 189.828125 C 77.921875 189.972656 77.878906 190.117188 77.835938 190.261719 C 77.8125 190.332031 77.796875 190.40625 77.78125 190.476562 C 77.761719 190.550781 77.746094 190.621094 77.730469 190.691406 C 77.710938 190.765625 77.695312 190.835938 77.679688 190.90625 C 77.664062 190.976562 77.644531 191.042969 77.632812 191.117188 C 77.605469 191.257812 77.582031 191.394531 77.554688 191.53125 C 77.542969 191.601562 77.53125 191.667969 77.519531 191.738281 C 77.507812 191.804688 77.5 191.875 77.488281 191.941406 C 77.46875 192.074219 77.453125 192.207031 77.4375 192.339844 C 77.417969 192.472656 77.410156 192.601562 77.402344 192.730469 C 77.390625 192.859375 77.382812 192.984375 77.371094 193.109375 C 77.371094 193.140625 77.367188 193.171875 77.367188 193.203125 C 77.363281 193.234375 77.363281 193.265625 77.363281 193.296875 C 77.359375 193.355469 77.359375 193.417969 77.355469 193.476562 C 77.355469 193.597656 77.351562 193.71875 77.351562 193.835938 C 77.355469 194.304688 77.371094 194.742188 77.414062 195.144531 C 77.425781 195.242188 77.433594 195.339844 77.441406 195.4375 C 77.457031 195.535156 77.46875 195.628906 77.484375 195.71875 C 77.496094 195.8125 77.511719 195.902344 77.523438 195.988281 C 77.535156 196.074219 77.546875 196.160156 77.566406 196.242188 C 77.597656 196.402344 77.628906 196.550781 77.660156 196.695312 C 77.675781 196.769531 77.691406 196.839844 77.703125 196.90625 C 77.722656 196.972656 77.738281 197.039062 77.753906 197.101562 C 77.816406 197.347656 77.878906 197.558594 77.929688 197.726562 C 77.984375 197.894531 78.027344 198.019531 78.058594 198.105469 C 78.089844 198.191406 78.105469 198.238281 78.105469 198.238281 C 78.105469 198.238281 78.085938 198.050781 78.066406 197.699219 C 78.054688 197.527344 78.046875 197.3125 78.039062 197.058594 C 78.035156 196.996094 78.035156 196.933594 78.035156 196.863281 C 78.035156 196.796875 78.035156 196.730469 78.035156 196.65625 C 78.039062 196.511719 78.039062 196.355469 78.039062 196.195312 C 78.035156 196.109375 78.046875 196.03125 78.050781 195.945312 C 78.054688 195.863281 78.058594 195.777344 78.0625 195.6875 C 78.066406 195.601562 78.070312 195.511719 78.074219 195.421875 C 78.085938 195.328125 78.09375 195.234375 78.101562 195.140625 C 78.136719 194.757812 78.191406 194.347656 78.261719 193.914062 C 78.410156 193.046875 78.660156 192.089844 79.042969 191.097656 C 79.226562 190.597656 79.464844 190.097656 79.71875 189.589844 C 79.789062 189.46875 79.855469 189.339844 79.925781 189.214844 C 79.960938 189.152344 79.996094 189.089844 80.03125 189.023438 C 80.070312 188.964844 80.105469 188.902344 80.144531 188.839844 C 80.222656 188.714844 80.296875 188.589844 80.375 188.460938 C 80.457031 188.339844 80.539062 188.214844 80.625 188.089844 C 80.667969 188.03125 80.707031 187.964844 80.75 187.90625 C 80.796875 187.84375 80.84375 187.785156 80.886719 187.722656 C 80.933594 187.660156 80.976562 187.601562 81.023438 187.539062 C 81.070312 187.480469 81.113281 187.414062 81.160156 187.355469 C 81.257812 187.238281 81.355469 187.117188 81.453125 187 L 81.527344 186.910156 L 81.605469 186.820312 C 81.65625 186.761719 81.707031 186.707031 81.761719 186.648438 C 81.8125 186.589844 81.863281 186.53125 81.914062 186.472656 C 81.96875 186.410156 82.023438 186.359375 82.078125 186.300781 C 82.191406 186.1875 82.296875 186.074219 82.410156 185.960938 C 82.527344 185.851562 82.644531 185.742188 82.761719 185.632812 L 82.847656 185.550781 C 82.878906 185.523438 82.910156 185.5 82.9375 185.472656 C 83 185.417969 83.0625 185.367188 83.121094 185.3125 C 83.183594 185.261719 83.246094 185.207031 83.304688 185.15625 C 83.367188 185.101562 83.433594 185.054688 83.496094 185.003906 C 83.5625 184.953125 83.625 184.90625 83.6875 184.855469 C 83.753906 184.804688 83.816406 184.75 83.882812 184.703125 C 84.015625 184.609375 84.148438 184.515625 84.285156 184.417969 C 84.351562 184.371094 84.417969 184.328125 84.488281 184.28125 C 84.558594 184.238281 84.628906 184.191406 84.699219 184.148438 C 84.765625 184.101562 84.835938 184.058594 84.90625 184.011719 C 84.976562 183.972656 85.050781 183.929688 85.121094 183.886719 C 85.191406 183.847656 85.265625 183.804688 85.335938 183.761719 L 85.445312 183.699219 C 85.480469 183.679688 85.519531 183.660156 85.554688 183.640625 C 85.703125 183.566406 85.851562 183.488281 86 183.410156 C 86.148438 183.335938 86.304688 183.269531 86.457031 183.195312 C 87.070312 182.925781 87.703125 182.683594 88.359375 182.503906 C 88.4375 182.476562 88.519531 182.457031 88.601562 182.4375 L 88.851562 182.375 L 89.097656 182.3125 L 89.597656 182.210938 C 89.683594 182.195312 89.765625 182.179688 89.851562 182.167969 L 90.355469 182.089844 L 90.402344 182.085938 C 90.398438 182.085938 90.410156 182.082031 90.414062 182.082031 L 90.460938 182.078125 L 90.597656 182.0625 L 90.875 182.035156 L 91.015625 182.023438 L 91.117188 182.011719 C 91.128906 182.011719 91.136719 182.011719 91.148438 182.007812 L 91.390625 181.996094 L 91.636719 181.984375 L 91.757812 181.976562 L 91.886719 181.976562 C 92.054688 181.976562 92.226562 181.976562 92.394531 181.972656 C 93.074219 181.992188 93.75 182.050781 94.414062 182.15625 C 94.578125 182.1875 94.742188 182.21875 94.90625 182.246094 C 94.988281 182.261719 95.070312 182.28125 95.152344 182.300781 C 95.234375 182.320312 95.3125 182.339844 95.394531 182.359375 C 95.476562 182.378906 95.558594 182.394531 95.640625 182.414062 C 95.71875 182.4375 95.800781 182.460938 95.878906 182.484375 C 95.957031 182.503906 96.039062 182.527344 96.117188 182.550781 L 96.238281 182.585938 L 96.355469 182.625 C 96.511719 182.675781 96.667969 182.726562 96.824219 182.78125 C 96.980469 182.835938 97.132812 182.898438 97.285156 182.957031 C 97.4375 183.011719 97.585938 183.082031 97.734375 183.144531 C 97.882812 183.210938 98.035156 183.269531 98.175781 183.347656 C 98.761719 183.617188 99.3125 183.945312 99.835938 184.285156 C 99.96875 184.371094 100.097656 184.457031 100.222656 184.542969 C 100.347656 184.636719 100.472656 184.726562 100.597656 184.820312 C 100.65625 184.863281 100.722656 184.910156 100.78125 184.957031 C 100.839844 185.003906 100.898438 185.050781 100.957031 185.101562 C 101.015625 185.148438 101.074219 185.195312 101.132812 185.242188 C 101.191406 185.289062 101.25 185.335938 101.304688 185.386719 C 102.210938 186.171875 102.988281 187.019531 103.609375 187.882812 C 103.6875 187.992188 103.765625 188.097656 103.839844 188.203125 C 103.878906 188.257812 103.914062 188.3125 103.949219 188.367188 C 103.984375 188.421875 104.019531 188.476562 104.050781 188.527344 C 104.121094 188.636719 104.191406 188.742188 104.257812 188.847656 C 104.320312 188.957031 104.382812 189.0625 104.445312 189.167969 C 104.476562 189.222656 104.507812 189.273438 104.539062 189.324219 C 104.550781 189.351562 104.570312 189.375 104.582031 189.402344 C 104.597656 189.429688 104.609375 189.457031 104.625 189.480469 C 104.679688 189.589844 104.734375 189.691406 104.789062 189.796875 C 104.902344 190 104.992188 190.207031 105.085938 190.40625 C 105.457031 191.203125 105.710938 191.9375 105.894531 192.554688 C 105.921875 192.628906 105.9375 192.707031 105.957031 192.78125 C 105.976562 192.855469 105.996094 192.925781 106.015625 192.996094 C 106.050781 193.132812 106.089844 193.265625 106.117188 193.386719 C 106.175781 193.632812 106.222656 193.839844 106.257812 194.011719 C 106.328125 194.355469 106.359375 194.539062 106.359375 194.539062 C 106.359375 194.539062 106.363281 194.492188 106.371094 194.402344 C 106.375 194.3125 106.386719 194.179688 106.394531 194.003906 "/></g></g></g></g><g clip-rule="nonzero" clip-path="url(#61a8a037ef)"><g clip-rule="nonzero" clip-path="url(#1fc618ae74)"><g clip-rule="nonzero" clip-path="url(#2032eac351)"><g clip-rule="nonzero" clip-path="url(#11b55054ce)"><g clip-rule="nonzero" clip-path="url(#b635ad434c)"><path style=" stroke:none;fill-rule:nonzero;fill:#f0a322;fill-opacity:1;" d="M 110.171875 191.613281 C 110.125 191.617188 110.066406 191.625 110.015625 191.632812 C 109.371094 191.757812 108.949219 192.382812 109.074219 193.03125 C 109.199219 193.675781 109.824219 194.101562 110.46875 193.976562 L 128.382812 190.519531 L 110.171875 191.613281 "/></g></g></g></g></g><g clip-rule="nonzero" clip-path="url(#fcad42d1fe)"><g clip-rule="nonzero" clip-path="url(#ccd3241e49)"><g clip-rule="nonzero" clip-path="url(#ee4a1317c3)"><g clip-rule="nonzero" clip-path="url(#e82b789f38)"><g clip-rule="nonzero" clip-path="url(#923b20a759)"><path style=" stroke:none;fill-rule:nonzero;fill:#f0a322;fill-opacity:1;" d="M 75.050781 197.15625 C 74.925781 196.511719 74.300781 196.085938 73.652344 196.210938 L 55.738281 199.667969 L 73.953125 198.574219 C 74 198.570312 74.058594 198.5625 74.105469 198.554688 C 74.753906 198.429688 75.175781 197.804688 75.050781 197.15625 "/></g></g></g></g></g><g clip-rule="nonzero" clip-path="url(#411ca46d02)"><g clip-rule="nonzero" clip-path="url(#b8b62ea6b6)"><g clip-rule="nonzero" clip-path="url(#e35af533a7)"><g clip-rule="nonzero" clip-path="url(#4f4736879e)"><path style=" stroke:none;fill-rule:nonzero;fill:#f0a322;fill-opacity:1;" d="M 76.914062 184.84375 C 77.460938 185.214844 78.203125 185.070312 78.570312 184.523438 C 78.941406 183.980469 78.796875 183.238281 78.25 182.867188 L 63.136719 172.644531 L 76.789062 184.75 C 76.828125 184.78125 76.871094 184.816406 76.914062 184.84375 "/></g></g></g></g><g clip-rule="nonzero" clip-path="url(#37530038fc)"><g clip-rule="nonzero" clip-path="url(#156b51a7e0)"><g clip-rule="nonzero" clip-path="url(#a3199996de)"><g clip-rule="nonzero" clip-path="url(#93d3379eba)"><path style=" stroke:none;fill-rule:nonzero;fill:#f0a322;fill-opacity:1;" d="M 88.59375 177.136719 C 88.71875 177.785156 89.347656 178.207031 89.992188 178.082031 C 90.640625 177.957031 91.0625 177.332031 90.9375 176.6875 L 87.476562 158.773438 L 88.574219 176.984375 C 88.578125 177.03125 88.585938 177.089844 88.59375 177.136719 "/></g></g></g></g><g clip-rule="nonzero" clip-path="url(#2e14c7a0f2)"><g clip-rule="nonzero" clip-path="url(#87e8b93405)"><g clip-rule="nonzero" clip-path="url(#56aba0adb4)"><g clip-rule="nonzero" clip-path="url(#db8a600df2)"><path style=" stroke:none;fill-rule:nonzero;fill:#f0a322;fill-opacity:1;" d="M 102.628906 181.605469 C 103.171875 181.976562 103.914062 181.832031 104.285156 181.289062 L 114.503906 166.175781 L 102.402344 179.828125 C 102.371094 179.863281 102.335938 179.910156 102.308594 179.949219 C 101.9375 180.496094 102.082031 181.238281 102.628906 181.605469 "/></g></g></g></g><g clip-rule="nonzero" clip-path="url(#11579f9c52)"><g clip-rule="nonzero" clip-path="url(#04a007a895)"><g clip-rule="nonzero" clip-path="url(#282c02e6e4)"><g clip-rule="nonzero" clip-path="url(#06831d5ef9)"><path style=" stroke:none;fill-rule:nonzero;fill:#f0a322;fill-opacity:1;" d="M 74.179688 191.261719 C 74.824219 191.402344 75.457031 190.992188 75.59375 190.347656 C 75.734375 189.703125 75.324219 189.066406 74.679688 188.929688 L 56.835938 185.109375 L 74.03125 191.21875 C 74.074219 191.238281 74.128906 191.253906 74.179688 191.261719 "/></g></g></g></g><g clip-rule="nonzero" clip-path="url(#d04976384d)"><g clip-rule="nonzero" clip-path="url(#18391ef877)"><g clip-rule="nonzero" clip-path="url(#13c0d24bae)"><g clip-rule="nonzero" clip-path="url(#a701f9b7f2)"><path style=" stroke:none;fill-rule:nonzero;fill:#f0a322;fill-opacity:1;" d="M 82.121094 179.742188 C 82.480469 180.296875 83.21875 180.453125 83.773438 180.09375 C 84.324219 179.738281 84.484375 179 84.125 178.445312 L 74.207031 163.128906 L 82.046875 179.605469 C 82.066406 179.648438 82.09375 179.699219 82.121094 179.742188 "/></g></g></g></g><g clip-rule="nonzero" clip-path="url(#6bf07eaa8e)"><g clip-rule="nonzero" clip-path="url(#53efd30f03)"><g clip-rule="nonzero" clip-path="url(#6c1e039fa5)"><g clip-rule="nonzero" clip-path="url(#7c73ddd67a)"><path style=" stroke:none;fill-rule:nonzero;fill:#f0a322;fill-opacity:1;" d="M 95.886719 177.214844 C 95.75 177.859375 96.160156 178.492188 96.804688 178.628906 C 97.449219 178.769531 98.082031 178.355469 98.222656 177.714844 L 102.035156 159.871094 L 95.929688 177.0625 C 95.914062 177.109375 95.898438 177.164062 95.886719 177.214844 "/></g></g></g></g><g clip-rule="nonzero" clip-path="url(#7609fe3634)"><g clip-rule="nonzero" clip-path="url(#b7b0efc315)"><g clip-rule="nonzero" clip-path="url(#96e119d931)"><g clip-rule="nonzero" clip-path="url(#65bd645857)"><path style=" stroke:none;fill-rule:nonzero;fill:#f0a322;fill-opacity:1;" d="M 107.058594 186.808594 C 107.417969 187.363281 108.15625 187.519531 108.710938 187.164062 L 124.023438 177.25 L 107.546875 185.082031 C 107.503906 185.105469 107.453125 185.132812 107.410156 185.160156 C 106.859375 185.515625 106.699219 186.257812 107.058594 186.808594 "/></g></g></g></g><g clip-rule="nonzero" clip-path="url(#d155a7265f)"><g clip-rule="nonzero" clip-path="url(#a5871393e4)"><g clip-rule="nonzero" clip-path="url(#526f04e4ae)"><g clip-rule="nonzero" clip-path="url(#b7d4e625b2)"><path style=" stroke:none;fill-rule:nonzero;fill:#f0a322;fill-opacity:1;" d="M 73.644531 194.679688 C 73.679688 194.683594 73.714844 194.6875 73.75 194.6875 C 74.175781 194.6875 74.519531 194.339844 74.519531 193.914062 C 74.519531 193.488281 74.171875 193.140625 73.746094 193.144531 L 62.261719 193.175781 L 73.644531 194.679688 "/></g></g></g></g><g clip-rule="nonzero" clip-path="url(#1a6d947616)"><g clip-rule="nonzero" clip-path="url(#89f9e7d1d8)"><g clip-rule="nonzero" clip-path="url(#bd4e3329c1)"><g clip-rule="nonzero" clip-path="url(#52a4629e90)"><path style=" stroke:none;fill-rule:nonzero;fill:#f0a322;fill-opacity:1;" d="M 80.484375 180.761719 L 72.34375 172.671875 L 79.328125 181.78125 C 79.347656 181.808594 79.371094 181.835938 79.398438 181.859375 C 79.699219 182.160156 80.1875 182.15625 80.488281 181.855469 C 80.789062 181.554688 80.789062 181.0625 80.484375 180.761719 "/></g></g></g></g><g clip-rule="nonzero" clip-path="url(#c1bfad0478)"><g clip-rule="nonzero" clip-path="url(#39e295586c)"><g clip-rule="nonzero" clip-path="url(#0cf3825292)"><g clip-rule="nonzero" clip-path="url(#e9af107786)"><path style=" stroke:none;fill-rule:nonzero;fill:#f0a322;fill-opacity:1;" d="M 92.460938 176.78125 C 92.464844 177.210938 92.8125 177.554688 93.238281 177.554688 C 93.664062 177.550781 94.007812 177.203125 94.007812 176.777344 L 93.96875 165.296875 L 92.46875 176.679688 C 92.464844 176.710938 92.460938 176.75 92.460938 176.78125 "/></g></g></g></g><g clip-rule="nonzero" clip-path="url(#a18eafd769)"><g clip-rule="nonzero" clip-path="url(#0ad0a1e1cd)"><g clip-rule="nonzero" clip-path="url(#ddd7329671)"><g clip-rule="nonzero" clip-path="url(#59e3d42226)"><path style=" stroke:none;fill-rule:nonzero;fill:#f0a322;fill-opacity:1;" d="M 105.296875 183.527344 C 105.601562 183.824219 106.089844 183.824219 106.390625 183.523438 L 114.480469 175.382812 L 105.371094 182.363281 C 105.347656 182.386719 105.316406 182.410156 105.292969 182.433594 C 104.992188 182.734375 104.996094 183.226562 105.296875 183.527344 "/></g></g></g></g><g clip-rule="nonzero" clip-path="url(#2b7dea50b2)"><g clip-rule="nonzero" clip-path="url(#5ae94c3484)"><g clip-rule="nonzero" clip-path="url(#b2d7e52010)"><g clip-rule="nonzero" clip-path="url(#ff3fe40f16)"><path style=" stroke:none;fill-rule:nonzero;fill:#f0a322;fill-opacity:1;" d="M 75.960938 186.140625 L 65.378906 181.6875 L 75.269531 187.515625 C 75.296875 187.535156 75.332031 187.550781 75.363281 187.5625 C 75.753906 187.730469 76.207031 187.546875 76.375 187.152344 C 76.539062 186.757812 76.355469 186.304688 75.960938 186.140625 "/></g></g></g></g><g clip-rule="nonzero" clip-path="url(#6193491b1d)"><g clip-rule="nonzero" clip-path="url(#87c87e30d1)"><g clip-rule="nonzero" clip-path="url(#72929aae22)"><g clip-rule="nonzero" clip-path="url(#9abc416f78)"><path style=" stroke:none;fill-rule:nonzero;fill:#f0a322;fill-opacity:1;" d="M 86.582031 178.386719 C 86.976562 178.226562 87.164062 177.777344 87.003906 177.382812 L 82.671875 166.746094 L 85.542969 177.863281 C 85.550781 177.898438 85.5625 177.933594 85.574219 177.964844 C 85.734375 178.359375 86.1875 178.546875 86.582031 178.386719 "/></g></g></g></g><g clip-rule="nonzero" clip-path="url(#6600414255)"><g clip-rule="nonzero" clip-path="url(#f390bd26c5)"><g clip-rule="nonzero" clip-path="url(#22b6ad462c)"><g clip-rule="nonzero" clip-path="url(#2b2b5c78cb)"><path style=" stroke:none;fill-rule:nonzero;fill:#f0a322;fill-opacity:1;" d="M 99.585938 178.398438 C 99.421875 178.789062 99.605469 179.242188 100 179.410156 C 100.390625 179.574219 100.84375 179.390625 101.011719 178.996094 L 105.460938 168.417969 L 99.632812 178.304688 C 99.617188 178.332031 99.601562 178.367188 99.585938 178.398438 "/></g></g></g></g><g clip-rule="nonzero" clip-path="url(#c5a188f04b)"><g clip-rule="nonzero" clip-path="url(#61cc9028c3)"><g clip-rule="nonzero" clip-path="url(#ad6afd1e5b)"><g clip-rule="nonzero" clip-path="url(#bc6334f90a)"><path style=" stroke:none;fill-rule:nonzero;fill:#f0a322;fill-opacity:1;" d="M 109.191406 188.613281 C 108.796875 188.773438 108.605469 189.222656 108.769531 189.617188 C 108.929688 190.011719 109.378906 190.203125 109.773438 190.042969 L 120.40625 185.710938 L 109.289062 188.578125 C 109.257812 188.589844 109.222656 188.597656 109.191406 188.613281 "/></g></g></g></g><g clip-rule="nonzero" clip-path="url(#cb6ebf7fc6)"><path style=" stroke:none;fill-rule:evenodd;fill:#7ed957;fill-opacity:1;" d="M 81.09375 199.542969 L 81.742188 199.542969 C 81.734375 199.777344 81.730469 200.011719 81.730469 200.246094 C 81.730469 200.246094 81.730469 200.253906 81.730469 200.253906 C 81.730469 200.753906 81.746094 201.257812 81.777344 201.757812 C 81.777344 201.769531 81.777344 201.777344 81.777344 201.792969 C 81.777344 201.800781 81.777344 201.804688 81.777344 201.8125 C 81.824219 202.226562 81.875 202.640625 81.949219 203.054688 C 82.125 203.898438 82.417969 204.734375 82.789062 205.574219 C 82.65625 205.085938 82.539062 204.597656 82.496094 204.101562 C 82.449219 203.609375 82.472656 203.117188 82.484375 202.625 C 82.523438 202.171875 82.5625 201.710938 82.632812 201.257812 C 82.707031 200.804688 82.796875 200.34375 82.898438 199.890625 C 83.082031 199.171875 83.292969 198.445312 83.539062 197.722656 C 83.296875 197.722656 83.058594 197.722656 82.824219 197.722656 L 81.152344 197.722656 C 81.296875 197.183594 81.457031 196.648438 81.644531 196.117188 C 81.78125 195.730469 81.933594 195.34375 82.097656 194.953125 C 82.109375 194.925781 82.117188 194.898438 82.132812 194.867188 C 82.183594 194.75 82.234375 194.628906 82.285156 194.511719 C 82.574219 193.652344 83.011719 192.847656 83.574219 192.097656 L 80.953125 192.097656 C 80.714844 192.710938 80.484375 193.320312 80.285156 193.933594 C 80.09375 194.542969 79.945312 195.160156 79.800781 195.765625 C 79.667969 196.394531 79.550781 197.027344 79.46875 197.65625 C 79.386719 198.28125 79.34375 198.914062 79.3125 199.542969 C 79.5 199.542969 79.6875 199.542969 79.878906 199.542969 Z M 81.09375 199.542969 "/></g><g clip-rule="nonzero" clip-path="url(#a31bc5d14f)"><path style=" stroke:none;fill-rule:evenodd;fill:#000f52;fill-opacity:1;" d="M 84.082031 205.414062 C 84.207031 205.914062 84.363281 206.40625 84.558594 206.886719 C 84.570312 206.914062 84.578125 206.9375 84.589844 206.957031 C 84.59375 206.96875 84.597656 206.984375 84.605469 206.996094 C 84.609375 207.003906 84.613281 207.019531 84.621094 207.03125 C 84.625 207.039062 84.628906 207.054688 84.636719 207.066406 L 84.636719 207.070312 C 84.640625 207.082031 84.644531 207.097656 84.648438 207.105469 C 84.664062 207.089844 84.6875 207.074219 84.699219 207.0625 C 84.875 206.902344 85.0625 206.765625 85.261719 206.648438 C 86.109375 206.152344 87.160156 206.039062 88.144531 206.429688 C 89.132812 206.816406 89.824219 207.628906 90.101562 208.578125 C 90.265625 209.136719 90.28125 209.746094 90.125 210.34375 C 91.519531 210.53125 92.914062 210.5 94.265625 210.269531 C 94.09375 209.6875 94.085938 209.082031 94.230469 208.519531 C 94.476562 207.5625 95.144531 206.722656 96.117188 206.300781 C 97.097656 205.875 98.175781 205.964844 99.042969 206.441406 C 99.546875 206.722656 99.980469 207.136719 100.28125 207.65625 C 101.375 206.832031 102.351562 205.832031 103.160156 204.683594 C 102.628906 204.398438 102.207031 203.976562 101.90625 203.488281 C 101.390625 202.636719 101.261719 201.558594 101.660156 200.5625 C 101.738281 200.371094 101.828125 200.1875 101.941406 200.011719 L 101.074219 200.011719 C 100.871094 200.578125 100.609375 201.128906 100.296875 201.660156 C 99.441406 203.09375 98.222656 204.292969 96.765625 205.121094 C 95.367188 205.917969 93.746094 206.371094 92.007812 206.371094 C 89.351562 206.371094 86.941406 205.296875 85.195312 203.550781 C 84.742188 203.09375 84.328125 202.589844 83.972656 202.054688 C 83.804688 202.96875 83.804688 203.902344 83.957031 204.804688 C 83.988281 205.007812 84.03125 205.207031 84.082031 205.414062 C 84.113281 205.535156 84.148438 205.65625 84.1875 205.78125 C 84.148438 205.65625 84.113281 205.539062 84.082031 205.414062 M 85.261719 186.828125 C 84.753906 186.535156 84.316406 186.09375 84.027344 185.546875 C 82.878906 186.359375 81.882812 187.335938 81.050781 188.425781 C 81.59375 188.742188 82.011719 189.191406 82.292969 189.714844 C 82.378906 189.875 82.457031 190.050781 82.515625 190.230469 L 84.898438 190.230469 C 84.996094 190.125 85.09375 190.023438 85.191406 189.921875 C 86.9375 188.175781 89.339844 187.101562 92.003906 187.101562 C 94.667969 187.101562 97.074219 188.175781 98.816406 189.921875 C 100.296875 191.402344 101.304688 193.367188 101.570312 195.558594 L 95.3125 195.558594 C 94.867188 194.71875 93.984375 194.148438 92.980469 194.148438 L 90.339844 194.148438 L 90.339844 195.179688 L 88.636719 195.179688 L 88.636719 196.132812 L 90.339844 196.132812 L 90.339844 197.464844 L 88.636719 197.464844 L 88.636719 198.410156 L 90.339844 198.410156 L 90.339844 199.441406 L 92.980469 199.441406 C 94.03125 199.441406 94.949219 198.8125 95.367188 197.921875 L 105.636719 197.921875 C 105.671875 197.527344 105.6875 197.132812 105.6875 196.746094 C 105.6875 196.132812 105.648438 195.515625 105.558594 194.898438 C 104.976562 195.050781 104.386719 195.042969 103.839844 194.886719 C 102.875 194.621094 102.046875 193.917969 101.652344 192.917969 C 101.257812 191.917969 101.378906 190.839844 101.902344 189.988281 C 102.195312 189.5 102.621094 189.085938 103.152344 188.800781 C 102.339844 187.652344 101.363281 186.65625 100.273438 185.824219 C 99.964844 186.34375 99.539062 186.757812 99.03125 187.039062 C 98.164062 187.523438 97.089844 187.609375 96.109375 187.1875 C 95.128906 186.761719 94.460938 185.921875 94.21875 184.960938 C 94.078125 184.398438 94.082031 183.796875 94.253906 183.210938 C 92.90625 182.980469 91.507812 182.949219 90.117188 183.140625 C 90.273438 183.730469 90.253906 184.34375 90.089844 184.90625 C 89.816406 185.851562 89.121094 186.660156 88.136719 187.054688 C 87.160156 187.4375 86.105469 187.324219 85.261719 186.828125 Z M 84.648438 207.113281 C 84.746094 207.339844 84.859375 207.570312 84.972656 207.796875 M 84.082031 205.414062 L 84.082031 205.417969 "/></g><g style="fill:#000f52;fill-opacity:1;"><g transform="translate(103.358062, 216.154762)"><path style="stroke:none" d="M 14.5 -0.421875 L 14.125 -0.734375 L 13.5 -1.453125 L 9.6875 -5.234375 L 9.265625 -5.5 L 8.953125 -5.875 L 7.203125 -7.546875 L 6.875 -7.96875 L 6.5625 -8.09375 L 6.390625 -7.671875 L 6.34375 -7.171875 L 6.3125 -0.953125 L 6.078125 -0.203125 L 5.578125 0.046875 L 5.0625 0.078125 L 4.109375 0 L 3.5625 0.046875 L 2.5625 0 L 2.046875 -0.171875 L 1.8125 -0.640625 L 1.765625 -2.703125 L 1.8125 -3.171875 L 1.765625 -7.203125 L 1.84375 -7.625 L 1.796875 -8.625 L 1.8125 -9.046875 L 1.8125 -16.484375 L 2.046875 -16.953125 L 2.609375 -17.203125 L 3.34375 -17.03125 L 3.90625 -16.734375 L 4.28125 -16.4375 L 9.125 -11.546875 L 9.8125 -11.015625 L 11.546875 -9.265625 L 11.921875 -9.09375 L 12.0625 -9.515625 L 12.109375 -13.90625 L 12.0625 -14.453125 L 12.140625 -15.484375 L 12.0625 -15.875 L 12.09375 -16.390625 L 12.359375 -16.90625 L 12.828125 -17.1875 L 15.875 -17.203125 L 16.375 -16.9375 L 16.609375 -16.4375 L 16.6875 -13.03125 L 16.609375 -12.4375 L 16.609375 -10 L 16.6875 -9.578125 L 16.640625 -0.609375 L 16.390625 -0.125 L 15.859375 0.046875 L 15.171875 -0.03125 Z M 14.5 -0.421875 "/></g></g><g style="fill:#000f52;fill-opacity:1;"><g transform="translate(121.887018, 216.154762)"><path style="stroke:none" d="M 14.5 0.046875 L 13.984375 0 L 13.421875 -0.25 L 12.921875 -0.609375 L 12.78125 -1.0625 L 12.5625 -1.53125 L 12.09375 -1.921875 L 11.546875 -2.1875 L 11.015625 -2.109375 L 10.5625 -2.15625 L 8.15625 -2.140625 L 7.71875 -2.21875 L 6.6875 -2.109375 L 6.21875 -2.1875 L 5.703125 -1.921875 L 5.234375 -1.453125 L 4.796875 -0.640625 L 4.328125 -0.203125 L 3.765625 -0.03125 L 2.390625 0.03125 L 1.890625 -0.03125 L 0.9375 0.03125 L 0.4375 -0.125 L 0.3125 -0.734375 L 0.46875 -1.234375 L 0.953125 -2.21875 L 1.078125 -2.65625 L 1.359375 -3 L 1.71875 -3.984375 L 2.15625 -4.765625 L 2.328125 -5.265625 L 2.578125 -5.625 L 2.734375 -6.171875 L 5.234375 -11.421875 L 5.375 -11.875 L 5.65625 -12.34375 L 5.78125 -12.828125 L 6.046875 -13.203125 L 7.03125 -15.453125 L 7.25 -15.796875 L 7.421875 -16.296875 L 7.640625 -16.71875 L 8.09375 -17.125 L 8.875 -17.40625 L 9.6875 -17.15625 L 10.109375 -16.71875 L 10.5625 -15.859375 L 10.71875 -15.40625 L 10.984375 -14.96875 L 11.140625 -14.46875 L 12.75 -11.0625 L 12.921875 -10.546875 L 13.4375 -9.640625 L 13.59375 -9.234375 L 13.8125 -8.875 L 13.953125 -8.328125 L 14.203125 -7.859375 L 14.453125 -7.5 L 15.390625 -5.265625 L 15.875 -4.375 L 16.21875 -3.46875 L 16.890625 -2.1875 L 17.25 -1.28125 L 17.421875 -0.71875 L 17.359375 -0.125 L 16.65625 0 L 15.90625 0.03125 L 15.4375 -0.03125 Z M 8.921875 -6.078125 L 9.90625 -6.09375 L 10.28125 -6.296875 L 10.375 -6.734375 L 9.21875 -9.4375 L 8.875 -9.640625 L 8.609375 -9.40625 L 7.453125 -6.765625 L 7.46875 -6.296875 L 7.859375 -6.125 L 8.4375 -6.171875 Z M 8.921875 -6.078125 "/></g></g><g style="fill:#000f52;fill-opacity:1;"><g transform="translate(139.727898, 216.154762)"><path style="stroke:none" d="M 8.53125 0.25 L 8.03125 0.09375 L 6.640625 -0.140625 L 6.21875 -0.265625 L 4.515625 -1.25 L 3.71875 -1.8125 L 2.734375 -2.84375 L 2.15625 -3.6875 L 1.71875 -4.515625 L 1.03125 -6.828125 L 0.90625 -8.546875 L 0.9375 -9.34375 L 1.375 -11.765625 L 2.28125 -13.609375 L 2.5625 -13.984375 L 2.921875 -14.359375 L 3.25 -14.75 L 4.328125 -15.703125 L 5.671875 -16.546875 L 7.5625 -17.234375 L 8.03125 -17.25 L 8.453125 -17.40625 L 8.953125 -17.421875 L 11.234375 -17.328125 L 12.390625 -17.015625 L 12.90625 -16.90625 L 14.625 -16 L 15 -15.703125 L 15.390625 -15.34375 L 15.921875 -14.890625 L 16.90625 -13.46875 L 17.125 -13.03125 L 17.46875 -12.015625 L 17.328125 -11.59375 L 16.71875 -11.328125 L 15.53125 -11.40625 L 14.796875 -11.3125 L 14.03125 -11.328125 L 13.4375 -11.5 L 12.921875 -11.921875 L 12.609375 -12.34375 L 12.3125 -12.65625 L 11.84375 -12.984375 L 11.375 -13.171875 L 10.46875 -13.421875 L 8.96875 -13.375 L 8.546875 -13.171875 L 8.09375 -13.125 L 7.671875 -12.90625 L 6.8125 -12.28125 L 6.046875 -11.140625 L 5.65625 -10.25 L 5.484375 -9.296875 L 5.5 -7.859375 L 5.625 -7.078125 L 5.828125 -6.359375 L 6.296875 -5.484375 L 6.5625 -5.140625 L 7.296875 -4.453125 L 8.625 -3.90625 L 9.875 -3.765625 L 10.515625 -3.78125 L 11.484375 -4 L 12.28125 -4.328125 L 12.640625 -4.59375 L 13 -5.015625 L 13.25 -5.4375 L 13.171875 -5.84375 L 12.8125 -6.015625 L 12.359375 -6.09375 L 11.140625 -6 L 10.421875 -6.046875 L 9.984375 -6.3125 L 9.75 -6.703125 L 9.75 -9.046875 L 9.984375 -9.515625 L 10.46875 -9.75 L 11.40625 -9.828125 L 12.875 -9.734375 L 16.203125 -9.8125 L 16.71875 -9.734375 L 17.234375 -9.703125 L 17.703125 -9.46875 L 17.9375 -9.046875 L 17.984375 -8.109375 L 17.9375 -7.640625 L 17.9375 -7.15625 L 17.84375 -6.703125 L 17.8125 -6.296875 L 17.625 -5.359375 L 17.125 -3.90625 L 16.84375 -3.5625 L 16.609375 -3.125 L 16.375 -2.703125 L 16.078125 -2.359375 L 15.703125 -2.0625 L 15.34375 -1.671875 L 14.578125 -1.078125 L 12.828125 -0.203125 L 10.984375 0.25 Z M 8.53125 0.25 "/></g></g><g style="fill:#000f52;fill-opacity:1;"><g transform="translate(158.551746, 216.154762)"><path style="stroke:none" d="M 14.5 0.046875 L 13.984375 0 L 13.421875 -0.25 L 12.921875 -0.609375 L 12.78125 -1.0625 L 12.5625 -1.53125 L 12.09375 -1.921875 L 11.546875 -2.1875 L 11.015625 -2.109375 L 10.5625 -2.15625 L 8.15625 -2.140625 L 7.71875 -2.21875 L 6.6875 -2.109375 L 6.21875 -2.1875 L 5.703125 -1.921875 L 5.234375 -1.453125 L 4.796875 -0.640625 L 4.328125 -0.203125 L 3.765625 -0.03125 L 2.390625 0.03125 L 1.890625 -0.03125 L 0.9375 0.03125 L 0.4375 -0.125 L 0.3125 -0.734375 L 0.46875 -1.234375 L 0.953125 -2.21875 L 1.078125 -2.65625 L 1.359375 -3 L 1.71875 -3.984375 L 2.15625 -4.765625 L 2.328125 -5.265625 L 2.578125 -5.625 L 2.734375 -6.171875 L 5.234375 -11.421875 L 5.375 -11.875 L 5.65625 -12.34375 L 5.78125 -12.828125 L 6.046875 -13.203125 L 7.03125 -15.453125 L 7.25 -15.796875 L 7.421875 -16.296875 L 7.640625 -16.71875 L 8.09375 -17.125 L 8.875 -17.40625 L 9.6875 -17.15625 L 10.109375 -16.71875 L 10.5625 -15.859375 L 10.71875 -15.40625 L 10.984375 -14.96875 L 11.140625 -14.46875 L 12.75 -11.0625 L 12.921875 -10.546875 L 13.4375 -9.640625 L 13.59375 -9.234375 L 13.8125 -8.875 L 13.953125 -8.328125 L 14.203125 -7.859375 L 14.453125 -7.5 L 15.390625 -5.265625 L 15.875 -4.375 L 16.21875 -3.46875 L 16.890625 -2.1875 L 17.25 -1.28125 L 17.421875 -0.71875 L 17.359375 -0.125 L 16.65625 0 L 15.90625 0.03125 L 15.4375 -0.03125 Z M 8.921875 -6.078125 L 9.90625 -6.09375 L 10.28125 -6.296875 L 10.375 -6.734375 L 9.21875 -9.4375 L 8.875 -9.640625 L 8.609375 -9.40625 L 7.453125 -6.765625 L 7.46875 -6.296875 L 7.859375 -6.125 L 8.4375 -6.171875 Z M 8.921875 -6.078125 "/></g></g><g style="fill:#000f52;fill-opacity:1;"><g transform="translate(176.392626, 216.154762)"><path style="stroke:none" d="M 8.546875 0.203125 L 8.09375 0.171875 L 7.640625 0.078125 L 7.15625 -0.09375 L 6.703125 -0.203125 L 5.609375 -0.65625 L 4.546875 -1.234375 L 3.4375 -2.1875 L 2.4375 -3.265625 L 1.375 -5.40625 L 1.03125 -6.8125 L 0.890625 -8.609375 L 1.125 -10.71875 L 1.375 -11.71875 L 1.984375 -13.09375 L 2.453125 -13.8125 L 3.125 -14.65625 L 4.171875 -15.609375 L 4.890625 -16.140625 L 6.703125 -17.015625 L 9.09375 -17.46875 L 10.625 -17.453125 L 11.109375 -17.375 L 11.578125 -17.359375 L 13.9375 -16.5625 L 15.609375 -15.515625 L 16.296875 -14.796875 L 16.5625 -14.328125 L 16.90625 -13.90625 L 17.125 -13.515625 L 17.40625 -13.125 L 17.546875 -12.609375 L 17.71875 -12.171875 L 17.875 -11.625 L 17.703125 -11.140625 L 17.28125 -10.9375 L 16.546875 -10.859375 L 15.859375 -10.9375 L 15.359375 -10.90625 L 14.84375 -10.9375 L 14.40625 -10.890625 L 13.84375 -11.15625 L 13.375 -11.625 L 13.09375 -12 L 12.390625 -12.703125 L 12.046875 -12.984375 L 11.59375 -13.15625 L 10.84375 -13.375 L 9.78125 -13.421875 L 8.140625 -13.203125 L 7.46875 -12.828125 L 6.875 -12.359375 L 6.296875 -11.671875 L 6.046875 -11.203125 L 5.671875 -10.328125 L 5.5 -9.34375 L 5.5 -7.84375 L 5.578125 -7.296875 L 5.703125 -6.859375 L 5.875 -6.515625 L 6.046875 -6.015625 L 6.59375 -5.15625 L 7.296875 -4.515625 L 8.15625 -4.078125 L 9.046875 -3.765625 L 9.75 -3.6875 L 11.0625 -3.765625 L 11.921875 -4.234375 L 12.28125 -4.375 L 12.6875 -4.71875 L 13.25 -5.359375 L 13.5 -5.828125 L 13.890625 -6.21875 L 14.453125 -6.515625 L 14.9375 -6.484375 L 15.4375 -6.515625 L 15.921875 -6.4375 L 17.296875 -6.53125 L 17.796875 -6.21875 L 17.9375 -5.78125 L 17.296875 -3.90625 L 16.78125 -3.015625 L 16.21875 -2.28125 L 15.53125 -1.59375 L 14.328125 -0.734375 L 13.90625 -0.546875 L 13.390625 -0.375 L 12.953125 -0.125 L 11.5 0.171875 L 9.78125 0.296875 Z M 8.546875 0.203125 "/></g></g><g style="fill:#000f52;fill-opacity:1;"><g transform="translate(195.142751, 216.154762)"><path style="stroke:none" d="M 1.796875 -0.6875 L 1.875 -2.703125 L 1.796875 -3.140625 L 1.796875 -10.5 L 1.84375 -10.984375 L 1.8125 -11.578125 L 1.875 -12.515625 L 1.765625 -13.515625 L 1.8125 -14.015625 L 1.765625 -15.921875 L 1.8125 -16.46875 L 2.0625 -16.953125 L 2.609375 -17.203125 L 5.03125 -17.15625 L 5.578125 -17.203125 L 6.09375 -16.9375 L 6.3125 -16.46875 L 6.359375 -15.5625 L 6.3125 -15.015625 L 6.296875 -13.09375 L 6.3125 -12.65625 L 6.3125 -12.140625 L 6.34375 -11.59375 L 6.59375 -11.140625 L 7.046875 -10.90625 L 8.5 -10.890625 L 8.953125 -10.9375 L 9.46875 -10.890625 L 10.421875 -10.984375 L 10.890625 -10.90625 L 11.375 -11.1875 L 11.65625 -11.671875 L 11.671875 -13.59375 L 11.59375 -14.0625 L 11.65625 -15.0625 L 11.59375 -15.484375 L 11.625 -16.421875 L 11.875 -17.015625 L 12.578125 -17.1875 L 15.40625 -17.15625 L 15.90625 -16.953125 L 16.125 -16.4375 L 16.09375 -4.109375 L 16.171875 -3.71875 L 16.09375 -2.921875 L 16.140625 -0.6875 L 15.859375 -0.265625 L 15.390625 0.046875 L 14.375 -0.03125 L 13.890625 0.03125 L 12.609375 0.03125 L 11.890625 -0.296875 L 11.625 -0.6875 L 11.59375 -6.125 L 11.359375 -6.59375 L 10.890625 -6.859375 L 10.453125 -6.859375 L 9.921875 -6.9375 L 7.03125 -6.90625 L 6.515625 -6.59375 L 6.296875 -6.078125 L 6.296875 -1.71875 L 6.34375 -1.1875 L 6.296875 -0.71875 L 6.09375 -0.25 L 5.578125 0.046875 L 4.546875 0.03125 L 4.03125 0.078125 L 3.046875 0.03125 L 2.5625 0.046875 L 2.09375 -0.21875 Z M 1.796875 -0.6875 "/></g></g><g style="fill:#000f52;fill-opacity:1;"><g transform="translate(213.131077, 216.154762)"><path style="stroke:none" d="M 14.5 0.046875 L 13.984375 0 L 13.421875 -0.25 L 12.921875 -0.609375 L 12.78125 -1.0625 L 12.5625 -1.53125 L 12.09375 -1.921875 L 11.546875 -2.1875 L 11.015625 -2.109375 L 10.5625 -2.15625 L 8.15625 -2.140625 L 7.71875 -2.21875 L 6.6875 -2.109375 L 6.21875 -2.1875 L 5.703125 -1.921875 L 5.234375 -1.453125 L 4.796875 -0.640625 L 4.328125 -0.203125 L 3.765625 -0.03125 L 2.390625 0.03125 L 1.890625 -0.03125 L 0.9375 0.03125 L 0.4375 -0.125 L 0.3125 -0.734375 L 0.46875 -1.234375 L 0.953125 -2.21875 L 1.078125 -2.65625 L 1.359375 -3 L 1.71875 -3.984375 L 2.15625 -4.765625 L 2.328125 -5.265625 L 2.578125 -5.625 L 2.734375 -6.171875 L 5.234375 -11.421875 L 5.375 -11.875 L 5.65625 -12.34375 L 5.78125 -12.828125 L 6.046875 -13.203125 L 7.03125 -15.453125 L 7.25 -15.796875 L 7.421875 -16.296875 L 7.640625 -16.71875 L 8.09375 -17.125 L 8.875 -17.40625 L 9.6875 -17.15625 L 10.109375 -16.71875 L 10.5625 -15.859375 L 10.71875 -15.40625 L 10.984375 -14.96875 L 11.140625 -14.46875 L 12.75 -11.0625 L 12.921875 -10.546875 L 13.4375 -9.640625 L 13.59375 -9.234375 L 13.8125 -8.875 L 13.953125 -8.328125 L 14.203125 -7.859375 L 14.453125 -7.5 L 15.390625 -5.265625 L 15.875 -4.375 L 16.21875 -3.46875 L 16.890625 -2.1875 L 17.25 -1.28125 L 17.421875 -0.71875 L 17.359375 -0.125 L 16.65625 0 L 15.90625 0.03125 L 15.4375 -0.03125 Z M 8.921875 -6.078125 L 9.90625 -6.09375 L 10.28125 -6.296875 L 10.375 -6.734375 L 9.21875 -9.4375 L 8.875 -9.640625 L 8.609375 -9.40625 L 7.453125 -6.765625 L 7.46875 -6.296875 L 7.859375 -6.125 L 8.4375 -6.171875 Z M 8.921875 -6.078125 "/></g></g><g style="fill:#000f52;fill-opacity:1;"><g transform="translate(230.971957, 216.154762)"><path style="stroke:none" d="M 8.234375 0.09375 L 7.734375 -0.03125 L 6.53125 -0.03125 L 5.796875 0.078125 L 4.8125 -0.03125 L 4.328125 0.03125 L 3.5625 0.046875 L 2.84375 -0.046875 L 2.390625 0 L 1.921875 0 L 1.421875 -0.21875 L 1.1875 -0.890625 L 1.25 -3.140625 L 1.53125 -3.59375 L 3.140625 -4.078125 L 3.421875 -4.8125 L 3.34375 -12.359375 L 3.125 -13.03125 L 2.65625 -13.328125 L 2.15625 -13.328125 L 1.625 -13.59375 L 1.359375 -14.078125 L 1.40625 -14.546875 L 1.328125 -16.375 L 1.578125 -16.953125 L 2.0625 -17.203125 L 2.625 -17.203125 L 3.09375 -17.125 L 5.109375 -17.125 L 5.609375 -17.234375 L 6.046875 -17.1875 L 9.015625 -17.1875 L 9.46875 -16.90625 L 9.75 -16.4375 L 9.734375 -14.015625 L 9.484375 -13.609375 L 8.96875 -13.421875 L 8.484375 -13.34375 L 7.9375 -13.125 L 7.765625 -12.5625 L 7.671875 -10.078125 L 7.765625 -8.3125 L 7.71875 -7.765625 L 7.734375 -5.0625 L 7.671875 -4.59375 L 7.96875 -4.03125 L 8.546875 -3.828125 L 9.0625 -3.828125 L 9.609375 -3.5625 L 9.90625 -3.09375 L 9.90625 -0.65625 L 9.65625 -0.203125 L 9.21875 0.046875 Z M 8.234375 0.09375 "/></g></g><g style="fill:#000f52;fill-opacity:1;"><g transform="translate(242.128653, 216.154762)"><path style="stroke:none" d="M 6.421875 0.046875 L 5.65625 0.03125 L 4.9375 -0.21875 L 4.625 -0.765625 L 4.671875 -1.234375 L 4.6875 -2.65625 L 4.640625 -3.171875 L 4.671875 -5.15625 L 4.71875 -5.65625 L 4.640625 -9.3125 L 4.6875 -10 L 4.671875 -10.5 L 4.6875 -11.03125 L 4.640625 -11.71875 L 4.6875 -12.515625 L 4.421875 -13 L 3.953125 -13.25 L 1.625 -13.296875 L 1.125 -13.25 L 0.6875 -13.5 L 0.46875 -13.9375 L 0.421875 -14.703125 L 0.46875 -15.921875 L 0.4375 -16.421875 L 0.734375 -16.984375 L 1.203125 -17.234375 L 2.921875 -17.125 L 3.6875 -17.203125 L 5.140625 -17.125 L 5.578125 -17.234375 L 6.125 -17.1875 L 6.640625 -17.25 L 7.109375 -17.234375 L 7.59375 -17.125 L 9.578125 -17.234375 L 10.046875 -17.1875 L 10.5625 -17.25 L 11.03125 -17.203125 L 12.5625 -17.203125 L 13.03125 -16.890625 L 13.296875 -16.390625 L 13.265625 -14.0625 L 12.984375 -13.515625 L 12.5625 -13.25 L 12.109375 -13.265625 L 11.59375 -13.203125 L 10.6875 -13.328125 L 9.734375 -13.265625 L 9.265625 -12.984375 L 9.0625 -12.234375 L 9 -10.109375 L 9.0625 -9.578125 L 9.015625 -5.625 L 9.09375 -5.09375 L 9.046875 -4.640625 L 9.0625 -3.65625 L 9.015625 -3.140625 L 9.09375 -2.21875 L 9.015625 -0.9375 L 8.78125 -0.25 L 8.0625 0 Z M 6.421875 0.046875 "/></g></g><g style="fill:#000f52;fill-opacity:1;"><g transform="translate(255.865636, 216.154762)"><path style="stroke:none" d="M 1.84375 -1 L 1.84375 -4.640625 L 1.796875 -5.140625 L 1.8125 -7.125 L 1.875 -7.59375 L 1.8125 -8.0625 L 1.8125 -8.546875 L 1.796875 -9.09375 L 1.875 -10.078125 L 1.8125 -10.5625 L 1.796875 -16.203125 L 2.09375 -16.890625 L 2.53125 -17.125 L 3.984375 -17.25 L 4.515625 -17.234375 L 5.015625 -17.125 L 5.5 -17.125 L 5.953125 -17.25 L 6.4375 -17.25 L 6.9375 -17.15625 L 8.40625 -17.15625 L 9.125 -17.203125 L 9.90625 -17.1875 L 11.3125 -16.859375 L 12.234375 -16.546875 L 13.09375 -16.078125 L 14.5 -14.59375 L 14.765625 -14.203125 L 14.96875 -13.78125 L 15.40625 -12.390625 L 15.484375 -11.890625 L 15.53125 -10.34375 L 15.21875 -8.921875 L 14.25 -7.203125 L 13.90625 -6.90625 L 13.5625 -6.53125 L 13.34375 -6 L 13.375 -5.40625 L 13.671875 -5.03125 L 14.453125 -3.765625 L 14.671875 -3.3125 L 15.515625 -2.0625 L 15.703125 -1.59375 L 16 -1.25 L 16.265625 -0.71875 L 16.125 -0.171875 L 15.65625 0.046875 L 14.84375 0.078125 L 14.375 0.03125 L 12.4375 0.046875 L 11.59375 -0.171875 L 11.0625 -0.609375 L 10.796875 -1.03125 L 10.59375 -1.53125 L 10.328125 -1.890625 L 9.859375 -2.78125 L 9.34375 -3.515625 L 9.140625 -3.953125 L 8.84375 -4.453125 L 8.359375 -4.859375 L 6.9375 -5.0625 L 6.46875 -4.796875 L 6.25 -4.296875 L 6.1875 -2.734375 L 6.265625 -2.21875 L 6.21875 -1.765625 L 6.21875 -0.9375 L 6 -0.21875 L 5.203125 0.03125 L 4.46875 0.03125 L 4.078125 0.078125 L 3.296875 0 L 2.796875 0.078125 L 2.09375 -0.25 Z M 6.9375 -9 L 7.46875 -9.046875 L 8.65625 -9 L 9.125 -9.015625 L 9.828125 -9.1875 L 10.28125 -9.390625 L 10.546875 -9.609375 L 10.8125 -9.984375 L 11.03125 -10.46875 L 11.109375 -11.203125 L 11.015625 -11.84375 L 10.859375 -12.234375 L 10.25 -13 L 9.78125 -13.125 L 9.140625 -13.171875 L 8.453125 -13.328125 L 7.46875 -13.21875 L 6.984375 -13.25 L 6.46875 -13.046875 L 6.25 -12.578125 L 6.1875 -11.546875 L 6.25 -11.140625 L 6.25 -9.65625 L 6.4375 -9.265625 Z M 6.9375 -9 "/></g></g><g style="fill:#000f52;fill-opacity:1;"><g transform="translate(272.920147, 216.154762)"><path style="stroke:none" d="M 14.5 0.046875 L 13.984375 0 L 13.421875 -0.25 L 12.921875 -0.609375 L 12.78125 -1.0625 L 12.5625 -1.53125 L 12.09375 -1.921875 L 11.546875 -2.1875 L 11.015625 -2.109375 L 10.5625 -2.15625 L 8.15625 -2.140625 L 7.71875 -2.21875 L 6.6875 -2.109375 L 6.21875 -2.1875 L 5.703125 -1.921875 L 5.234375 -1.453125 L 4.796875 -0.640625 L 4.328125 -0.203125 L 3.765625 -0.03125 L 2.390625 0.03125 L 1.890625 -0.03125 L 0.9375 0.03125 L 0.4375 -0.125 L 0.3125 -0.734375 L 0.46875 -1.234375 L 0.953125 -2.21875 L 1.078125 -2.65625 L 1.359375 -3 L 1.71875 -3.984375 L 2.15625 -4.765625 L 2.328125 -5.265625 L 2.578125 -5.625 L 2.734375 -6.171875 L 5.234375 -11.421875 L 5.375 -11.875 L 5.65625 -12.34375 L 5.78125 -12.828125 L 6.046875 -13.203125 L 7.03125 -15.453125 L 7.25 -15.796875 L 7.421875 -16.296875 L 7.640625 -16.71875 L 8.09375 -17.125 L 8.875 -17.40625 L 9.6875 -17.15625 L 10.109375 -16.71875 L 10.5625 -15.859375 L 10.71875 -15.40625 L 10.984375 -14.96875 L 11.140625 -14.46875 L 12.75 -11.0625 L 12.921875 -10.546875 L 13.4375 -9.640625 L 13.59375 -9.234375 L 13.8125 -8.875 L 13.953125 -8.328125 L 14.203125 -7.859375 L 14.453125 -7.5 L 15.390625 -5.265625 L 15.875 -4.375 L 16.21875 -3.46875 L 16.890625 -2.1875 L 17.25 -1.28125 L 17.421875 -0.71875 L 17.359375 -0.125 L 16.65625 0 L 15.90625 0.03125 L 15.4375 -0.03125 Z M 8.921875 -6.078125 L 9.90625 -6.09375 L 10.28125 -6.296875 L 10.375 -6.734375 L 9.21875 -9.4375 L 8.875 -9.640625 L 8.609375 -9.40625 L 7.453125 -6.765625 L 7.46875 -6.296875 L 7.859375 -6.125 L 8.4375 -6.171875 Z M 8.921875 -6.078125 "/></g></g><g style="fill:#000f52;fill-opacity:1;"><g transform="translate(122.112245, 228.32197)"><path style="stroke:none" d="M 4.125 0 L 0.609375 0 L 0.609375 -5.09375 L 4.09375 -5.09375 L 4.09375 -4.265625 L 1.546875 -4.265625 L 1.546875 -2.984375 L 3.75 -2.984375 L 3.75 -2.1875 L 1.546875 -2.1875 L 1.546875 -0.828125 L 4.125 -0.828125 Z M 4.125 0 "/></g></g><g style="fill:#000f52;fill-opacity:1;"><g transform="translate(127.576004, 228.32197)"><path style="stroke:none" d="M 1.546875 0 L 0.609375 0 L 0.609375 -5.09375 L 1.40625 -5.09375 L 4.1875 -1.53125 L 4.1875 -5.09375 L 5.109375 -5.09375 L 5.109375 0 L 4.3125 0 L 1.546875 -3.5625 Z M 1.546875 0 "/></g></g><g style="fill:#000f52;fill-opacity:1;"><g transform="translate(134.384341, 228.32197)"><path style="stroke:none" d="M 2.9375 0.109375 C 2.632812 0.109375 2.347656 0.0664062 2.078125 -0.015625 C 1.816406 -0.109375 1.570312 -0.234375 1.34375 -0.390625 C 1.125 -0.554688 0.929688 -0.75 0.765625 -0.96875 C 0.597656 -1.195312 0.46875 -1.441406 0.375 -1.703125 C 0.289062 -1.972656 0.25 -2.253906 0.25 -2.546875 C 0.25 -2.847656 0.289062 -3.128906 0.375 -3.390625 C 0.46875 -3.660156 0.597656 -3.90625 0.765625 -4.125 C 0.929688 -4.351562 1.125 -4.546875 1.34375 -4.703125 C 1.570312 -4.867188 1.820312 -4.992188 2.09375 -5.078125 C 2.363281 -5.171875 2.648438 -5.21875 2.953125 -5.21875 C 3.171875 -5.21875 3.382812 -5.191406 3.59375 -5.140625 C 3.8125 -5.085938 4.019531 -5.007812 4.21875 -4.90625 C 4.414062 -4.8125 4.597656 -4.691406 4.765625 -4.546875 C 4.929688 -4.398438 5.070312 -4.226562 5.1875 -4.03125 C 5.300781 -3.84375 5.382812 -3.632812 5.4375 -3.40625 L 4.484375 -3.40625 C 4.359375 -3.707031 4.15625 -3.941406 3.875 -4.109375 C 3.601562 -4.273438 3.285156 -4.359375 2.921875 -4.359375 C 2.679688 -4.359375 2.457031 -4.316406 2.25 -4.234375 C 2.039062 -4.148438 1.851562 -4.023438 1.6875 -3.859375 C 1.53125 -3.703125 1.40625 -3.507812 1.3125 -3.28125 C 1.226562 -3.0625 1.1875 -2.816406 1.1875 -2.546875 C 1.1875 -2.273438 1.226562 -2.023438 1.3125 -1.796875 C 1.40625 -1.578125 1.53125 -1.390625 1.6875 -1.234375 C 1.851562 -1.078125 2.039062 -0.957031 2.25 -0.875 C 2.457031 -0.789062 2.679688 -0.75 2.921875 -0.75 C 3.234375 -0.75 3.5 -0.800781 3.71875 -0.90625 C 3.9375 -1.007812 4.113281 -1.148438 4.25 -1.328125 C 4.394531 -1.515625 4.492188 -1.726562 4.546875 -1.96875 L 2.890625 -1.96875 L 2.890625 -2.734375 L 5.546875 -2.734375 C 5.554688 -2.316406 5.5 -1.9375 5.375 -1.59375 C 5.257812 -1.25 5.085938 -0.945312 4.859375 -0.6875 C 4.640625 -0.4375 4.367188 -0.238281 4.046875 -0.09375 C 3.722656 0.0390625 3.351562 0.109375 2.9375 0.109375 Z M 2.9375 0.109375 "/></g></g><g style="fill:#000f52;fill-opacity:1;"><g transform="translate(141.275075, 228.32197)"><path style="stroke:none" d="M 1.546875 0 L 0.609375 0 L 0.609375 -5.09375 L 1.546875 -5.09375 Z M 1.546875 0 "/></g></g><g style="fill:#000f52;fill-opacity:1;"><g transform="translate(144.506611, 228.32197)"><path style="stroke:none" d="M 1.546875 0 L 0.609375 0 L 0.609375 -5.09375 L 1.40625 -5.09375 L 4.1875 -1.53125 L 4.1875 -5.09375 L 5.109375 -5.09375 L 5.109375 0 L 4.3125 0 L 1.546875 -3.5625 Z M 1.546875 0 "/></g></g><g style="fill:#000f52;fill-opacity:1;"><g transform="translate(151.314948, 228.32197)"><path style="stroke:none" d="M 4.125 0 L 0.609375 0 L 0.609375 -5.09375 L 4.09375 -5.09375 L 4.09375 -4.265625 L 1.546875 -4.265625 L 1.546875 -2.984375 L 3.75 -2.984375 L 3.75 -2.1875 L 1.546875 -2.1875 L 1.546875 -0.828125 L 4.125 -0.828125 Z M 4.125 0 "/></g></g><g style="fill:#000f52;fill-opacity:1;"><g transform="translate(156.778707, 228.32197)"><path style="stroke:none" d="M 4.125 0 L 0.609375 0 L 0.609375 -5.09375 L 4.09375 -5.09375 L 4.09375 -4.265625 L 1.546875 -4.265625 L 1.546875 -2.984375 L 3.75 -2.984375 L 3.75 -2.1875 L 1.546875 -2.1875 L 1.546875 -0.828125 L 4.125 -0.828125 Z M 4.125 0 "/></g></g><g style="fill:#000f52;fill-opacity:1;"><g transform="translate(162.242466, 228.32197)"><path style="stroke:none" d="M 1.546875 0 L 0.609375 0 L 0.609375 -5.09375 L 2.8125 -5.09375 C 3.0625 -5.09375 3.296875 -5.050781 3.515625 -4.96875 C 3.734375 -4.894531 3.921875 -4.785156 4.078125 -4.640625 C 4.234375 -4.492188 4.351562 -4.316406 4.4375 -4.109375 C 4.53125 -3.910156 4.578125 -3.6875 4.578125 -3.4375 C 4.578125 -3.195312 4.53125 -2.976562 4.4375 -2.78125 C 4.351562 -2.582031 4.234375 -2.410156 4.078125 -2.265625 C 3.921875 -2.128906 3.738281 -2.023438 3.53125 -1.953125 L 4.6875 0 L 3.625 0 L 2.609375 -1.8125 C 2.578125 -1.8125 2.546875 -1.8125 2.515625 -1.8125 C 2.484375 -1.8125 2.445312 -1.8125 2.40625 -1.8125 L 1.546875 -1.8125 Z M 1.546875 -4.265625 L 1.546875 -2.59375 L 2.765625 -2.59375 C 2.929688 -2.59375 3.078125 -2.628906 3.203125 -2.703125 C 3.335938 -2.773438 3.441406 -2.875 3.515625 -3 C 3.597656 -3.125 3.640625 -3.269531 3.640625 -3.4375 C 3.640625 -3.59375 3.597656 -3.734375 3.515625 -3.859375 C 3.441406 -3.984375 3.335938 -4.082031 3.203125 -4.15625 C 3.078125 -4.226562 2.929688 -4.265625 2.765625 -4.265625 Z M 1.546875 -4.265625 "/></g></g><g style="fill:#000f52;fill-opacity:1;"><g transform="translate(168.181884, 228.32197)"><path style="stroke:none" d="M 1.546875 0 L 0.609375 0 L 0.609375 -5.09375 L 1.546875 -5.09375 Z M 1.546875 0 "/></g></g><g style="fill:#000f52;fill-opacity:1;"><g transform="translate(171.41342, 228.32197)"><path style="stroke:none" d="M 1.546875 0 L 0.609375 0 L 0.609375 -5.09375 L 1.40625 -5.09375 L 4.1875 -1.53125 L 4.1875 -5.09375 L 5.109375 -5.09375 L 5.109375 0 L 4.3125 0 L 1.546875 -3.5625 Z M 1.546875 0 "/></g></g><g style="fill:#000f52;fill-opacity:1;"><g transform="translate(178.221757, 228.32197)"><path style="stroke:none" d="M 2.9375 0.109375 C 2.632812 0.109375 2.347656 0.0664062 2.078125 -0.015625 C 1.816406 -0.109375 1.570312 -0.234375 1.34375 -0.390625 C 1.125 -0.554688 0.929688 -0.75 0.765625 -0.96875 C 0.597656 -1.195312 0.46875 -1.441406 0.375 -1.703125 C 0.289062 -1.972656 0.25 -2.253906 0.25 -2.546875 C 0.25 -2.847656 0.289062 -3.128906 0.375 -3.390625 C 0.46875 -3.660156 0.597656 -3.90625 0.765625 -4.125 C 0.929688 -4.351562 1.125 -4.546875 1.34375 -4.703125 C 1.570312 -4.867188 1.820312 -4.992188 2.09375 -5.078125 C 2.363281 -5.171875 2.648438 -5.21875 2.953125 -5.21875 C 3.171875 -5.21875 3.382812 -5.191406 3.59375 -5.140625 C 3.8125 -5.085938 4.019531 -5.007812 4.21875 -4.90625 C 4.414062 -4.8125 4.597656 -4.691406 4.765625 -4.546875 C 4.929688 -4.398438 5.070312 -4.226562 5.1875 -4.03125 C 5.300781 -3.84375 5.382812 -3.632812 5.4375 -3.40625 L 4.484375 -3.40625 C 4.359375 -3.707031 4.15625 -3.941406 3.875 -4.109375 C 3.601562 -4.273438 3.285156 -4.359375 2.921875 -4.359375 C 2.679688 -4.359375 2.457031 -4.316406 2.25 -4.234375 C 2.039062 -4.148438 1.851562 -4.023438 1.6875 -3.859375 C 1.53125 -3.703125 1.40625 -3.507812 1.3125 -3.28125 C 1.226562 -3.0625 1.1875 -2.816406 1.1875 -2.546875 C 1.1875 -2.273438 1.226562 -2.023438 1.3125 -1.796875 C 1.40625 -1.578125 1.53125 -1.390625 1.6875 -1.234375 C 1.851562 -1.078125 2.039062 -0.957031 2.25 -0.875 C 2.457031 -0.789062 2.679688 -0.75 2.921875 -0.75 C 3.234375 -0.75 3.5 -0.800781 3.71875 -0.90625 C 3.9375 -1.007812 4.113281 -1.148438 4.25 -1.328125 C 4.394531 -1.515625 4.492188 -1.726562 4.546875 -1.96875 L 2.890625 -1.96875 L 2.890625 -2.734375 L 5.546875 -2.734375 C 5.554688 -2.316406 5.5 -1.9375 5.375 -1.59375 C 5.257812 -1.25 5.085938 -0.945312 4.859375 -0.6875 C 4.640625 -0.4375 4.367188 -0.238281 4.046875 -0.09375 C 3.722656 0.0390625 3.351562 0.109375 2.9375 0.109375 Z M 2.9375 0.109375 "/></g></g><g style="fill:#000f52;fill-opacity:1;"><g transform="translate(185.112491, 228.32197)"><path style="stroke:none" d=""/></g></g><g style="fill:#000f52;fill-opacity:1;"><g transform="translate(188.070617, 228.32197)"><path style="stroke:none" d="M 2.328125 0.109375 C 1.960938 0.109375 1.644531 0.0625 1.375 -0.03125 C 1.113281 -0.125 0.898438 -0.25 0.734375 -0.40625 C 0.566406 -0.5625 0.441406 -0.738281 0.359375 -0.9375 C 0.285156 -1.132812 0.25 -1.332031 0.25 -1.53125 L 1.1875 -1.53125 C 1.1875 -1.375 1.226562 -1.226562 1.3125 -1.09375 C 1.40625 -0.96875 1.535156 -0.863281 1.703125 -0.78125 C 1.878906 -0.707031 2.085938 -0.671875 2.328125 -0.671875 C 3.078125 -0.671875 3.453125 -0.925781 3.453125 -1.4375 C 3.453125 -1.59375 3.40625 -1.71875 3.3125 -1.8125 C 3.21875 -1.914062 3.082031 -1.992188 2.90625 -2.046875 C 2.726562 -2.109375 2.519531 -2.164062 2.28125 -2.21875 C 2.113281 -2.25 1.941406 -2.289062 1.765625 -2.34375 C 1.585938 -2.394531 1.414062 -2.457031 1.25 -2.53125 C 1.082031 -2.601562 0.929688 -2.691406 0.796875 -2.796875 C 0.671875 -2.910156 0.570312 -3.046875 0.5 -3.203125 C 0.425781 -3.359375 0.390625 -3.539062 0.390625 -3.75 C 0.390625 -4.03125 0.453125 -4.28125 0.578125 -4.5 C 0.710938 -4.71875 0.921875 -4.890625 1.203125 -5.015625 C 1.492188 -5.148438 1.859375 -5.21875 2.296875 -5.21875 C 2.710938 -5.21875 3.0625 -5.148438 3.34375 -5.015625 C 3.632812 -4.890625 3.847656 -4.710938 3.984375 -4.484375 C 4.128906 -4.253906 4.203125 -3.988281 4.203125 -3.6875 L 3.28125 -3.6875 C 3.28125 -3.820312 3.242188 -3.941406 3.171875 -4.046875 C 3.097656 -4.148438 2.988281 -4.234375 2.84375 -4.296875 C 2.695312 -4.359375 2.507812 -4.390625 2.28125 -4.390625 C 2.09375 -4.390625 1.9375 -4.375 1.8125 -4.34375 C 1.6875 -4.3125 1.585938 -4.265625 1.515625 -4.203125 C 1.441406 -4.140625 1.390625 -4.066406 1.359375 -3.984375 C 1.328125 -3.910156 1.3125 -3.832031 1.3125 -3.75 C 1.3125 -3.539062 1.414062 -3.378906 1.625 -3.265625 C 1.84375 -3.148438 2.164062 -3.054688 2.59375 -2.984375 C 2.832031 -2.941406 3.054688 -2.882812 3.265625 -2.8125 C 3.484375 -2.738281 3.675781 -2.640625 3.84375 -2.515625 C 4.019531 -2.398438 4.15625 -2.253906 4.25 -2.078125 C 4.351562 -1.898438 4.40625 -1.679688 4.40625 -1.421875 C 4.40625 -1.097656 4.316406 -0.820312 4.140625 -0.59375 C 3.972656 -0.363281 3.734375 -0.1875 3.421875 -0.0625 C 3.109375 0.0507812 2.742188 0.109375 2.328125 0.109375 Z M 2.328125 0.109375 "/></g></g><g style="fill:#000f52;fill-opacity:1;"><g transform="translate(193.79655, 228.32197)"><path style="stroke:none" d="M 4.125 0 L 0.609375 0 L 0.609375 -5.09375 L 4.09375 -5.09375 L 4.09375 -4.265625 L 1.546875 -4.265625 L 1.546875 -2.984375 L 3.75 -2.984375 L 3.75 -2.1875 L 1.546875 -2.1875 L 1.546875 -0.828125 L 4.125 -0.828125 Z M 4.125 0 "/></g></g><g style="fill:#000f52;fill-opacity:1;"><g transform="translate(199.26031, 228.32197)"><path style="stroke:none" d="M 1.546875 0 L 0.609375 0 L 0.609375 -5.09375 L 2.8125 -5.09375 C 3.0625 -5.09375 3.296875 -5.050781 3.515625 -4.96875 C 3.734375 -4.894531 3.921875 -4.785156 4.078125 -4.640625 C 4.234375 -4.492188 4.351562 -4.316406 4.4375 -4.109375 C 4.53125 -3.910156 4.578125 -3.6875 4.578125 -3.4375 C 4.578125 -3.195312 4.53125 -2.976562 4.4375 -2.78125 C 4.351562 -2.582031 4.234375 -2.410156 4.078125 -2.265625 C 3.921875 -2.128906 3.738281 -2.023438 3.53125 -1.953125 L 4.6875 0 L 3.625 0 L 2.609375 -1.8125 C 2.578125 -1.8125 2.546875 -1.8125 2.515625 -1.8125 C 2.484375 -1.8125 2.445312 -1.8125 2.40625 -1.8125 L 1.546875 -1.8125 Z M 1.546875 -4.265625 L 1.546875 -2.59375 L 2.765625 -2.59375 C 2.929688 -2.59375 3.078125 -2.628906 3.203125 -2.703125 C 3.335938 -2.773438 3.441406 -2.875 3.515625 -3 C 3.597656 -3.125 3.640625 -3.269531 3.640625 -3.4375 C 3.640625 -3.59375 3.597656 -3.734375 3.515625 -3.859375 C 3.441406 -3.984375 3.335938 -4.082031 3.203125 -4.15625 C 3.078125 -4.226562 2.929688 -4.265625 2.765625 -4.265625 Z M 1.546875 -4.265625 "/></g></g><g style="fill:#000f52;fill-opacity:1;"><g transform="translate(205.199727, 228.32197)"><path style="stroke:none" d="M 3.046875 0 L 2.1875 0 L 0.0625 -5.09375 L 1.046875 -5.09375 L 2.609375 -1.21875 L 2.625 -1.21875 L 4.1875 -5.09375 L 5.1875 -5.09375 Z M 3.046875 0 "/></g></g><g style="fill:#000f52;fill-opacity:1;"><g transform="translate(211.524915, 228.32197)"><path style="stroke:none" d="M 1.546875 0 L 0.609375 0 L 0.609375 -5.09375 L 1.546875 -5.09375 Z M 1.546875 0 "/></g></g><g style="fill:#000f52;fill-opacity:1;"><g transform="translate(214.756451, 228.32197)"><path style="stroke:none" d="M 2.9375 0.109375 C 2.632812 0.109375 2.347656 0.0664062 2.078125 -0.015625 C 1.804688 -0.109375 1.554688 -0.234375 1.328125 -0.390625 C 1.109375 -0.554688 0.914062 -0.75 0.75 -0.96875 C 0.59375 -1.195312 0.46875 -1.441406 0.375 -1.703125 C 0.289062 -1.972656 0.25 -2.257812 0.25 -2.5625 C 0.25 -2.851562 0.289062 -3.128906 0.375 -3.390625 C 0.46875 -3.660156 0.59375 -3.90625 0.75 -4.125 C 0.914062 -4.351562 1.109375 -4.546875 1.328125 -4.703125 C 1.554688 -4.867188 1.804688 -4.992188 2.078125 -5.078125 C 2.347656 -5.171875 2.632812 -5.21875 2.9375 -5.21875 C 3.207031 -5.21875 3.472656 -5.175781 3.734375 -5.09375 C 4.003906 -5.007812 4.253906 -4.882812 4.484375 -4.71875 C 4.710938 -4.5625 4.90625 -4.359375 5.0625 -4.109375 C 5.21875 -3.859375 5.328125 -3.5625 5.390625 -3.21875 L 4.4375 -3.21875 C 4.375 -3.488281 4.265625 -3.707031 4.109375 -3.875 C 3.960938 -4.039062 3.785156 -4.160156 3.578125 -4.234375 C 3.378906 -4.316406 3.15625 -4.359375 2.90625 -4.359375 C 2.664062 -4.359375 2.441406 -4.316406 2.234375 -4.234375 C 2.023438 -4.148438 1.84375 -4.023438 1.6875 -3.859375 C 1.53125 -3.703125 1.40625 -3.507812 1.3125 -3.28125 C 1.226562 -3.0625 1.1875 -2.816406 1.1875 -2.546875 C 1.1875 -2.273438 1.226562 -2.023438 1.3125 -1.796875 C 1.40625 -1.578125 1.53125 -1.390625 1.6875 -1.234375 C 1.84375 -1.078125 2.023438 -0.957031 2.234375 -0.875 C 2.441406 -0.789062 2.664062 -0.75 2.90625 -0.75 C 3.15625 -0.75 3.378906 -0.785156 3.578125 -0.859375 C 3.785156 -0.941406 3.960938 -1.066406 4.109375 -1.234375 C 4.265625 -1.398438 4.375 -1.613281 4.4375 -1.875 L 5.390625 -1.875 C 5.328125 -1.539062 5.21875 -1.25 5.0625 -1 C 4.90625 -0.75 4.710938 -0.539062 4.484375 -0.375 C 4.253906 -0.207031 4.003906 -0.0820312 3.734375 0 C 3.472656 0.0703125 3.207031 0.109375 2.9375 0.109375 Z M 2.9375 0.109375 "/></g></g><g style="fill:#000f52;fill-opacity:1;"><g transform="translate(221.489881, 228.32197)"><path style="stroke:none" d="M 4.125 0 L 0.609375 0 L 0.609375 -5.09375 L 4.09375 -5.09375 L 4.09375 -4.265625 L 1.546875 -4.265625 L 1.546875 -2.984375 L 3.75 -2.984375 L 3.75 -2.1875 L 1.546875 -2.1875 L 1.546875 -0.828125 L 4.125 -0.828125 Z M 4.125 0 "/></g></g><g style="fill:#000f52;fill-opacity:1;"><g transform="translate(226.95364, 228.32197)"><path style="stroke:none" d="M 2.328125 0.109375 C 1.960938 0.109375 1.644531 0.0625 1.375 -0.03125 C 1.113281 -0.125 0.898438 -0.25 0.734375 -0.40625 C 0.566406 -0.5625 0.441406 -0.738281 0.359375 -0.9375 C 0.285156 -1.132812 0.25 -1.332031 0.25 -1.53125 L 1.1875 -1.53125 C 1.1875 -1.375 1.226562 -1.226562 1.3125 -1.09375 C 1.40625 -0.96875 1.535156 -0.863281 1.703125 -0.78125 C 1.878906 -0.707031 2.085938 -0.671875 2.328125 -0.671875 C 3.078125 -0.671875 3.453125 -0.925781 3.453125 -1.4375 C 3.453125 -1.59375 3.40625 -1.71875 3.3125 -1.8125 C 3.21875 -1.914062 3.082031 -1.992188 2.90625 -2.046875 C 2.726562 -2.109375 2.519531 -2.164062 2.28125 -2.21875 C 2.113281 -2.25 1.941406 -2.289062 1.765625 -2.34375 C 1.585938 -2.394531 1.414062 -2.457031 1.25 -2.53125 C 1.082031 -2.601562 0.929688 -2.691406 0.796875 -2.796875 C 0.671875 -2.910156 0.570312 -3.046875 0.5 -3.203125 C 0.425781 -3.359375 0.390625 -3.539062 0.390625 -3.75 C 0.390625 -4.03125 0.453125 -4.28125 0.578125 -4.5 C 0.710938 -4.71875 0.921875 -4.890625 1.203125 -5.015625 C 1.492188 -5.148438 1.859375 -5.21875 2.296875 -5.21875 C 2.710938 -5.21875 3.0625 -5.148438 3.34375 -5.015625 C 3.632812 -4.890625 3.847656 -4.710938 3.984375 -4.484375 C 4.128906 -4.253906 4.203125 -3.988281 4.203125 -3.6875 L 3.28125 -3.6875 C 3.28125 -3.820312 3.242188 -3.941406 3.171875 -4.046875 C 3.097656 -4.148438 2.988281 -4.234375 2.84375 -4.296875 C 2.695312 -4.359375 2.507812 -4.390625 2.28125 -4.390625 C 2.09375 -4.390625 1.9375 -4.375 1.8125 -4.34375 C 1.6875 -4.3125 1.585938 -4.265625 1.515625 -4.203125 C 1.441406 -4.140625 1.390625 -4.066406 1.359375 -3.984375 C 1.328125 -3.910156 1.3125 -3.832031 1.3125 -3.75 C 1.3125 -3.539062 1.414062 -3.378906 1.625 -3.265625 C 1.84375 -3.148438 2.164062 -3.054688 2.59375 -2.984375 C 2.832031 -2.941406 3.054688 -2.882812 3.265625 -2.8125 C 3.484375 -2.738281 3.675781 -2.640625 3.84375 -2.515625 C 4.019531 -2.398438 4.15625 -2.253906 4.25 -2.078125 C 4.351562 -1.898438 4.40625 -1.679688 4.40625 -1.421875 C 4.40625 -1.097656 4.316406 -0.820312 4.140625 -0.59375 C 3.972656 -0.363281 3.734375 -0.1875 3.421875 -0.0625 C 3.109375 0.0507812 2.742188 0.109375 2.328125 0.109375 Z M 2.328125 0.109375 "/></g></g><g style="fill:#000f52;fill-opacity:1;"><g transform="translate(232.679573, 228.32197)"><path style="stroke:none" d=""/></g></g><g style="fill:#000f52;fill-opacity:1;"><g transform="translate(235.6377, 228.32197)"><path style="stroke:none" d="M 1.546875 0 L 0.609375 0 L 0.609375 -5.09375 L 2.75 -5.09375 C 3.007812 -5.09375 3.242188 -5.050781 3.453125 -4.96875 C 3.671875 -4.882812 3.859375 -4.765625 4.015625 -4.609375 C 4.179688 -4.453125 4.304688 -4.269531 4.390625 -4.0625 C 4.472656 -3.851562 4.515625 -3.625 4.515625 -3.375 C 4.515625 -3.113281 4.472656 -2.875 4.390625 -2.65625 C 4.304688 -2.445312 4.1875 -2.265625 4.03125 -2.109375 C 3.875 -1.953125 3.6875 -1.832031 3.46875 -1.75 C 3.257812 -1.664062 3.023438 -1.625 2.765625 -1.625 L 1.546875 -1.625 Z M 1.546875 -4.265625 L 1.546875 -2.453125 L 2.71875 -2.453125 C 2.882812 -2.453125 3.03125 -2.492188 3.15625 -2.578125 C 3.289062 -2.660156 3.394531 -2.769531 3.46875 -2.90625 C 3.550781 -3.039062 3.59375 -3.195312 3.59375 -3.375 C 3.59375 -3.53125 3.550781 -3.675781 3.46875 -3.8125 C 3.394531 -3.945312 3.289062 -4.054688 3.15625 -4.140625 C 3.03125 -4.222656 2.882812 -4.265625 2.71875 -4.265625 Z M 1.546875 -4.265625 "/></g></g><g style="fill:#000f52;fill-opacity:1;"><g transform="translate(241.363633, 228.32197)"><path style="stroke:none" d="M 3.046875 0 L 2.1875 0 L 0.0625 -5.09375 L 1.046875 -5.09375 L 2.609375 -1.21875 L 2.625 -1.21875 L 4.1875 -5.09375 L 5.1875 -5.09375 Z M 3.046875 0 "/></g></g><g style="fill:#000f52;fill-opacity:1;"><g transform="translate(247.68882, 228.32197)"><path style="stroke:none" d="M 2.609375 0 L 1.671875 0 L 1.671875 -4.265625 L 0.15625 -4.265625 L 0.15625 -5.09375 L 4.125 -5.09375 L 4.125 -4.265625 L 2.609375 -4.265625 Z M 2.609375 0 "/></g></g><g style="fill:#000f52;fill-opacity:1;"><g transform="translate(253.062691, 228.32197)"><path style="stroke:none" d=""/></g></g><g style="fill:#000f52;fill-opacity:1;"><g transform="translate(256.020818, 228.32197)"><path style="stroke:none" d="M 3.84375 0 L 0.609375 0 L 0.609375 -5.09375 L 1.546875 -5.09375 L 1.546875 -0.828125 L 3.84375 -0.828125 Z M 3.84375 0 "/></g></g><g style="fill:#000f52;fill-opacity:1;"><g transform="translate(261.098807, 228.32197)"><path style="stroke:none" d="M 2.609375 0 L 1.671875 0 L 1.671875 -4.265625 L 0.15625 -4.265625 L 0.15625 -5.09375 L 4.125 -5.09375 L 4.125 -4.265625 L 2.609375 -4.265625 Z M 2.609375 0 "/></g></g><g style="fill:#000f52;fill-opacity:1;"><g transform="translate(266.472678, 228.32197)"><path style="stroke:none" d="M 2.578125 0 L 0.609375 0 L 0.609375 -5.09375 L 2.5625 -5.09375 C 2.976562 -5.09375 3.347656 -5.03125 3.671875 -4.90625 C 4.003906 -4.789062 4.289062 -4.617188 4.53125 -4.390625 C 4.769531 -4.171875 4.953125 -3.90625 5.078125 -3.59375 C 5.210938 -3.28125 5.28125 -2.929688 5.28125 -2.546875 C 5.28125 -2.171875 5.210938 -1.820312 5.078125 -1.5 C 4.953125 -1.1875 4.769531 -0.914062 4.53125 -0.6875 C 4.300781 -0.46875 4.019531 -0.296875 3.6875 -0.171875 C 3.351562 -0.0546875 2.984375 0 2.578125 0 Z M 1.53125 -4.265625 L 1.53125 -0.828125 L 2.546875 -0.828125 C 2.921875 -0.828125 3.238281 -0.894531 3.5 -1.03125 C 3.769531 -1.175781 3.976562 -1.375 4.125 -1.625 C 4.269531 -1.882812 4.34375 -2.1875 4.34375 -2.53125 C 4.34375 -2.882812 4.269531 -3.191406 4.125 -3.453125 C 3.988281 -3.710938 3.785156 -3.910156 3.515625 -4.046875 C 3.242188 -4.191406 2.921875 -4.265625 2.546875 -4.265625 Z M 1.53125 -4.265625 "/></g></g><path style="fill:none;stroke-width:1;stroke-linecap:round;stroke-linejoin:miter;stroke:#000f52;stroke-opacity:1;stroke-miterlimit:4;" d="M 0.502555 0.503091 L 327.604876 0.503091 " transform="matrix(0.543157,-0.000000000000000202,0.000000000000000202,0.543157,106.434065,219.859555)"/></g></svg>