<svg xmlns="http://www.w3.org/2000/svg" xmlns:xlink="http://www.w3.org/1999/xlink" width="1000" zoomAndPan="magnify" viewBox="0 0 750 299.999988" height="400" preserveAspectRatio="xMidYMid meet" version="1.2"><defs><clipPath id="4a8d1590d1"><path d="M 69 113 L 157 113 L 157 170 L 69 170 Z M 69 113 "/></clipPath><clipPath id="27e3f8d1f5"><path d="M 98.257812 5.722656 L 242.070312 122.351562 L 122.59375 269.671875 L -21.214844 153.039062 Z M 98.257812 5.722656 "/></clipPath><clipPath id="e189b98899"><path d="M 98.257812 5.722656 L 242.070312 122.351562 L 122.59375 269.671875 L -21.214844 153.039062 Z M 98.257812 5.722656 "/></clipPath><clipPath id="a360ab4a6e"><path d="M 98.257812 5.722656 L 242.070312 122.351562 L 122.59375 269.671875 L -21.214844 153.039062 Z M 98.257812 5.722656 "/></clipPath><clipPath id="b8e97e1f47"><path d="M 164 146 L 223 146 L 223 157 L 164 157 Z M 164 146 "/></clipPath><clipPath id="4a3da12928"><path d="M 98.257812 5.722656 L 242.070312 122.351562 L 122.59375 269.671875 L -21.214844 153.039062 Z M 98.257812 5.722656 "/></clipPath><clipPath id="7a58a8aee3"><path d="M 98.257812 5.722656 L 242.070312 122.351562 L 122.59375 269.671875 L -21.214844 153.039062 Z M 98.257812 5.722656 "/></clipPath><clipPath id="7971a621c1"><path d="M 98.257812 5.722656 L 242.070312 122.351562 L 122.59375 269.671875 L -21.214844 153.039062 Z M 98.257812 5.722656 "/></clipPath><clipPath id="bc43e3a54e"><path d="M 190.636719 119.964844 L 222.832031 146.078125 L 195.4375 179.855469 L 163.242188 153.746094 Z M 190.636719 119.964844 "/></clipPath><clipPath id="08b035ccbd"><path d="M 4 163 L 63 163 L 63 175 L 4 175 Z M 4 163 "/></clipPath><clipPath id="f6b0cef3e2"><path d="M 98.257812 5.722656 L 242.070312 122.351562 L 122.59375 269.671875 L -21.214844 153.039062 Z M 98.257812 5.722656 "/></clipPath><clipPath id="be9d98c002"><path d="M 98.257812 5.722656 L 242.070312 122.351562 L 122.59375 269.671875 L -21.214844 153.039062 Z M 98.257812 5.722656 "/></clipPath><clipPath id="d7ea1ed87a"><path d="M 98.257812 5.722656 L 242.070312 122.351562 L 122.59375 269.671875 L -21.214844 153.039062 Z M 98.257812 5.722656 "/></clipPath><clipPath id="d0f1ec14e3"><path d="M 32.214844 140.457031 L 64.527344 166.660156 L 37.167969 200.398438 L 4.855469 174.191406 Z M 32.214844 140.457031 "/></clipPath><clipPath id="6408c7c187"><path d="M 27 93 L 75 93 L 75 131 L 27 131 Z M 27 93 "/></clipPath><clipPath id="dbd0543922"><path d="M 98.257812 5.722656 L 242.070312 122.351562 L 122.59375 269.671875 L -21.214844 153.039062 Z M 98.257812 5.722656 "/></clipPath><clipPath id="83efbe1ba4"><path d="M 98.257812 5.722656 L 242.070312 122.351562 L 122.59375 269.671875 L -21.214844 153.039062 Z M 98.257812 5.722656 "/></clipPath><clipPath id="c98a37e8c2"><path d="M 98.257812 5.722656 L 242.070312 122.351562 L 122.59375 269.671875 L -21.214844 153.039062 Z M 98.257812 5.722656 "/></clipPath><clipPath id="4aaa7be0aa"><path d="M 100 51 L 111 51 L 111 110 L 100 110 Z M 100 51 "/></clipPath><clipPath id="f05b5b002a"><path d="M 98.257812 5.722656 L 242.070312 122.351562 L 122.59375 269.671875 L -21.214844 153.039062 Z M 98.257812 5.722656 "/></clipPath><clipPath id="18c6489131"><path d="M 98.257812 5.722656 L 242.070312 122.351562 L 122.59375 269.671875 L -21.214844 153.039062 Z M 98.257812 5.722656 "/></clipPath><clipPath id="9a3dda0cb3"><path d="M 98.257812 5.722656 L 242.070312 122.351562 L 122.59375 269.671875 L -21.214844 153.039062 Z M 98.257812 5.722656 "/></clipPath><clipPath id="123265c2ee"><path d="M 144 73 L 182 73 L 182 121 L 144 121 Z M 144 73 "/></clipPath><clipPath id="d9fdd3c7ce"><path d="M 98.257812 5.722656 L 242.070312 122.351562 L 122.59375 269.671875 L -21.214844 153.039062 Z M 98.257812 5.722656 "/></clipPath><clipPath id="7321948ed4"><path d="M 98.257812 5.722656 L 242.070312 122.351562 L 122.59375 269.671875 L -21.214844 153.039062 Z M 98.257812 5.722656 "/></clipPath><clipPath id="0a179659b7"><path d="M 98.257812 5.722656 L 242.070312 122.351562 L 122.59375 269.671875 L -21.214844 153.039062 Z M 98.257812 5.722656 "/></clipPath><clipPath id="933dde8ce5"><path d="M 8 130 L 65 130 L 65 149 L 8 149 Z M 8 130 "/></clipPath><clipPath id="825c7e4bf7"><path d="M 98.257812 5.722656 L 242.070312 122.351562 L 122.59375 269.671875 L -21.214844 153.039062 Z M 98.257812 5.722656 "/></clipPath><clipPath id="21ecac234d"><path d="M 98.257812 5.722656 L 242.070312 122.351562 L 122.59375 269.671875 L -21.214844 153.039062 Z M 98.257812 5.722656 "/></clipPath><clipPath id="14404f04c0"><path d="M 98.257812 5.722656 L 242.070312 122.351562 L 122.59375 269.671875 L -21.214844 153.039062 Z M 98.257812 5.722656 "/></clipPath><clipPath id="1ae6323334"><path d="M 60 64 L 91 64 L 91 116 L 60 116 Z M 60 64 "/></clipPath><clipPath id="af82160abf"><path d="M 98.257812 5.722656 L 242.070312 122.351562 L 122.59375 269.671875 L -21.214844 153.039062 Z M 98.257812 5.722656 "/></clipPath><clipPath id="56024fbc1e"><path d="M 98.257812 5.722656 L 242.070312 122.351562 L 122.59375 269.671875 L -21.214844 153.039062 Z M 98.257812 5.722656 "/></clipPath><clipPath id="b703de5a33"><path d="M 98.257812 5.722656 L 242.070312 122.351562 L 122.59375 269.671875 L -21.214844 153.039062 Z M 98.257812 5.722656 "/></clipPath><clipPath id="6e2c53887d"><path d="M 125 54 L 145 54 L 145 111 L 125 111 Z M 125 54 "/></clipPath><clipPath id="43a9d3fbef"><path d="M 98.257812 5.722656 L 242.070312 122.351562 L 122.59375 269.671875 L -21.214844 153.039062 Z M 98.257812 5.722656 "/></clipPath><clipPath id="c592d64365"><path d="M 98.257812 5.722656 L 242.070312 122.351562 L 122.59375 269.671875 L -21.214844 153.039062 Z M 98.257812 5.722656 "/></clipPath><clipPath id="2bb30e9d23"><path d="M 98.257812 5.722656 L 242.070312 122.351562 L 122.59375 269.671875 L -21.214844 153.039062 Z M 98.257812 5.722656 "/></clipPath><clipPath id="299c4baea7"><path d="M 158 106 L 210 106 L 210 137 L 158 137 Z M 158 106 "/></clipPath><clipPath id="a938bcc71f"><path d="M 98.257812 5.722656 L 242.070312 122.351562 L 122.59375 269.671875 L -21.214844 153.039062 Z M 98.257812 5.722656 "/></clipPath><clipPath id="7c0f1053f4"><path d="M 98.257812 5.722656 L 242.070312 122.351562 L 122.59375 269.671875 L -21.214844 153.039062 Z M 98.257812 5.722656 "/></clipPath><clipPath id="062b97209a"><path d="M 98.257812 5.722656 L 242.070312 122.351562 L 122.59375 269.671875 L -21.214844 153.039062 Z M 98.257812 5.722656 "/></clipPath><clipPath id="8fca9edf04"><path d="M 24 154 L 62 154 L 62 160 L 24 160 Z M 24 154 "/></clipPath><clipPath id="c3da094da6"><path d="M 98.257812 5.722656 L 242.070312 122.351562 L 122.59375 269.671875 L -21.214844 153.039062 Z M 98.257812 5.722656 "/></clipPath><clipPath id="a9b31bcde5"><path d="M 98.257812 5.722656 L 242.070312 122.351562 L 122.59375 269.671875 L -21.214844 153.039062 Z M 98.257812 5.722656 "/></clipPath><clipPath id="5e910aca0f"><path d="M 98.257812 5.722656 L 242.070312 122.351562 L 122.59375 269.671875 L -21.214844 153.039062 Z M 98.257812 5.722656 "/></clipPath><clipPath id="abbc829727"><path d="M 55 93 L 81 93 L 81 122 L 55 122 Z M 55 93 "/></clipPath><clipPath id="e41075927a"><path d="M 98.257812 5.722656 L 242.070312 122.351562 L 122.59375 269.671875 L -21.214844 153.039062 Z M 98.257812 5.722656 "/></clipPath><clipPath id="9b64665f35"><path d="M 98.257812 5.722656 L 242.070312 122.351562 L 122.59375 269.671875 L -21.214844 153.039062 Z M 98.257812 5.722656 "/></clipPath><clipPath id="c70e90e939"><path d="M 98.257812 5.722656 L 242.070312 122.351562 L 122.59375 269.671875 L -21.214844 153.039062 Z M 98.257812 5.722656 "/></clipPath><clipPath id="6675ebda3d"><path d="M 115 70 L 120 70 L 120 108 L 115 108 Z M 115 70 "/></clipPath><clipPath id="a9c5c98056"><path d="M 98.257812 5.722656 L 242.070312 122.351562 L 122.59375 269.671875 L -21.214844 153.039062 Z M 98.257812 5.722656 "/></clipPath><clipPath id="1c2e7c2102"><path d="M 98.257812 5.722656 L 242.070312 122.351562 L 122.59375 269.671875 L -21.214844 153.039062 Z M 98.257812 5.722656 "/></clipPath><clipPath id="9362b8ddb3"><path d="M 98.257812 5.722656 L 242.070312 122.351562 L 122.59375 269.671875 L -21.214844 153.039062 Z M 98.257812 5.722656 "/></clipPath><clipPath id="fce92d1772"><path d="M 152 100 L 182 100 L 182 127 L 152 127 Z M 152 100 "/></clipPath><clipPath id="bdc057e935"><path d="M 98.257812 5.722656 L 242.070312 122.351562 L 122.59375 269.671875 L -21.214844 153.039062 Z M 98.257812 5.722656 "/></clipPath><clipPath id="3a9f17b76f"><path d="M 98.257812 5.722656 L 242.070312 122.351562 L 122.59375 269.671875 L -21.214844 153.039062 Z M 98.257812 5.722656 "/></clipPath><clipPath id="469c63948d"><path d="M 98.257812 5.722656 L 242.070312 122.351562 L 122.59375 269.671875 L -21.214844 153.039062 Z M 98.257812 5.722656 "/></clipPath><clipPath id="ab3bef5822"><path d="M 34 120 L 68 120 L 68 138 L 34 138 Z M 34 120 "/></clipPath><clipPath id="9d4278ec4a"><path d="M 98.257812 5.722656 L 242.070312 122.351562 L 122.59375 269.671875 L -21.214844 153.039062 Z M 98.257812 5.722656 "/></clipPath><clipPath id="779b6e1618"><path d="M 98.257812 5.722656 L 242.070312 122.351562 L 122.59375 269.671875 L -21.214844 153.039062 Z M 98.257812 5.722656 "/></clipPath><clipPath id="afc4fb72c0"><path d="M 98.257812 5.722656 L 242.070312 122.351562 L 122.59375 269.671875 L -21.214844 153.039062 Z M 98.257812 5.722656 "/></clipPath><clipPath id="f7b0679b46"><path d="M 86 75 L 100 75 L 100 111 L 86 111 Z M 86 75 "/></clipPath><clipPath id="6e6cb688d4"><path d="M 98.257812 5.722656 L 242.070312 122.351562 L 122.59375 269.671875 L -21.214844 153.039062 Z M 98.257812 5.722656 "/></clipPath><clipPath id="66437afbe9"><path d="M 98.257812 5.722656 L 242.070312 122.351562 L 122.59375 269.671875 L -21.214844 153.039062 Z M 98.257812 5.722656 "/></clipPath><clipPath id="86ccc23b94"><path d="M 98.257812 5.722656 L 242.070312 122.351562 L 122.59375 269.671875 L -21.214844 153.039062 Z M 98.257812 5.722656 "/></clipPath><clipPath id="f187581827"><path d="M 136 79 L 155 79 L 155 114 L 136 114 Z M 136 79 "/></clipPath><clipPath id="15a196ea44"><path d="M 98.257812 5.722656 L 242.070312 122.351562 L 122.59375 269.671875 L -21.214844 153.039062 Z M 98.257812 5.722656 "/></clipPath><clipPath id="fda74108ea"><path d="M 98.257812 5.722656 L 242.070312 122.351562 L 122.59375 269.671875 L -21.214844 153.039062 Z M 98.257812 5.722656 "/></clipPath><clipPath id="29af211914"><path d="M 98.257812 5.722656 L 242.070312 122.351562 L 122.59375 269.671875 L -21.214844 153.039062 Z M 98.257812 5.722656 "/></clipPath><clipPath id="355c31bb08"><path d="M 163 131 L 199 131 L 199 146 L 163 146 Z M 163 131 "/></clipPath><clipPath id="339f6d4237"><path d="M 98.257812 5.722656 L 242.070312 122.351562 L 122.59375 269.671875 L -21.214844 153.039062 Z M 98.257812 5.722656 "/></clipPath><clipPath id="024aaf273f"><path d="M 98.257812 5.722656 L 242.070312 122.351562 L 122.59375 269.671875 L -21.214844 153.039062 Z M 98.257812 5.722656 "/></clipPath><clipPath id="f7c27eb2eb"><path d="M 98.257812 5.722656 L 242.070312 122.351562 L 122.59375 269.671875 L -21.214844 153.039062 Z M 98.257812 5.722656 "/></clipPath><clipPath id="9539be0800"><path d="M 76.078125 142 L 89 142 L 89 184 L 76.078125 184 Z M 76.078125 142 "/></clipPath><clipPath id="68fccc740b"><path d="M 81 115.496094 L 155.109375 115.496094 L 155.109375 198 L 81 198 Z M 81 115.496094 "/></clipPath></defs><g id="da7c740f42"><g clip-rule="nonzero" clip-path="url(#4a8d1590d1)"><g clip-rule="nonzero" clip-path="url(#27e3f8d1f5)"><g clip-rule="nonzero" clip-path="url(#e189b98899)"><g clip-rule="nonzero" clip-path="url(#a360ab4a6e)"><path style=" stroke:none;fill-rule:nonzero;fill:#f0a322;fill-opacity:1;" d="M 156.859375 156.78125 C 156.882812 156.25 156.90625 155.597656 156.898438 154.828125 C 156.878906 154.058594 156.851562 153.171875 156.785156 152.175781 C 156.738281 151.683594 156.691406 151.15625 156.632812 150.609375 C 156.617188 150.472656 156.601562 150.332031 156.585938 150.191406 C 156.570312 150.050781 156.546875 149.910156 156.523438 149.765625 C 156.480469 149.480469 156.433594 149.1875 156.386719 148.890625 C 156.339844 148.59375 156.292969 148.285156 156.246094 147.976562 C 156.175781 147.667969 156.109375 147.355469 156.042969 147.035156 C 155.972656 146.714844 155.902344 146.390625 155.828125 146.058594 C 155.8125 145.972656 155.792969 145.890625 155.773438 145.808594 C 155.753906 145.722656 155.730469 145.640625 155.707031 145.558594 C 155.664062 145.390625 155.617188 145.222656 155.570312 145.054688 C 155.386719 144.375 155.207031 143.671875 154.953125 142.964844 C 154.835938 142.609375 154.714844 142.25 154.59375 141.882812 C 154.5625 141.792969 154.53125 141.699219 154.5 141.609375 C 154.464844 141.515625 154.429688 141.425781 154.394531 141.335938 C 154.324219 141.152344 154.25 140.96875 154.179688 140.785156 C 154.035156 140.417969 153.890625 140.042969 153.734375 139.664062 C 153.574219 139.289062 153.394531 138.917969 153.222656 138.535156 C 153.136719 138.347656 153.046875 138.15625 152.960938 137.964844 C 152.867188 137.773438 152.785156 137.574219 152.683594 137.386719 C 152.484375 137.007812 152.285156 136.625 152.082031 136.234375 C 150.445312 133.136719 148.203125 130.003906 145.410156 127.054688 C 145.242188 126.863281 145.054688 126.691406 144.875 126.511719 C 144.691406 126.332031 144.507812 126.152344 144.324219 125.972656 C 144.140625 125.792969 143.953125 125.609375 143.769531 125.429688 C 143.582031 125.25 143.382812 125.082031 143.191406 124.90625 C 142.796875 124.5625 142.410156 124.207031 142.007812 123.863281 C 141.59375 123.53125 141.175781 123.199219 140.757812 122.867188 C 140.34375 122.523438 139.902344 122.21875 139.464844 121.898438 C 139.019531 121.585938 138.585938 121.257812 138.117188 120.96875 C 137.65625 120.671875 137.195312 120.371094 136.730469 120.074219 C 136.25 119.792969 135.765625 119.519531 135.28125 119.238281 C 134.800781 118.949219 134.296875 118.707031 133.792969 118.449219 C 133.289062 118.191406 132.789062 117.925781 132.261719 117.703125 C 131.742188 117.472656 131.222656 117.234375 130.695312 117.011719 C 130.15625 116.804688 129.621094 116.597656 129.082031 116.386719 C 126.90625 115.601562 124.644531 114.953125 122.316406 114.5 C 119.988281 114.066406 117.609375 113.800781 115.207031 113.722656 C 114.605469 113.71875 114.003906 113.714844 113.402344 113.710938 L 112.953125 113.710938 L 111.546875 113.78125 L 110.609375 113.832031 L 110.496094 113.839844 L 110.390625 113.851562 L 110.183594 113.871094 L 109.765625 113.914062 L 108.9375 113.996094 L 108.519531 114.039062 L 108.3125 114.0625 C 108.113281 114.085938 108.226562 114.070312 108.167969 114.082031 L 108.109375 114.085938 L 108 114.105469 C 105.609375 114.433594 103.246094 114.957031 100.9375 115.644531 C 100.367188 115.828125 99.792969 116.011719 99.222656 116.195312 C 98.65625 116.394531 98.101562 116.621094 97.539062 116.832031 L 97.121094 116.992188 L 96.910156 117.074219 L 96.707031 117.164062 C 96.433594 117.285156 96.160156 117.40625 95.886719 117.527344 C 95.339844 117.769531 94.792969 118 94.265625 118.277344 C 92.121094 119.308594 90.109375 120.550781 88.207031 121.886719 C 87.96875 122.054688 87.734375 122.222656 87.5 122.394531 C 87.265625 122.5625 87.027344 122.730469 86.804688 122.914062 C 86.355469 123.273438 85.90625 123.632812 85.457031 123.988281 C 85.015625 124.355469 84.59375 124.742188 84.167969 125.117188 C 83.957031 125.308594 83.742188 125.488281 83.539062 125.6875 C 83.335938 125.882812 83.132812 126.078125 82.933594 126.277344 C 82.730469 126.472656 82.53125 126.667969 82.328125 126.863281 C 82.230469 126.960938 82.128906 127.058594 82.03125 127.160156 L 81.746094 127.464844 C 81.371094 127.875 80.992188 128.28125 80.617188 128.6875 C 80.257812 129.105469 79.90625 129.527344 79.558594 129.945312 C 79.386719 130.160156 79.203125 130.363281 79.042969 130.578125 C 78.878906 130.796875 78.714844 131.011719 78.550781 131.226562 C 78.390625 131.441406 78.230469 131.65625 78.066406 131.871094 L 77.828125 132.191406 L 77.597656 132.519531 C 77.300781 132.960938 77.003906 133.398438 76.710938 133.835938 C 76.558594 134.050781 76.429688 134.277344 76.289062 134.5 C 76.15625 134.722656 76.019531 134.945312 75.886719 135.164062 C 75.75 135.386719 75.617188 135.605469 75.484375 135.828125 C 75.355469 136.050781 75.238281 136.277344 75.113281 136.503906 C 74.871094 136.953125 74.628906 137.398438 74.390625 137.839844 C 74.175781 138.292969 73.960938 138.742188 73.746094 139.191406 C 73.640625 139.414062 73.535156 139.636719 73.433594 139.859375 C 73.335938 140.085938 73.242188 140.308594 73.148438 140.535156 C 72.964844 140.984375 72.78125 141.429688 72.597656 141.871094 C 72.4375 142.320312 72.277344 142.765625 72.117188 143.207031 C 72.039062 143.429688 71.960938 143.648438 71.882812 143.867188 C 71.8125 144.085938 71.75 144.308594 71.683594 144.527344 C 71.550781 144.96875 71.421875 145.402344 71.292969 145.835938 C 71.222656 146.046875 71.175781 146.269531 71.125 146.484375 C 71.070312 146.699219 71.019531 146.914062 70.96875 147.128906 C 70.917969 147.34375 70.867188 147.554688 70.816406 147.765625 C 70.765625 147.980469 70.710938 148.1875 70.675781 148.398438 C 70.597656 148.820312 70.515625 149.238281 70.441406 149.652344 C 70.402344 149.859375 70.363281 150.0625 70.324219 150.265625 C 70.289062 150.46875 70.265625 150.675781 70.238281 150.875 C 70.179688 151.28125 70.128906 151.683594 70.078125 152.078125 C 70.019531 152.46875 69.996094 152.863281 69.964844 153.25 C 69.933594 153.632812 69.902344 154.011719 69.875 154.386719 C 69.867188 154.480469 69.859375 154.574219 69.851562 154.667969 C 69.847656 154.757812 69.847656 154.851562 69.84375 154.945312 C 69.835938 155.128906 69.832031 155.3125 69.828125 155.496094 C 69.820312 155.859375 69.8125 156.214844 69.804688 156.566406 C 69.816406 157.976562 69.851562 159.285156 69.980469 160.492188 C 70.007812 160.792969 70.035156 161.085938 70.0625 161.375 C 70.101562 161.664062 70.144531 161.945312 70.179688 162.222656 C 70.21875 162.496094 70.257812 162.765625 70.296875 163.027344 C 70.339844 163.289062 70.367188 163.546875 70.421875 163.785156 C 70.519531 164.265625 70.613281 164.71875 70.699219 165.144531 C 70.746094 165.363281 70.789062 165.574219 70.832031 165.78125 C 70.882812 165.980469 70.929688 166.175781 70.976562 166.359375 C 71.160156 167.105469 71.34375 167.734375 71.503906 168.238281 C 71.65625 168.742188 71.792969 169.125 71.882812 169.378906 C 71.972656 169.636719 72.019531 169.769531 72.019531 169.769531 C 72.019531 169.769531 71.96875 169.207031 71.90625 168.160156 C 71.878906 167.636719 71.851562 166.992188 71.832031 166.238281 C 71.828125 166.050781 71.824219 165.855469 71.820312 165.652344 C 71.824219 165.449219 71.828125 165.242188 71.832031 165.027344 C 71.835938 164.59375 71.835938 164.128906 71.839844 163.636719 C 71.835938 163.390625 71.863281 163.148438 71.875 162.894531 C 71.890625 162.644531 71.902344 162.386719 71.917969 162.125 C 71.933594 161.863281 71.945312 161.59375 71.960938 161.320312 C 71.988281 161.042969 72.015625 160.761719 72.046875 160.472656 C 72.148438 159.328125 72.3125 158.09375 72.539062 156.789062 C 72.992188 154.1875 73.738281 151.308594 74.898438 148.328125 C 75.460938 146.832031 76.179688 145.332031 76.941406 143.804688 C 77.148438 143.429688 77.359375 143.054688 77.570312 142.671875 C 77.671875 142.484375 77.777344 142.292969 77.882812 142.101562 C 77.996094 141.914062 78.109375 141.726562 78.226562 141.539062 C 78.457031 141.164062 78.6875 140.789062 78.921875 140.40625 C 79.167969 140.039062 79.417969 139.667969 79.671875 139.292969 C 79.800781 139.105469 79.921875 138.914062 80.054688 138.734375 C 80.191406 138.550781 80.328125 138.367188 80.464844 138.183594 C 80.597656 138 80.734375 137.816406 80.871094 137.632812 C 81.007812 137.449219 81.136719 137.261719 81.289062 137.085938 C 81.582031 136.726562 81.875 136.367188 82.167969 136.003906 L 82.386719 135.734375 L 82.621094 135.472656 C 82.777344 135.296875 82.933594 135.121094 83.089844 134.945312 C 83.246094 134.769531 83.402344 134.59375 83.558594 134.417969 C 83.714844 134.238281 83.886719 134.074219 84.050781 133.902344 C 84.382812 133.566406 84.710938 133.21875 85.046875 132.878906 C 85.394531 132.550781 85.746094 132.222656 86.097656 131.894531 L 86.363281 131.644531 C 86.449219 131.5625 86.546875 131.488281 86.636719 131.40625 C 86.820312 131.25 87.003906 131.089844 87.1875 130.933594 C 87.371094 130.773438 87.554688 130.613281 87.738281 130.457031 C 87.921875 130.292969 88.121094 130.152344 88.3125 130 C 88.503906 129.847656 88.699219 129.699219 88.890625 129.546875 C 89.085938 129.398438 89.273438 129.238281 89.472656 129.09375 C 89.875 128.808594 90.273438 128.523438 90.675781 128.234375 C 90.875 128.085938 91.085938 127.953125 91.292969 127.820312 C 91.503906 127.6875 91.710938 127.550781 91.917969 127.417969 C 92.128906 127.28125 92.335938 127.144531 92.542969 127.007812 C 92.757812 126.882812 92.976562 126.757812 93.191406 126.632812 C 93.40625 126.507812 93.621094 126.378906 93.839844 126.253906 L 94.160156 126.0625 C 94.269531 126.003906 94.382812 125.949219 94.496094 125.890625 C 94.9375 125.65625 95.382812 125.421875 95.828125 125.1875 C 96.28125 124.96875 96.742188 124.761719 97.199219 124.546875 C 99.039062 123.722656 100.945312 122.996094 102.90625 122.441406 C 103.148438 122.359375 103.394531 122.300781 103.644531 122.238281 L 104.386719 122.054688 L 105.128906 121.863281 L 105.878906 121.714844 L 106.628906 121.558594 C 106.882812 121.507812 107.132812 121.453125 107.386719 121.421875 L 108.902344 121.1875 L 109.046875 121.167969 C 109.03125 121.167969 109.0625 121.164062 109.074219 121.160156 L 109.210938 121.148438 L 109.625 121.105469 L 110.457031 121.015625 L 110.875 120.972656 L 111.183594 120.9375 C 111.21875 120.933594 111.246094 120.933594 111.277344 120.933594 L 112.738281 120.855469 L 113.101562 120.835938 L 113.484375 120.832031 C 113.996094 120.824219 114.503906 120.820312 115.011719 120.816406 C 117.046875 120.859375 119.070312 121.03125 121.058594 121.34375 C 121.550781 121.433594 122.046875 121.523438 122.539062 121.613281 C 122.789062 121.652344 123.03125 121.710938 123.273438 121.769531 C 123.515625 121.824219 123.761719 121.882812 124.003906 121.9375 C 124.246094 121.996094 124.488281 122.050781 124.734375 122.105469 C 124.972656 122.171875 125.210938 122.242188 125.449219 122.308594 C 125.691406 122.375 125.929688 122.441406 126.167969 122.507812 L 126.527344 122.609375 L 126.878906 122.726562 C 127.347656 122.882812 127.816406 123.035156 128.28125 123.191406 C 128.746094 123.359375 129.199219 123.539062 129.65625 123.714844 C 130.121094 123.878906 130.5625 124.085938 131.007812 124.277344 C 131.453125 124.472656 131.902344 124.652344 132.332031 124.875 C 134.085938 125.6875 135.722656 126.667969 137.296875 127.671875 C 137.683594 127.933594 138.070312 128.195312 138.453125 128.453125 C 138.828125 128.726562 139.199219 129 139.566406 129.273438 C 139.75 129.410156 139.9375 129.539062 140.117188 129.683594 C 140.292969 129.824219 140.46875 129.96875 140.644531 130.113281 C 140.820312 130.253906 140.996094 130.398438 141.171875 130.539062 C 141.34375 130.683594 141.527344 130.816406 141.691406 130.96875 C 144.398438 133.316406 146.71875 135.859375 148.566406 138.441406 C 148.800781 138.765625 149.03125 139.089844 149.257812 139.402344 C 149.375 139.5625 149.472656 139.726562 149.578125 139.890625 C 149.683594 140.050781 149.789062 140.214844 149.890625 140.371094 C 150.09375 140.695312 150.308594 141.007812 150.5 141.332031 C 150.683594 141.65625 150.875 141.972656 151.058594 142.289062 C 151.152344 142.445312 151.246094 142.601562 151.335938 142.757812 C 151.382812 142.835938 151.429688 142.914062 151.472656 142.992188 C 151.511719 143.074219 151.554688 143.152344 151.597656 143.230469 C 151.761719 143.546875 151.925781 143.859375 152.085938 144.167969 C 152.421875 144.78125 152.6875 145.402344 152.972656 145.996094 C 154.066406 148.390625 154.824219 150.59375 155.375 152.4375 C 155.453125 152.667969 155.5 152.898438 155.5625 153.117188 C 155.617188 153.339844 155.671875 153.554688 155.726562 153.761719 C 155.835938 154.179688 155.949219 154.566406 156.035156 154.933594 C 156.207031 155.667969 156.34375 156.300781 156.445312 156.8125 C 156.648438 157.839844 156.738281 158.394531 156.738281 158.394531 C 156.738281 158.394531 156.753906 158.253906 156.777344 157.984375 C 156.800781 157.710938 156.835938 157.308594 156.859375 156.78125 "/></g></g></g></g><g clip-rule="nonzero" clip-path="url(#b8e97e1f47)"><g clip-rule="nonzero" clip-path="url(#4a3da12928)"><g clip-rule="nonzero" clip-path="url(#7a58a8aee3)"><g clip-rule="nonzero" clip-path="url(#7971a621c1)"><g clip-rule="nonzero" clip-path="url(#bc43e3a54e)"><path style=" stroke:none;fill-rule:nonzero;fill:#f0a322;fill-opacity:1;" d="M 168.203125 149.574219 C 168.054688 149.582031 167.886719 149.605469 167.738281 149.632812 C 165.796875 150.015625 164.523438 151.894531 164.890625 153.835938 C 165.261719 155.777344 167.132812 157.042969 169.074219 156.660156 L 222.800781 146.113281 L 168.203125 149.574219 "/></g></g></g></g></g><g clip-rule="nonzero" clip-path="url(#08b035ccbd)"><g clip-rule="nonzero" clip-path="url(#f6b0cef3e2)"><g clip-rule="nonzero" clip-path="url(#be9d98c002)"><g clip-rule="nonzero" clip-path="url(#d7ea1ed87a)"><g clip-rule="nonzero" clip-path="url(#d0f1ec14e3)"><path style=" stroke:none;fill-rule:nonzero;fill:#f0a322;fill-opacity:1;" d="M 62.878906 166.558594 C 62.507812 164.617188 60.636719 163.355469 58.699219 163.734375 L 4.96875 174.285156 L 59.566406 170.824219 C 59.714844 170.8125 59.882812 170.792969 60.03125 170.765625 C 61.972656 170.382812 63.246094 168.5 62.878906 166.558594 "/></g></g></g></g></g><g clip-rule="nonzero" clip-path="url(#6408c7c187)"><g clip-rule="nonzero" clip-path="url(#dbd0543922)"><g clip-rule="nonzero" clip-path="url(#83efbe1ba4)"><g clip-rule="nonzero" clip-path="url(#c98a37e8c2)"><path style=" stroke:none;fill-rule:nonzero;fill:#f0a322;fill-opacity:1;" d="M 68.582031 129.582031 C 70.214844 130.6875 72.441406 130.25 73.550781 128.609375 C 74.664062 126.96875 74.242188 124.742188 72.609375 123.636719 L 27.40625 93.101562 L 68.214844 129.296875 C 68.324219 129.394531 68.457031 129.5 68.582031 129.582031 "/></g></g></g></g><g clip-rule="nonzero" clip-path="url(#4aaa7be0aa)"><g clip-rule="nonzero" clip-path="url(#f05b5b002a)"><g clip-rule="nonzero" clip-path="url(#18c6489131)"><g clip-rule="nonzero" clip-path="url(#9a3dda0cb3)"><path style=" stroke:none;fill-rule:nonzero;fill:#f0a322;fill-opacity:1;" d="M 103.671875 106.335938 C 104.039062 108.277344 105.914062 109.542969 107.851562 109.164062 C 109.792969 108.78125 111.066406 106.898438 110.699219 104.957031 L 100.5 51.222656 L 103.617188 105.875 C 103.625 106.019531 103.644531 106.191406 103.671875 106.335938 "/></g></g></g></g><g clip-rule="nonzero" clip-path="url(#123265c2ee)"><g clip-rule="nonzero" clip-path="url(#d9fdd3c7ce)"><g clip-rule="nonzero" clip-path="url(#7321948ed4)"><g clip-rule="nonzero" clip-path="url(#0a179659b7)"><path style=" stroke:none;fill-rule:nonzero;fill:#f0a322;fill-opacity:1;" d="M 145.6875 119.613281 C 147.320312 120.714844 149.542969 120.277344 150.65625 118.636719 L 181.4375 73.179688 L 145.03125 114.273438 C 144.933594 114.382812 144.828125 114.515625 144.746094 114.640625 C 143.632812 116.285156 144.054688 118.507812 145.6875 119.613281 "/></g></g></g></g><g clip-rule="nonzero" clip-path="url(#933dde8ce5)"><g clip-rule="nonzero" clip-path="url(#825c7e4bf7)"><g clip-rule="nonzero" clip-path="url(#21ecac234d)"><g clip-rule="nonzero" clip-path="url(#14404f04c0)"><path style=" stroke:none;fill-rule:nonzero;fill:#f0a322;fill-opacity:1;" d="M 60.324219 148.875 C 62.253906 149.285156 64.15625 148.046875 64.574219 146.109375 C 64.996094 144.175781 63.769531 142.277344 61.839844 141.867188 L 8.398438 130.578125 L 59.875 148.75 C 60.011719 148.796875 60.175781 148.84375 60.324219 148.875 "/></g></g></g></g><g clip-rule="nonzero" clip-path="url(#1ae6323334)"><g clip-rule="nonzero" clip-path="url(#af82160abf)"><g clip-rule="nonzero" clip-path="url(#56024fbc1e)"><g clip-rule="nonzero" clip-path="url(#b703de5a33)"><path style=" stroke:none;fill-rule:nonzero;fill:#f0a322;fill-opacity:1;" d="M 84.242188 114.214844 C 85.3125 115.875 87.523438 116.339844 89.1875 115.261719 C 90.847656 114.179688 91.328125 111.960938 90.261719 110.304688 L 60.679688 64.433594 L 84.015625 113.808594 C 84.082031 113.941406 84.160156 114.089844 84.242188 114.214844 "/></g></g></g></g><g clip-rule="nonzero" clip-path="url(#6e2c53887d)"><g clip-rule="nonzero" clip-path="url(#43a9d3fbef)"><g clip-rule="nonzero" clip-path="url(#c592d64365)"><g clip-rule="nonzero" clip-path="url(#2bb30e9d23)"><path style=" stroke:none;fill-rule:nonzero;fill:#f0a322;fill-opacity:1;" d="M 125.527344 106.492188 C 125.109375 108.425781 126.335938 110.328125 128.265625 110.734375 C 130.195312 111.140625 132.097656 109.902344 132.519531 107.96875 L 144.128906 54.382812 L 125.65625 106.042969 C 125.609375 106.179688 125.558594 106.34375 125.527344 106.492188 "/></g></g></g></g><g clip-rule="nonzero" clip-path="url(#299c4baea7)"><g clip-rule="nonzero" clip-path="url(#a938bcc71f)"><g clip-rule="nonzero" clip-path="url(#7c0f1053f4)"><g clip-rule="nonzero" clip-path="url(#062b97209a)"><path style=" stroke:none;fill-rule:nonzero;fill:#f0a322;fill-opacity:1;" d="M 158.917969 135.183594 C 159.988281 136.839844 162.199219 137.308594 163.863281 136.226562 L 209.859375 106.320312 L 160.402344 130 C 160.269531 130.0625 160.121094 130.144531 159.992188 130.226562 C 158.332031 131.308594 157.851562 133.527344 158.917969 135.183594 "/></g></g></g></g><g clip-rule="nonzero" clip-path="url(#8fca9edf04)"><g clip-rule="nonzero" clip-path="url(#c3da094da6)"><g clip-rule="nonzero" clip-path="url(#a9b31bcde5)"><g clip-rule="nonzero" clip-path="url(#5e910aca0f)"><path style=" stroke:none;fill-rule:nonzero;fill:#f0a322;fill-opacity:1;" d="M 58.691406 159.140625 C 58.785156 159.152344 58.898438 159.160156 59 159.160156 C 60.277344 159.152344 61.3125 158.105469 61.316406 156.828125 C 61.316406 155.546875 60.277344 154.515625 59 154.523438 L 24.582031 154.734375 L 58.691406 159.140625 "/></g></g></g></g><g clip-rule="nonzero" clip-path="url(#abbc829727)"><g clip-rule="nonzero" clip-path="url(#e41075927a)"><g clip-rule="nonzero" clip-path="url(#9b64665f35)"><g clip-rule="nonzero" clip-path="url(#c70e90e939)"><path style=" stroke:none;fill-rule:nonzero;fill:#f0a322;fill-opacity:1;" d="M 79.328125 117.300781 L 55 93.085938 L 75.847656 120.363281 C 75.910156 120.441406 75.980469 120.527344 76.054688 120.597656 C 76.957031 121.496094 78.421875 121.488281 79.328125 120.578125 C 80.230469 119.664062 80.230469 118.199219 79.328125 117.300781 "/></g></g></g></g><g clip-rule="nonzero" clip-path="url(#6675ebda3d)"><g clip-rule="nonzero" clip-path="url(#a9c5c98056)"><g clip-rule="nonzero" clip-path="url(#1c2e7c2102)"><g clip-rule="nonzero" clip-path="url(#9362b8ddb3)"><path style=" stroke:none;fill-rule:nonzero;fill:#f0a322;fill-opacity:1;" d="M 115.269531 105.234375 C 115.269531 106.511719 116.304688 107.542969 117.582031 107.535156 C 118.859375 107.527344 119.898438 106.484375 119.898438 105.203125 L 119.902344 70.742188 L 115.289062 104.921875 C 115.277344 105.019531 115.269531 105.132812 115.269531 105.234375 "/></g></g></g></g><g clip-rule="nonzero" clip-path="url(#fce92d1772)"><g clip-rule="nonzero" clip-path="url(#bdc057e935)"><g clip-rule="nonzero" clip-path="url(#3a9f17b76f)"><g clip-rule="nonzero" clip-path="url(#469c63948d)"><path style=" stroke:none;fill-rule:nonzero;fill:#f0a322;fill-opacity:1;" d="M 153.671875 125.34375 C 154.574219 126.242188 156.042969 126.234375 156.945312 125.324219 L 181.277344 100.8125 L 153.90625 121.859375 C 153.828125 121.921875 153.742188 121.996094 153.671875 122.066406 C 152.769531 122.976562 152.769531 124.445312 153.671875 125.34375 "/></g></g></g></g><g clip-rule="nonzero" clip-path="url(#ab3bef5822)"><g clip-rule="nonzero" clip-path="url(#9d4278ec4a)"><g clip-rule="nonzero" clip-path="url(#779b6e1618)"><g clip-rule="nonzero" clip-path="url(#afc4fb72c0)"><path style=" stroke:none;fill-rule:nonzero;fill:#f0a322;fill-opacity:1;" d="M 65.714844 133.484375 L 34.042969 120.21875 L 63.628906 137.625 C 63.710938 137.671875 63.8125 137.722656 63.90625 137.761719 C 65.082031 138.253906 66.441406 137.699219 66.941406 136.515625 C 67.4375 135.335938 66.890625 133.976562 65.714844 133.484375 "/></g></g></g></g><g clip-rule="nonzero" clip-path="url(#f7b0679b46)"><g clip-rule="nonzero" clip-path="url(#6e6cb688d4)"><g clip-rule="nonzero" clip-path="url(#66437afbe9)"><g clip-rule="nonzero" clip-path="url(#86ccc23b94)"><path style=" stroke:none;fill-rule:nonzero;fill:#f0a322;fill-opacity:1;" d="M 97.621094 110.105469 C 98.808594 109.621094 99.378906 108.265625 98.902344 107.082031 L 86.015625 75.210938 L 94.511719 108.550781 C 94.539062 108.644531 94.570312 108.753906 94.609375 108.84375 C 95.085938 110.027344 96.4375 110.59375 97.621094 110.105469 "/></g></g></g></g><g clip-rule="nonzero" clip-path="url(#f187581827)"><g clip-rule="nonzero" clip-path="url(#15a196ea44)"><g clip-rule="nonzero" clip-path="url(#fda74108ea)"><g clip-rule="nonzero" clip-path="url(#29af211914)"><path style=" stroke:none;fill-rule:nonzero;fill:#f0a322;fill-opacity:1;" d="M 136.605469 110.007812 C 136.105469 111.191406 136.65625 112.546875 137.832031 113.042969 C 139.007812 113.535156 140.367188 112.976562 140.867188 111.792969 L 154.316406 79.996094 L 136.746094 109.730469 C 136.695312 109.816406 136.644531 109.917969 136.605469 110.007812 "/></g></g></g></g><g clip-rule="nonzero" clip-path="url(#355c31bb08)"><g clip-rule="nonzero" clip-path="url(#339f6d4237)"><g clip-rule="nonzero" clip-path="url(#024aaf273f)"><g clip-rule="nonzero" clip-path="url(#f7c27eb2eb)"><path style=" stroke:none;fill-rule:nonzero;fill:#f0a322;fill-opacity:1;" d="M 165.292969 140.574219 C 164.105469 141.058594 163.535156 142.414062 164.011719 143.597656 C 164.492188 144.78125 165.839844 145.347656 167.027344 144.859375 L 198.9375 131.753906 L 165.585938 140.472656 C 165.492188 140.5 165.386719 140.535156 165.292969 140.574219 "/></g></g></g></g><g clip-rule="nonzero" clip-path="url(#9539be0800)"><path style=" stroke:none;fill-rule:evenodd;fill:#7ed957;fill-opacity:1;" d="M 81.414062 165.210938 L 83.359375 165.210938 C 83.34375 165.914062 83.328125 166.617188 83.328125 167.320312 C 83.328125 167.320312 83.328125 167.335938 83.328125 167.335938 C 83.328125 168.835938 83.371094 170.347656 83.464844 171.847656 C 83.464844 171.878906 83.464844 171.910156 83.464844 171.953125 C 83.464844 171.96875 83.464844 171.984375 83.464844 172.015625 C 83.601562 173.253906 83.753906 174.492188 83.984375 175.730469 C 84.503906 178.253906 85.390625 180.761719 86.492188 183.285156 C 86.09375 181.816406 85.742188 180.351562 85.621094 178.867188 C 85.484375 177.398438 85.542969 175.914062 85.589844 174.445312 C 85.699219 173.085938 85.820312 171.710938 86.035156 170.347656 C 86.246094 168.988281 86.523438 167.609375 86.828125 166.25 C 87.378906 164.09375 88.007812 161.921875 88.742188 159.75 C 88.023438 159.75 87.304688 159.75 86.597656 159.75 L 81.597656 159.75 C 82.027344 158.144531 82.5 156.539062 83.066406 154.949219 C 83.480469 153.785156 83.9375 152.625 84.429688 151.460938 C 84.457031 151.371094 84.488281 151.292969 84.535156 151.203125 C 84.6875 150.851562 84.839844 150.484375 84.992188 150.132812 C 85.851562 147.5625 87.164062 145.148438 88.847656 142.898438 L 81.003906 142.898438 C 80.285156 144.734375 79.59375 146.570312 79 148.402344 C 78.417969 150.222656 77.976562 152.074219 77.546875 153.894531 C 77.148438 155.773438 76.796875 157.671875 76.550781 159.550781 C 76.308594 161.433594 76.171875 163.328125 76.078125 165.210938 C 76.644531 165.210938 77.210938 165.210938 77.777344 165.210938 Z M 81.414062 165.210938 "/></g><g clip-rule="nonzero" clip-path="url(#68fccc740b)"><path style=" stroke:none;fill-rule:evenodd;fill:#ffffff;fill-opacity:1;" d="M 90.375 182.796875 C 90.742188 184.296875 91.21875 185.777344 91.800781 187.214844 C 91.828125 187.292969 91.859375 187.367188 91.890625 187.429688 C 91.90625 187.460938 91.921875 187.507812 91.9375 187.539062 C 91.953125 187.566406 91.96875 187.613281 91.984375 187.644531 C 91.996094 187.675781 92.011719 187.722656 92.027344 187.75 L 92.027344 187.765625 C 92.042969 187.796875 92.058594 187.84375 92.074219 187.875 C 92.121094 187.828125 92.179688 187.78125 92.226562 187.734375 C 92.746094 187.261719 93.3125 186.847656 93.910156 186.496094 C 96.449219 185.015625 99.597656 184.675781 102.550781 185.839844 C 105.5 187.003906 107.582031 189.433594 108.40625 192.277344 C 108.894531 193.960938 108.941406 195.78125 108.484375 197.570312 C 112.65625 198.136719 116.832031 198.042969 120.886719 197.355469 C 120.363281 195.613281 120.351562 193.792969 120.777344 192.109375 C 121.511719 189.234375 123.515625 186.726562 126.4375 185.457031 C 129.371094 184.1875 132.597656 184.449219 135.199219 185.886719 C 136.710938 186.726562 138.011719 187.964844 138.914062 189.523438 C 142.1875 187.046875 145.109375 184.050781 147.539062 180.609375 C 145.949219 179.753906 144.679688 178.5 143.777344 177.03125 C 142.234375 174.476562 141.851562 171.25 143.042969 168.269531 C 143.273438 167.6875 143.546875 167.136719 143.886719 166.617188 L 141.285156 166.617188 C 140.671875 168.316406 139.894531 169.964844 138.960938 171.558594 C 136.390625 175.855469 132.738281 179.449219 128.378906 181.925781 C 124.1875 184.3125 119.324219 185.671875 114.125 185.671875 C 106.160156 185.671875 98.941406 182.445312 93.710938 177.214844 C 92.347656 175.855469 91.109375 174.339844 90.039062 172.734375 C 89.535156 175.472656 89.535156 178.269531 89.996094 180.976562 C 90.085938 181.589844 90.222656 182.183594 90.375 182.796875 C 90.46875 183.164062 90.574219 183.53125 90.683594 183.898438 C 90.574219 183.53125 90.46875 183.179688 90.375 182.796875 M 93.910156 127.117188 C 92.378906 126.230469 91.082031 124.914062 90.207031 123.277344 C 86.769531 125.710938 83.785156 128.632812 81.292969 131.902344 C 82.914062 132.851562 84.167969 134.199219 85.007812 135.757812 C 85.269531 136.246094 85.5 136.765625 85.683594 137.300781 L 92.824219 137.300781 C 93.113281 136.996094 93.40625 136.691406 93.695312 136.382812 C 98.925781 131.152344 106.128906 127.925781 114.109375 127.925781 C 122.09375 127.925781 129.296875 131.152344 134.527344 136.382812 C 138.960938 140.820312 141.972656 146.707031 142.769531 153.265625 L 124.019531 153.265625 C 122.691406 150.757812 120.042969 149.046875 117.03125 149.046875 L 109.125 149.046875 L 109.125 152.136719 L 104.019531 152.136719 L 104.019531 154.996094 L 109.125 154.996094 L 109.125 158.988281 L 104.019531 158.988281 L 104.019531 161.816406 L 109.125 161.816406 L 109.125 164.90625 L 117.03125 164.90625 C 120.183594 164.90625 122.933594 163.023438 124.1875 160.347656 L 154.957031 160.347656 C 155.0625 159.167969 155.109375 157.992188 155.109375 156.832031 C 155.109375 154.996094 154.988281 153.144531 154.726562 151.292969 C 152.984375 151.753906 151.210938 151.722656 149.574219 151.265625 C 146.683594 150.46875 144.207031 148.359375 143.011719 145.359375 C 141.835938 142.363281 142.203125 139.136719 143.761719 136.582031 C 144.648438 135.113281 145.917969 133.875 147.507812 133.019531 C 145.078125 129.578125 142.15625 126.597656 138.882812 124.105469 C 137.964844 125.664062 136.683594 126.902344 135.167969 127.742188 C 132.570312 129.195312 129.34375 129.457031 126.40625 128.1875 C 123.46875 126.917969 121.464844 124.394531 120.746094 121.519531 C 120.320312 119.835938 120.335938 118.035156 120.855469 116.273438 C 116.816406 115.585938 112.628906 115.496094 108.453125 116.0625 C 108.925781 117.835938 108.867188 119.667969 108.375 121.351562 C 107.550781 124.179688 105.46875 126.613281 102.519531 127.789062 C 99.597656 128.9375 96.433594 128.601562 93.910156 127.117188 Z M 92.074219 187.890625 C 92.363281 188.578125 92.703125 189.265625 93.039062 189.9375 M 90.375 182.796875 L 90.375 182.8125 "/></g><g style="fill:#ffffff;fill-opacity:1;"><g transform="translate(148.446551, 226.865441)"><path style="stroke:none" d="M 43.65625 -1.265625 L 42.546875 -2.21875 L 40.625 -4.359375 L 29.15625 -15.765625 L 27.890625 -16.578125 L 26.9375 -17.6875 L 21.6875 -22.71875 L 20.71875 -23.96875 L 19.765625 -24.34375 L 19.234375 -23.09375 L 19.09375 -21.609375 L 19.015625 -2.890625 L 18.28125 -0.59375 L 16.796875 0.140625 L 15.25 0.21875 L 12.359375 0 L 10.734375 0.140625 L 7.703125 0 L 6.140625 -0.515625 L 5.46875 -1.921875 L 5.328125 -8.140625 L 5.46875 -9.546875 L 5.328125 -21.6875 L 5.546875 -22.9375 L 5.40625 -25.96875 L 5.46875 -27.234375 L 5.46875 -49.65625 L 6.140625 -51.0625 L 7.84375 -51.796875 L 10.0625 -51.28125 L 11.765625 -50.390625 L 12.875 -49.5 L 27.453125 -34.78125 L 29.53125 -33.15625 L 34.78125 -27.890625 L 35.890625 -27.375 L 36.328125 -28.640625 L 36.484375 -41.890625 L 36.328125 -43.515625 L 36.5625 -46.625 L 36.328125 -47.796875 L 36.40625 -49.359375 L 37.21875 -50.90625 L 38.625 -51.71875 L 47.796875 -51.796875 L 49.28125 -50.984375 L 50.03125 -49.5 L 50.25 -39.21875 L 50.03125 -37.4375 L 50.03125 -30.125 L 50.25 -28.859375 L 50.09375 -1.84375 L 49.359375 -0.375 L 47.734375 0.140625 L 45.65625 -0.078125 Z M 43.65625 -1.265625 "/></g></g><g style="fill:#ffffff;fill-opacity:1;"><g transform="translate(204.236617, 226.865441)"><path style="stroke:none" d="M 43.65625 0.140625 L 42.109375 0 L 40.40625 -0.734375 L 38.921875 -1.84375 L 38.484375 -3.1875 L 37.8125 -4.59375 L 36.40625 -5.765625 L 34.78125 -6.59375 L 33.15625 -6.359375 L 31.8125 -6.515625 L 24.5625 -6.4375 L 23.234375 -6.65625 L 20.125 -6.359375 L 18.71875 -6.59375 L 17.171875 -5.765625 L 15.765625 -4.359375 L 14.4375 -1.921875 L 13.03125 -0.59375 L 11.328125 -0.078125 L 7.171875 0.078125 L 5.703125 -0.078125 L 2.8125 0.078125 L 1.328125 -0.375 L 0.96875 -2.21875 L 1.40625 -3.703125 L 2.890625 -6.65625 L 3.25 -7.984375 L 4.0625 -9.03125 L 5.1875 -11.984375 L 6.515625 -14.359375 L 7.03125 -15.84375 L 7.765625 -16.953125 L 8.21875 -18.578125 L 15.765625 -34.40625 L 16.203125 -35.734375 L 17.015625 -37.140625 L 17.390625 -38.625 L 18.203125 -39.734375 L 21.15625 -46.546875 L 21.828125 -47.578125 L 22.34375 -49.0625 L 23.015625 -50.3125 L 24.34375 -51.578125 L 26.71875 -52.390625 L 29.15625 -51.65625 L 30.40625 -50.3125 L 31.8125 -47.734375 L 32.265625 -46.390625 L 33.078125 -45.0625 L 33.515625 -43.578125 L 38.40625 -33.296875 L 38.921875 -31.75 L 40.484375 -29.015625 L 40.921875 -27.828125 L 41.59375 -26.71875 L 42.03125 -25.09375 L 42.765625 -23.6875 L 43.515625 -22.5625 L 46.328125 -15.84375 L 47.796875 -13.171875 L 48.84375 -10.4375 L 50.84375 -6.59375 L 51.953125 -3.84375 L 52.46875 -2.140625 L 52.25 -0.375 L 50.171875 0 L 47.875 0.078125 L 46.46875 -0.078125 Z M 26.859375 -18.28125 L 29.828125 -18.359375 L 30.9375 -18.9375 L 31.234375 -20.28125 L 27.75 -28.421875 L 26.71875 -29.015625 L 25.90625 -28.34375 L 22.421875 -20.34375 L 22.5 -18.9375 L 23.6875 -18.421875 L 25.375 -18.578125 Z M 26.859375 -18.28125 "/></g></g><g style="fill:#ffffff;fill-opacity:1;"><g transform="translate(257.954901, 226.865441)"><path style="stroke:none" d="M 25.671875 0.734375 L 24.203125 0.296875 L 19.984375 -0.4375 L 18.71875 -0.8125 L 13.609375 -3.78125 L 11.171875 -5.46875 L 8.21875 -8.578125 L 6.515625 -11.09375 L 5.1875 -13.609375 L 3.109375 -20.578125 L 2.734375 -25.75 L 2.8125 -28.125 L 4.140625 -35.453125 L 6.875 -41 L 7.703125 -42.109375 L 8.8125 -43.21875 L 9.765625 -44.40625 L 13.03125 -47.28125 L 17.09375 -49.796875 L 22.796875 -51.875 L 24.203125 -51.953125 L 25.453125 -52.390625 L 26.9375 -52.46875 L 33.8125 -52.171875 L 37.296875 -51.203125 L 38.84375 -50.90625 L 44.03125 -48.171875 L 45.140625 -47.28125 L 46.328125 -46.171875 L 47.953125 -44.84375 L 50.90625 -40.546875 L 51.578125 -39.21875 L 52.609375 -36.1875 L 52.171875 -34.921875 L 50.3125 -34.109375 L 46.765625 -34.34375 L 44.546875 -34.046875 L 42.25 -34.109375 L 40.484375 -34.625 L 38.921875 -35.890625 L 37.96875 -37.140625 L 37.078125 -38.109375 L 35.671875 -39.078125 L 34.265625 -39.65625 L 31.53125 -40.40625 L 27.015625 -40.25 L 25.75 -39.65625 L 24.34375 -39.515625 L 23.09375 -38.84375 L 20.5 -37 L 18.203125 -33.515625 L 17.015625 -30.859375 L 16.5 -27.96875 L 16.578125 -23.6875 L 16.953125 -21.3125 L 17.53125 -19.171875 L 18.9375 -16.5 L 19.765625 -15.46875 L 21.984375 -13.390625 L 25.96875 -11.765625 L 29.75 -11.328125 L 31.671875 -11.390625 L 34.5625 -12.0625 L 37 -13.03125 L 38.03125 -13.84375 L 39.140625 -15.09375 L 39.890625 -16.359375 L 39.65625 -17.609375 L 38.546875 -18.125 L 37.21875 -18.359375 L 33.515625 -18.0625 L 31.375 -18.203125 L 30.046875 -19.015625 L 29.375 -20.203125 L 29.375 -27.234375 L 30.046875 -28.640625 L 31.53125 -29.375 L 34.34375 -29.59375 L 38.78125 -29.296875 L 48.765625 -29.53125 L 50.3125 -29.296875 L 51.875 -29.234375 L 53.28125 -28.484375 L 54.015625 -27.234375 L 54.171875 -24.421875 L 54.015625 -23.015625 L 54.015625 -21.53125 L 53.71875 -20.203125 L 53.65625 -18.9375 L 53.0625 -16.125 L 51.578125 -11.765625 L 50.6875 -10.734375 L 50.03125 -9.390625 L 49.28125 -8.140625 L 48.390625 -7.109375 L 47.28125 -6.21875 L 46.171875 -5.03125 L 43.875 -3.25 L 38.625 -0.59375 L 33.078125 0.734375 Z M 25.671875 0.734375 "/></g></g><g style="fill:#ffffff;fill-opacity:1;"><g transform="translate(314.632868, 226.865441)"><path style="stroke:none" d="M 43.65625 0.140625 L 42.109375 0 L 40.40625 -0.734375 L 38.921875 -1.84375 L 38.484375 -3.1875 L 37.8125 -4.59375 L 36.40625 -5.765625 L 34.78125 -6.59375 L 33.15625 -6.359375 L 31.8125 -6.515625 L 24.5625 -6.4375 L 23.234375 -6.65625 L 20.125 -6.359375 L 18.71875 -6.59375 L 17.171875 -5.765625 L 15.765625 -4.359375 L 14.4375 -1.921875 L 13.03125 -0.59375 L 11.328125 -0.078125 L 7.171875 0.078125 L 5.703125 -0.078125 L 2.8125 0.078125 L 1.328125 -0.375 L 0.96875 -2.21875 L 1.40625 -3.703125 L 2.890625 -6.65625 L 3.25 -7.984375 L 4.0625 -9.03125 L 5.1875 -11.984375 L 6.515625 -14.359375 L 7.03125 -15.84375 L 7.765625 -16.953125 L 8.21875 -18.578125 L 15.765625 -34.40625 L 16.203125 -35.734375 L 17.015625 -37.140625 L 17.390625 -38.625 L 18.203125 -39.734375 L 21.15625 -46.546875 L 21.828125 -47.578125 L 22.34375 -49.0625 L 23.015625 -50.3125 L 24.34375 -51.578125 L 26.71875 -52.390625 L 29.15625 -51.65625 L 30.40625 -50.3125 L 31.8125 -47.734375 L 32.265625 -46.390625 L 33.078125 -45.0625 L 33.515625 -43.578125 L 38.40625 -33.296875 L 38.921875 -31.75 L 40.484375 -29.015625 L 40.921875 -27.828125 L 41.59375 -26.71875 L 42.03125 -25.09375 L 42.765625 -23.6875 L 43.515625 -22.5625 L 46.328125 -15.84375 L 47.796875 -13.171875 L 48.84375 -10.4375 L 50.84375 -6.59375 L 51.953125 -3.84375 L 52.46875 -2.140625 L 52.25 -0.375 L 50.171875 0 L 47.875 0.078125 L 46.46875 -0.078125 Z M 26.859375 -18.28125 L 29.828125 -18.359375 L 30.9375 -18.9375 L 31.234375 -20.28125 L 27.75 -28.421875 L 26.71875 -29.015625 L 25.90625 -28.34375 L 22.421875 -20.34375 L 22.5 -18.9375 L 23.6875 -18.421875 L 25.375 -18.578125 Z M 26.859375 -18.28125 "/></g></g><g style="fill:#ffffff;fill-opacity:1;"><g transform="translate(368.351153, 226.865441)"><path style="stroke:none" d="M 25.75 0.59375 L 24.34375 0.515625 L 23.015625 0.21875 L 21.53125 -0.296875 L 20.203125 -0.59375 L 16.875 -2 L 13.6875 -3.703125 L 10.359375 -6.59375 L 7.328125 -9.84375 L 4.140625 -16.28125 L 3.109375 -20.5 L 2.65625 -25.90625 L 3.40625 -32.265625 L 4.140625 -35.296875 L 6 -39.4375 L 7.40625 -41.59375 L 9.390625 -44.109375 L 12.578125 -46.984375 L 14.71875 -48.625 L 20.203125 -51.203125 L 27.375 -52.609375 L 31.96875 -52.546875 L 33.453125 -52.3125 L 34.859375 -52.25 L 41.953125 -49.875 L 46.984375 -46.6875 L 49.0625 -44.546875 L 49.875 -43.140625 L 50.90625 -41.890625 L 51.578125 -40.703125 L 52.390625 -39.515625 L 52.828125 -37.96875 L 53.359375 -36.625 L 53.796875 -35 L 53.28125 -33.515625 L 52.015625 -32.9375 L 49.796875 -32.703125 L 47.734375 -32.9375 L 46.25 -32.859375 L 44.703125 -32.9375 L 43.359375 -32.78125 L 41.65625 -33.59375 L 40.25 -35 L 39.4375 -36.109375 L 37.296875 -38.265625 L 36.265625 -39.078125 L 34.921875 -39.59375 L 32.640625 -40.25 L 29.453125 -40.40625 L 24.5 -39.734375 L 22.5 -38.625 L 20.71875 -37.21875 L 18.9375 -35.15625 L 18.203125 -33.75 L 17.09375 -31.078125 L 16.578125 -28.125 L 16.578125 -23.609375 L 16.796875 -21.984375 L 17.171875 -20.640625 L 17.6875 -19.609375 L 18.203125 -18.125 L 19.828125 -15.546875 L 21.984375 -13.609375 L 24.5625 -12.28125 L 27.234375 -11.328125 L 29.375 -11.09375 L 33.296875 -11.328125 L 35.890625 -12.734375 L 37 -13.171875 L 38.1875 -14.203125 L 39.890625 -16.125 L 40.625 -17.53125 L 41.8125 -18.71875 L 43.515625 -19.609375 L 44.984375 -19.53125 L 46.46875 -19.609375 L 47.953125 -19.390625 L 52.09375 -19.6875 L 53.578125 -18.71875 L 54.015625 -17.390625 L 52.09375 -11.765625 L 50.546875 -9.109375 L 48.84375 -6.875 L 46.765625 -4.8125 L 43.140625 -2.21875 L 41.890625 -1.625 L 40.328125 -1.109375 L 39 -0.375 L 34.625 0.515625 L 29.453125 0.890625 Z M 25.75 0.59375 "/></g></g><g style="fill:#ffffff;fill-opacity:1;"><g transform="translate(424.807138, 226.865441)"><path style="stroke:none" d="M 5.40625 -2.078125 L 5.625 -8.140625 L 5.40625 -9.46875 L 5.40625 -31.59375 L 5.546875 -33.078125 L 5.46875 -34.859375 L 5.625 -37.671875 L 5.328125 -40.703125 L 5.46875 -42.1875 L 5.328125 -47.953125 L 5.46875 -49.578125 L 6.21875 -51.0625 L 7.84375 -51.796875 L 15.171875 -51.65625 L 16.796875 -51.796875 L 18.359375 -50.984375 L 19.015625 -49.578125 L 19.171875 -46.84375 L 19.015625 -45.21875 L 18.9375 -39.4375 L 19.015625 -38.109375 L 19.015625 -36.5625 L 19.09375 -34.921875 L 19.828125 -33.515625 L 21.234375 -32.859375 L 25.609375 -32.78125 L 26.9375 -32.9375 L 28.484375 -32.78125 L 31.375 -33.078125 L 32.78125 -32.859375 L 34.265625 -33.671875 L 35.078125 -35.15625 L 35.15625 -40.921875 L 34.921875 -42.328125 L 35.078125 -45.359375 L 34.921875 -46.625 L 35 -49.4375 L 35.734375 -51.203125 L 37.890625 -51.71875 L 46.390625 -51.65625 L 47.875 -51.0625 L 48.546875 -49.5 L 48.46875 -12.359375 L 48.6875 -11.171875 L 48.46875 -8.8125 L 48.625 -2.078125 L 47.734375 -0.8125 L 46.328125 0.140625 L 43.296875 -0.078125 L 41.8125 0.078125 L 37.96875 0.078125 L 35.8125 -0.890625 L 35 -2.078125 L 34.921875 -18.421875 L 34.1875 -19.828125 L 32.78125 -20.640625 L 31.453125 -20.640625 L 29.890625 -20.875 L 21.15625 -20.796875 L 19.609375 -19.828125 L 18.9375 -18.28125 L 18.9375 -5.1875 L 19.09375 -3.546875 L 18.9375 -2.140625 L 18.359375 -0.734375 L 16.796875 0.140625 L 13.6875 0.078125 L 12.140625 0.21875 L 9.171875 0.078125 L 7.703125 0.140625 L 6.296875 -0.671875 Z M 5.40625 -2.078125 "/></g></g><g style="fill:#ffffff;fill-opacity:1;"><g transform="translate(478.969362, 226.865441)"><path style="stroke:none" d="M 43.65625 0.140625 L 42.109375 0 L 40.40625 -0.734375 L 38.921875 -1.84375 L 38.484375 -3.1875 L 37.8125 -4.59375 L 36.40625 -5.765625 L 34.78125 -6.59375 L 33.15625 -6.359375 L 31.8125 -6.515625 L 24.5625 -6.4375 L 23.234375 -6.65625 L 20.125 -6.359375 L 18.71875 -6.59375 L 17.171875 -5.765625 L 15.765625 -4.359375 L 14.4375 -1.921875 L 13.03125 -0.59375 L 11.328125 -0.078125 L 7.171875 0.078125 L 5.703125 -0.078125 L 2.8125 0.078125 L 1.328125 -0.375 L 0.96875 -2.21875 L 1.40625 -3.703125 L 2.890625 -6.65625 L 3.25 -7.984375 L 4.0625 -9.03125 L 5.1875 -11.984375 L 6.515625 -14.359375 L 7.03125 -15.84375 L 7.765625 -16.953125 L 8.21875 -18.578125 L 15.765625 -34.40625 L 16.203125 -35.734375 L 17.015625 -37.140625 L 17.390625 -38.625 L 18.203125 -39.734375 L 21.15625 -46.546875 L 21.828125 -47.578125 L 22.34375 -49.0625 L 23.015625 -50.3125 L 24.34375 -51.578125 L 26.71875 -52.390625 L 29.15625 -51.65625 L 30.40625 -50.3125 L 31.8125 -47.734375 L 32.265625 -46.390625 L 33.078125 -45.0625 L 33.515625 -43.578125 L 38.40625 -33.296875 L 38.921875 -31.75 L 40.484375 -29.015625 L 40.921875 -27.828125 L 41.59375 -26.71875 L 42.03125 -25.09375 L 42.765625 -23.6875 L 43.515625 -22.5625 L 46.328125 -15.84375 L 47.796875 -13.171875 L 48.84375 -10.4375 L 50.84375 -6.59375 L 51.953125 -3.84375 L 52.46875 -2.140625 L 52.25 -0.375 L 50.171875 0 L 47.875 0.078125 L 46.46875 -0.078125 Z M 26.859375 -18.28125 L 29.828125 -18.359375 L 30.9375 -18.9375 L 31.234375 -20.28125 L 27.75 -28.421875 L 26.71875 -29.015625 L 25.90625 -28.34375 L 22.421875 -20.34375 L 22.5 -18.9375 L 23.6875 -18.421875 L 25.375 -18.578125 Z M 26.859375 -18.28125 "/></g></g><g style="fill:#ffffff;fill-opacity:1;"><g transform="translate(532.687646, 226.865441)"><path style="stroke:none" d="M 24.796875 0.296875 L 23.3125 -0.078125 L 19.6875 -0.078125 L 17.46875 0.21875 L 14.5 -0.078125 L 13.03125 0.078125 L 10.734375 0.140625 L 8.578125 -0.140625 L 7.171875 0 L 5.765625 0 L 4.296875 -0.671875 L 3.546875 -2.65625 L 3.78125 -9.46875 L 4.59375 -10.796875 L 9.46875 -12.28125 L 10.28125 -14.5 L 10.0625 -37.21875 L 9.390625 -39.21875 L 7.984375 -40.109375 L 6.515625 -40.109375 L 4.890625 -40.921875 L 4.0625 -42.40625 L 4.21875 -43.8125 L 4 -49.28125 L 4.734375 -51.0625 L 6.21875 -51.796875 L 7.921875 -51.796875 L 9.328125 -51.578125 L 15.390625 -51.578125 L 16.875 -51.875 L 18.203125 -51.71875 L 27.15625 -51.71875 L 28.484375 -50.90625 L 29.375 -49.5 L 29.296875 -42.1875 L 28.5625 -41 L 27.015625 -40.40625 L 25.53125 -40.1875 L 23.90625 -39.515625 L 23.390625 -37.8125 L 23.09375 -30.34375 L 23.390625 -25.015625 L 23.234375 -23.390625 L 23.3125 -15.25 L 23.09375 -13.84375 L 23.96875 -12.140625 L 25.75 -11.546875 L 27.3125 -11.546875 L 28.9375 -10.734375 L 29.828125 -9.328125 L 29.828125 -2 L 29.078125 -0.59375 L 27.75 0.140625 Z M 24.796875 0.296875 "/></g></g><g style="fill:#ffffff;fill-opacity:1;"><g transform="translate(566.280079, 226.865441)"><path style="stroke:none" d="M 19.3125 0.140625 L 17.015625 0.078125 L 14.875 -0.671875 L 13.90625 -2.296875 L 14.0625 -3.703125 L 14.140625 -7.984375 L 13.984375 -9.546875 L 14.0625 -15.546875 L 14.203125 -17.015625 L 13.984375 -28.046875 L 14.140625 -30.125 L 14.0625 -31.59375 L 14.140625 -33.21875 L 13.984375 -35.296875 L 14.140625 -37.671875 L 13.3125 -39.140625 L 11.90625 -39.890625 L 4.890625 -40.03125 L 3.40625 -39.890625 L 2.078125 -40.625 L 1.40625 -41.953125 L 1.265625 -44.25 L 1.40625 -47.953125 L 1.328125 -49.4375 L 2.21875 -51.140625 L 3.625 -51.875 L 8.8125 -51.578125 L 11.09375 -51.796875 L 15.46875 -51.578125 L 16.796875 -51.875 L 18.421875 -51.71875 L 19.984375 -51.953125 L 21.390625 -51.875 L 22.859375 -51.578125 L 28.859375 -51.875 L 30.265625 -51.71875 L 31.8125 -51.953125 L 33.21875 -51.796875 L 37.8125 -51.796875 L 39.21875 -50.84375 L 40.03125 -49.359375 L 39.953125 -42.328125 L 39.078125 -40.703125 L 37.8125 -39.890625 L 36.484375 -39.953125 L 34.921875 -39.734375 L 32.1875 -40.109375 L 29.296875 -39.953125 L 27.890625 -39.078125 L 27.3125 -36.859375 L 27.078125 -30.40625 L 27.3125 -28.859375 L 27.15625 -16.953125 L 27.375 -15.3125 L 27.234375 -13.984375 L 27.3125 -11.03125 L 27.15625 -9.46875 L 27.375 -6.65625 L 27.15625 -2.8125 L 26.421875 -0.734375 L 24.265625 0 Z M 19.3125 0.140625 "/></g></g><g style="fill:#ffffff;fill-opacity:1;"><g transform="translate(607.641676, 226.865441)"><path style="stroke:none" d="M 5.546875 -3.03125 L 5.546875 -13.984375 L 5.40625 -15.46875 L 5.46875 -21.453125 L 5.625 -22.859375 L 5.46875 -24.265625 L 5.46875 -25.75 L 5.40625 -27.375 L 5.625 -30.34375 L 5.46875 -31.8125 L 5.40625 -48.765625 L 6.296875 -50.84375 L 7.625 -51.578125 L 11.984375 -51.953125 L 13.609375 -51.875 L 15.09375 -51.578125 L 16.578125 -51.578125 L 17.90625 -51.953125 L 19.390625 -51.953125 L 20.875 -51.65625 L 25.3125 -51.65625 L 27.453125 -51.796875 L 29.828125 -51.71875 L 34.046875 -50.765625 L 36.859375 -49.796875 L 39.4375 -48.390625 L 43.65625 -43.953125 L 44.46875 -42.765625 L 45.0625 -41.515625 L 46.390625 -37.296875 L 46.625 -35.8125 L 46.765625 -31.15625 L 45.8125 -26.859375 L 42.921875 -21.6875 L 41.890625 -20.796875 L 40.84375 -19.6875 L 40.1875 -18.0625 L 40.25 -16.28125 L 41.140625 -15.171875 L 43.515625 -11.328125 L 44.171875 -9.984375 L 46.6875 -6.21875 L 47.28125 -4.8125 L 48.171875 -3.78125 L 48.984375 -2.140625 L 48.546875 -0.515625 L 47.140625 0.140625 L 44.703125 0.21875 L 43.296875 0.078125 L 37.4375 0.140625 L 34.921875 -0.515625 L 33.296875 -1.84375 L 32.484375 -3.109375 L 31.890625 -4.59375 L 31.078125 -5.703125 L 29.671875 -8.359375 L 28.125 -10.578125 L 27.53125 -11.90625 L 26.640625 -13.390625 L 25.15625 -14.65625 L 20.875 -15.25 L 19.46875 -14.4375 L 18.796875 -12.953125 L 18.640625 -8.21875 L 18.875 -6.65625 L 18.71875 -5.328125 L 18.71875 -2.8125 L 18.0625 -0.671875 L 15.6875 0.078125 L 13.46875 0.078125 L 12.28125 0.21875 L 9.921875 0 L 8.4375 0.21875 L 6.296875 -0.734375 Z M 20.875 -27.078125 L 22.5 -27.234375 L 26.046875 -27.078125 L 27.453125 -27.15625 L 29.59375 -27.671875 L 30.9375 -28.265625 L 31.75 -28.9375 L 32.5625 -30.046875 L 33.21875 -31.53125 L 33.453125 -33.75 L 33.15625 -35.671875 L 32.703125 -36.859375 L 30.859375 -39.140625 L 29.453125 -39.515625 L 27.53125 -39.65625 L 25.453125 -40.109375 L 22.5 -39.8125 L 21.015625 -39.890625 L 19.46875 -39.296875 L 18.796875 -37.890625 L 18.640625 -34.78125 L 18.796875 -33.515625 L 18.796875 -29.078125 L 19.390625 -27.890625 Z M 20.875 -27.078125 "/></g></g><g style="fill:#ffffff;fill-opacity:1;"><g transform="translate(658.992224, 226.865441)"><path style="stroke:none" d="M 43.65625 0.140625 L 42.109375 0 L 40.40625 -0.734375 L 38.921875 -1.84375 L 38.484375 -3.1875 L 37.8125 -4.59375 L 36.40625 -5.765625 L 34.78125 -6.59375 L 33.15625 -6.359375 L 31.8125 -6.515625 L 24.5625 -6.4375 L 23.234375 -6.65625 L 20.125 -6.359375 L 18.71875 -6.59375 L 17.171875 -5.765625 L 15.765625 -4.359375 L 14.4375 -1.921875 L 13.03125 -0.59375 L 11.328125 -0.078125 L 7.171875 0.078125 L 5.703125 -0.078125 L 2.8125 0.078125 L 1.328125 -0.375 L 0.96875 -2.21875 L 1.40625 -3.703125 L 2.890625 -6.65625 L 3.25 -7.984375 L 4.0625 -9.03125 L 5.1875 -11.984375 L 6.515625 -14.359375 L 7.03125 -15.84375 L 7.765625 -16.953125 L 8.21875 -18.578125 L 15.765625 -34.40625 L 16.203125 -35.734375 L 17.015625 -37.140625 L 17.390625 -38.625 L 18.203125 -39.734375 L 21.15625 -46.546875 L 21.828125 -47.578125 L 22.34375 -49.0625 L 23.015625 -50.3125 L 24.34375 -51.578125 L 26.71875 -52.390625 L 29.15625 -51.65625 L 30.40625 -50.3125 L 31.8125 -47.734375 L 32.265625 -46.390625 L 33.078125 -45.0625 L 33.515625 -43.578125 L 38.40625 -33.296875 L 38.921875 -31.75 L 40.484375 -29.015625 L 40.921875 -27.828125 L 41.59375 -26.71875 L 42.03125 -25.09375 L 42.765625 -23.6875 L 43.515625 -22.5625 L 46.328125 -15.84375 L 47.796875 -13.171875 L 48.84375 -10.4375 L 50.84375 -6.59375 L 51.953125 -3.84375 L 52.46875 -2.140625 L 52.25 -0.375 L 50.171875 0 L 47.875 0.078125 L 46.46875 -0.078125 Z M 26.859375 -18.28125 L 29.828125 -18.359375 L 30.9375 -18.9375 L 31.234375 -20.28125 L 27.75 -28.421875 L 26.71875 -29.015625 L 25.90625 -28.34375 L 22.421875 -20.34375 L 22.5 -18.9375 L 23.6875 -18.421875 L 25.375 -18.578125 Z M 26.859375 -18.28125 "/></g></g><g style="fill:#ffffff;fill-opacity:1;"><g transform="translate(204.938902, 260.762546)"><path style="stroke:none" d="M 12.4375 0 L 1.828125 0 L 1.828125 -15.328125 L 12.34375 -15.328125 L 12.34375 -12.828125 L 4.640625 -12.828125 L 4.640625 -8.96875 L 11.28125 -8.96875 L 11.28125 -6.609375 L 4.640625 -6.609375 L 4.640625 -2.515625 L 12.4375 -2.515625 Z M 12.4375 0 "/></g></g><g style="fill:#ffffff;fill-opacity:1;"><g transform="translate(221.388713, 260.762546)"><path style="stroke:none" d="M 4.640625 0 L 1.828125 0 L 1.828125 -15.328125 L 4.234375 -15.328125 L 12.59375 -4.59375 L 12.59375 -15.328125 L 15.390625 -15.328125 L 15.390625 0 L 12.984375 0 L 4.640625 -10.71875 Z M 4.640625 0 "/></g></g><g style="fill:#ffffff;fill-opacity:1;"><g transform="translate(241.88666, 260.762546)"><path style="stroke:none" d="M 8.84375 0.328125 C 7.945312 0.328125 7.09375 0.191406 6.28125 -0.078125 C 5.476562 -0.347656 4.738281 -0.726562 4.0625 -1.21875 C 3.394531 -1.707031 2.8125 -2.285156 2.3125 -2.953125 C 1.8125 -3.617188 1.425781 -4.347656 1.15625 -5.140625 C 0.882812 -5.941406 0.75 -6.785156 0.75 -7.671875 C 0.75 -8.566406 0.882812 -9.414062 1.15625 -10.21875 C 1.425781 -11.03125 1.8125 -11.769531 2.3125 -12.4375 C 2.8125 -13.101562 3.398438 -13.675781 4.078125 -14.15625 C 4.753906 -14.644531 5.5 -15.023438 6.3125 -15.296875 C 7.125 -15.566406 7.984375 -15.703125 8.890625 -15.703125 C 9.535156 -15.703125 10.179688 -15.625 10.828125 -15.46875 C 11.484375 -15.3125 12.109375 -15.082031 12.703125 -14.78125 C 13.304688 -14.476562 13.851562 -14.109375 14.34375 -13.671875 C 14.84375 -13.234375 15.265625 -12.726562 15.609375 -12.15625 C 15.960938 -11.59375 16.210938 -10.960938 16.359375 -10.265625 L 13.515625 -10.265625 C 13.109375 -11.160156 12.492188 -11.859375 11.671875 -12.359375 C 10.859375 -12.867188 9.90625 -13.125 8.8125 -13.125 C 8.09375 -13.125 7.410156 -12.992188 6.765625 -12.734375 C 6.128906 -12.472656 5.570312 -12.101562 5.09375 -11.625 C 4.613281 -11.144531 4.234375 -10.570312 3.953125 -9.90625 C 3.679688 -9.238281 3.546875 -8.492188 3.546875 -7.671875 C 3.546875 -6.835938 3.679688 -6.085938 3.953125 -5.421875 C 4.234375 -4.765625 4.613281 -4.195312 5.09375 -3.71875 C 5.570312 -3.25 6.128906 -2.882812 6.765625 -2.625 C 7.410156 -2.375 8.09375 -2.25 8.8125 -2.25 C 9.726562 -2.25 10.519531 -2.40625 11.1875 -2.71875 C 11.863281 -3.03125 12.410156 -3.460938 12.828125 -4.015625 C 13.242188 -4.566406 13.523438 -5.195312 13.671875 -5.90625 L 8.703125 -5.90625 L 8.703125 -8.25 L 16.71875 -8.25 C 16.71875 -7 16.546875 -5.847656 16.203125 -4.796875 C 15.859375 -3.742188 15.347656 -2.832031 14.671875 -2.0625 C 13.992188 -1.300781 13.164062 -0.710938 12.1875 -0.296875 C 11.207031 0.117188 10.09375 0.328125 8.84375 0.328125 Z M 8.84375 0.328125 "/></g></g><g style="fill:#ffffff;fill-opacity:1;"><g transform="translate(262.632682, 260.762546)"><path style="stroke:none" d="M 4.640625 0 L 1.828125 0 L 1.828125 -15.328125 L 4.640625 -15.328125 Z M 4.640625 0 "/></g></g><g style="fill:#ffffff;fill-opacity:1;"><g transform="translate(272.361911, 260.762546)"><path style="stroke:none" d="M 4.640625 0 L 1.828125 0 L 1.828125 -15.328125 L 4.234375 -15.328125 L 12.59375 -4.59375 L 12.59375 -15.328125 L 15.390625 -15.328125 L 15.390625 0 L 12.984375 0 L 4.640625 -10.71875 Z M 4.640625 0 "/></g></g><g style="fill:#ffffff;fill-opacity:1;"><g transform="translate(292.859858, 260.762546)"><path style="stroke:none" d="M 12.4375 0 L 1.828125 0 L 1.828125 -15.328125 L 12.34375 -15.328125 L 12.34375 -12.828125 L 4.640625 -12.828125 L 4.640625 -8.96875 L 11.28125 -8.96875 L 11.28125 -6.609375 L 4.640625 -6.609375 L 4.640625 -2.515625 L 12.4375 -2.515625 Z M 12.4375 0 "/></g></g><g style="fill:#ffffff;fill-opacity:1;"><g transform="translate(309.309669, 260.762546)"><path style="stroke:none" d="M 12.4375 0 L 1.828125 0 L 1.828125 -15.328125 L 12.34375 -15.328125 L 12.34375 -12.828125 L 4.640625 -12.828125 L 4.640625 -8.96875 L 11.28125 -8.96875 L 11.28125 -6.609375 L 4.640625 -6.609375 L 4.640625 -2.515625 L 12.4375 -2.515625 Z M 12.4375 0 "/></g></g><g style="fill:#ffffff;fill-opacity:1;"><g transform="translate(325.75948, 260.762546)"><path style="stroke:none" d="M 4.640625 0 L 1.828125 0 L 1.828125 -15.328125 L 8.453125 -15.328125 C 9.222656 -15.328125 9.929688 -15.207031 10.578125 -14.96875 C 11.234375 -14.738281 11.796875 -14.398438 12.265625 -13.953125 C 12.742188 -13.515625 13.113281 -12.988281 13.375 -12.375 C 13.632812 -11.757812 13.765625 -11.082031 13.765625 -10.34375 C 13.765625 -9.613281 13.632812 -8.953125 13.375 -8.359375 C 13.113281 -7.765625 12.75 -7.253906 12.28125 -6.828125 C 11.820312 -6.410156 11.273438 -6.09375 10.640625 -5.875 L 14.125 0 L 10.890625 0 L 7.859375 -5.453125 C 7.765625 -5.441406 7.664062 -5.4375 7.5625 -5.4375 C 7.46875 -5.4375 7.367188 -5.4375 7.265625 -5.4375 L 4.640625 -5.4375 Z M 4.640625 -12.828125 L 4.640625 -7.796875 L 8.34375 -7.796875 C 8.84375 -7.804688 9.285156 -7.914062 9.671875 -8.125 C 10.066406 -8.34375 10.378906 -8.640625 10.609375 -9.015625 C 10.835938 -9.398438 10.953125 -9.84375 10.953125 -10.34375 C 10.953125 -10.8125 10.835938 -11.234375 10.609375 -11.609375 C 10.378906 -11.984375 10.066406 -12.28125 9.671875 -12.5 C 9.273438 -12.71875 8.828125 -12.828125 8.328125 -12.828125 Z M 4.640625 -12.828125 "/></g></g><g style="fill:#ffffff;fill-opacity:1;"><g transform="translate(343.641361, 260.762546)"><path style="stroke:none" d="M 4.640625 0 L 1.828125 0 L 1.828125 -15.328125 L 4.640625 -15.328125 Z M 4.640625 0 "/></g></g><g style="fill:#ffffff;fill-opacity:1;"><g transform="translate(353.37059, 260.762546)"><path style="stroke:none" d="M 4.640625 0 L 1.828125 0 L 1.828125 -15.328125 L 4.234375 -15.328125 L 12.59375 -4.59375 L 12.59375 -15.328125 L 15.390625 -15.328125 L 15.390625 0 L 12.984375 0 L 4.640625 -10.71875 Z M 4.640625 0 "/></g></g><g style="fill:#ffffff;fill-opacity:1;"><g transform="translate(373.868537, 260.762546)"><path style="stroke:none" d="M 8.84375 0.328125 C 7.945312 0.328125 7.09375 0.191406 6.28125 -0.078125 C 5.476562 -0.347656 4.738281 -0.726562 4.0625 -1.21875 C 3.394531 -1.707031 2.8125 -2.285156 2.3125 -2.953125 C 1.8125 -3.617188 1.425781 -4.347656 1.15625 -5.140625 C 0.882812 -5.941406 0.75 -6.785156 0.75 -7.671875 C 0.75 -8.566406 0.882812 -9.414062 1.15625 -10.21875 C 1.425781 -11.03125 1.8125 -11.769531 2.3125 -12.4375 C 2.8125 -13.101562 3.398438 -13.675781 4.078125 -14.15625 C 4.753906 -14.644531 5.5 -15.023438 6.3125 -15.296875 C 7.125 -15.566406 7.984375 -15.703125 8.890625 -15.703125 C 9.535156 -15.703125 10.179688 -15.625 10.828125 -15.46875 C 11.484375 -15.3125 12.109375 -15.082031 12.703125 -14.78125 C 13.304688 -14.476562 13.851562 -14.109375 14.34375 -13.671875 C 14.84375 -13.234375 15.265625 -12.726562 15.609375 -12.15625 C 15.960938 -11.59375 16.210938 -10.960938 16.359375 -10.265625 L 13.515625 -10.265625 C 13.109375 -11.160156 12.492188 -11.859375 11.671875 -12.359375 C 10.859375 -12.867188 9.90625 -13.125 8.8125 -13.125 C 8.09375 -13.125 7.410156 -12.992188 6.765625 -12.734375 C 6.128906 -12.472656 5.570312 -12.101562 5.09375 -11.625 C 4.613281 -11.144531 4.234375 -10.570312 3.953125 -9.90625 C 3.679688 -9.238281 3.546875 -8.492188 3.546875 -7.671875 C 3.546875 -6.835938 3.679688 -6.085938 3.953125 -5.421875 C 4.234375 -4.765625 4.613281 -4.195312 5.09375 -3.71875 C 5.570312 -3.25 6.128906 -2.882812 6.765625 -2.625 C 7.410156 -2.375 8.09375 -2.25 8.8125 -2.25 C 9.726562 -2.25 10.519531 -2.40625 11.1875 -2.71875 C 11.863281 -3.03125 12.410156 -3.460938 12.828125 -4.015625 C 13.242188 -4.566406 13.523438 -5.195312 13.671875 -5.90625 L 8.703125 -5.90625 L 8.703125 -8.25 L 16.71875 -8.25 C 16.71875 -7 16.546875 -5.847656 16.203125 -4.796875 C 15.859375 -3.742188 15.347656 -2.832031 14.671875 -2.0625 C 13.992188 -1.300781 13.164062 -0.710938 12.1875 -0.296875 C 11.207031 0.117188 10.09375 0.328125 8.84375 0.328125 Z M 8.84375 0.328125 "/></g></g><g style="fill:#ffffff;fill-opacity:1;"><g transform="translate(394.614559, 260.762546)"><path style="stroke:none" d=""/></g></g><g style="fill:#ffffff;fill-opacity:1;"><g transform="translate(403.520629, 260.762546)"><path style="stroke:none" d="M 7 0.34375 C 5.894531 0.34375 4.945312 0.203125 4.15625 -0.078125 C 3.375 -0.359375 2.734375 -0.738281 2.234375 -1.21875 C 1.734375 -1.695312 1.363281 -2.226562 1.125 -2.8125 C 0.882812 -3.40625 0.765625 -4 0.765625 -4.59375 L 3.578125 -4.59375 C 3.578125 -4.125 3.707031 -3.691406 3.96875 -3.296875 C 4.238281 -2.910156 4.628906 -2.597656 5.140625 -2.359375 C 5.648438 -2.128906 6.265625 -2.015625 6.984375 -2.015625 C 9.265625 -2.015625 10.40625 -2.78125 10.40625 -4.3125 C 10.40625 -4.78125 10.257812 -5.160156 9.96875 -5.453125 C 9.675781 -5.753906 9.265625 -6 8.734375 -6.1875 C 8.210938 -6.375 7.59375 -6.535156 6.875 -6.671875 C 6.363281 -6.773438 5.835938 -6.898438 5.296875 -7.046875 C 4.765625 -7.191406 4.25 -7.378906 3.75 -7.609375 C 3.257812 -7.835938 2.816406 -8.113281 2.421875 -8.4375 C 2.035156 -8.769531 1.726562 -9.171875 1.5 -9.640625 C 1.269531 -10.109375 1.15625 -10.660156 1.15625 -11.296875 C 1.15625 -12.128906 1.359375 -12.875 1.765625 -13.53125 C 2.171875 -14.195312 2.796875 -14.722656 3.640625 -15.109375 C 4.492188 -15.503906 5.582031 -15.703125 6.90625 -15.703125 C 8.175781 -15.703125 9.238281 -15.507812 10.09375 -15.125 C 10.945312 -14.738281 11.585938 -14.195312 12.015625 -13.5 C 12.453125 -12.8125 12.671875 -12.007812 12.671875 -11.09375 L 9.859375 -11.09375 C 9.859375 -11.488281 9.753906 -11.847656 9.546875 -12.171875 C 9.335938 -12.492188 9.015625 -12.75 8.578125 -12.9375 C 8.140625 -13.132812 7.570312 -13.234375 6.875 -13.234375 C 6.289062 -13.234375 5.8125 -13.175781 5.4375 -13.0625 C 5.0625 -12.957031 4.765625 -12.8125 4.546875 -12.625 C 4.335938 -12.4375 4.1875 -12.222656 4.09375 -11.984375 C 4.007812 -11.753906 3.96875 -11.519531 3.96875 -11.28125 C 3.96875 -10.644531 4.285156 -10.15625 4.921875 -9.8125 C 5.566406 -9.476562 6.53125 -9.207031 7.8125 -9 C 8.519531 -8.875 9.195312 -8.695312 9.84375 -8.46875 C 10.5 -8.25 11.082031 -7.957031 11.59375 -7.59375 C 12.101562 -7.238281 12.503906 -6.789062 12.796875 -6.25 C 13.097656 -5.71875 13.25 -5.066406 13.25 -4.296875 C 13.25 -3.304688 12.988281 -2.460938 12.46875 -1.765625 C 11.957031 -1.078125 11.234375 -0.550781 10.296875 -0.1875 C 9.359375 0.164062 8.257812 0.34375 7 0.34375 Z M 7 0.34375 "/></g></g><g style="fill:#ffffff;fill-opacity:1;"><g transform="translate(420.75977, 260.762546)"><path style="stroke:none" d="M 12.4375 0 L 1.828125 0 L 1.828125 -15.328125 L 12.34375 -15.328125 L 12.34375 -12.828125 L 4.640625 -12.828125 L 4.640625 -8.96875 L 11.28125 -8.96875 L 11.28125 -6.609375 L 4.640625 -6.609375 L 4.640625 -2.515625 L 12.4375 -2.515625 Z M 12.4375 0 "/></g></g><g style="fill:#ffffff;fill-opacity:1;"><g transform="translate(437.209581, 260.762546)"><path style="stroke:none" d="M 4.640625 0 L 1.828125 0 L 1.828125 -15.328125 L 8.453125 -15.328125 C 9.222656 -15.328125 9.929688 -15.207031 10.578125 -14.96875 C 11.234375 -14.738281 11.796875 -14.398438 12.265625 -13.953125 C 12.742188 -13.515625 13.113281 -12.988281 13.375 -12.375 C 13.632812 -11.757812 13.765625 -11.082031 13.765625 -10.34375 C 13.765625 -9.613281 13.632812 -8.953125 13.375 -8.359375 C 13.113281 -7.765625 12.75 -7.253906 12.28125 -6.828125 C 11.820312 -6.410156 11.273438 -6.09375 10.640625 -5.875 L 14.125 0 L 10.890625 0 L 7.859375 -5.453125 C 7.765625 -5.441406 7.664062 -5.4375 7.5625 -5.4375 C 7.46875 -5.4375 7.367188 -5.4375 7.265625 -5.4375 L 4.640625 -5.4375 Z M 4.640625 -12.828125 L 4.640625 -7.796875 L 8.34375 -7.796875 C 8.84375 -7.804688 9.285156 -7.914062 9.671875 -8.125 C 10.066406 -8.34375 10.378906 -8.640625 10.609375 -9.015625 C 10.835938 -9.398438 10.953125 -9.84375 10.953125 -10.34375 C 10.953125 -10.8125 10.835938 -11.234375 10.609375 -11.609375 C 10.378906 -11.984375 10.066406 -12.28125 9.671875 -12.5 C 9.273438 -12.71875 8.828125 -12.828125 8.328125 -12.828125 Z M 4.640625 -12.828125 "/></g></g><g style="fill:#ffffff;fill-opacity:1;"><g transform="translate(455.091462, 260.762546)"><path style="stroke:none" d="M 9.15625 0 L 6.59375 0 L 0.171875 -15.34375 L 3.140625 -15.34375 L 7.859375 -3.671875 L 7.90625 -3.6875 L 12.625 -15.34375 L 15.59375 -15.34375 Z M 9.15625 0 "/></g></g><g style="fill:#ffffff;fill-opacity:1;"><g transform="translate(474.134787, 260.762546)"><path style="stroke:none" d="M 4.640625 0 L 1.828125 0 L 1.828125 -15.328125 L 4.640625 -15.328125 Z M 4.640625 0 "/></g></g><g style="fill:#ffffff;fill-opacity:1;"><g transform="translate(483.864015, 260.762546)"><path style="stroke:none" d="M 8.84375 0.328125 C 7.9375 0.328125 7.078125 0.195312 6.265625 -0.0625 C 5.453125 -0.332031 4.707031 -0.710938 4.03125 -1.203125 C 3.363281 -1.691406 2.785156 -2.269531 2.296875 -2.9375 C 1.804688 -3.613281 1.425781 -4.351562 1.15625 -5.15625 C 0.882812 -5.957031 0.75 -6.800781 0.75 -7.6875 C 0.75 -8.582031 0.882812 -9.429688 1.15625 -10.234375 C 1.425781 -11.035156 1.804688 -11.769531 2.296875 -12.4375 C 2.785156 -13.101562 3.363281 -13.675781 4.03125 -14.15625 C 4.707031 -14.644531 5.453125 -15.023438 6.265625 -15.296875 C 7.078125 -15.566406 7.9375 -15.703125 8.84375 -15.703125 C 9.65625 -15.703125 10.457031 -15.578125 11.25 -15.328125 C 12.050781 -15.085938 12.796875 -14.722656 13.484375 -14.234375 C 14.179688 -13.742188 14.769531 -13.125 15.25 -12.375 C 15.726562 -11.625 16.054688 -10.734375 16.234375 -9.703125 L 13.375 -9.703125 C 13.164062 -10.492188 12.835938 -11.140625 12.390625 -11.640625 C 11.953125 -12.148438 11.421875 -12.523438 10.796875 -12.765625 C 10.171875 -13.003906 9.492188 -13.125 8.765625 -13.125 C 8.035156 -13.125 7.351562 -12.992188 6.71875 -12.734375 C 6.09375 -12.472656 5.539062 -12.101562 5.0625 -11.625 C 4.59375 -11.144531 4.222656 -10.570312 3.953125 -9.90625 C 3.679688 -9.238281 3.546875 -8.492188 3.546875 -7.671875 C 3.546875 -6.835938 3.679688 -6.085938 3.953125 -5.421875 C 4.222656 -4.765625 4.59375 -4.195312 5.0625 -3.71875 C 5.539062 -3.25 6.09375 -2.882812 6.71875 -2.625 C 7.351562 -2.375 8.035156 -2.25 8.765625 -2.25 C 9.492188 -2.25 10.164062 -2.367188 10.78125 -2.609375 C 11.40625 -2.859375 11.941406 -3.234375 12.390625 -3.734375 C 12.835938 -4.234375 13.160156 -4.875 13.359375 -5.65625 L 16.234375 -5.65625 C 16.054688 -4.632812 15.726562 -3.742188 15.25 -2.984375 C 14.769531 -2.234375 14.1875 -1.613281 13.5 -1.125 C 12.8125 -0.632812 12.066406 -0.269531 11.265625 -0.03125 C 10.460938 0.207031 9.65625 0.328125 8.84375 0.328125 Z M 8.84375 0.328125 "/></g></g><g style="fill:#ffffff;fill-opacity:1;"><g transform="translate(504.136439, 260.762546)"><path style="stroke:none" d="M 12.4375 0 L 1.828125 0 L 1.828125 -15.328125 L 12.34375 -15.328125 L 12.34375 -12.828125 L 4.640625 -12.828125 L 4.640625 -8.96875 L 11.28125 -8.96875 L 11.28125 -6.609375 L 4.640625 -6.609375 L 4.640625 -2.515625 L 12.4375 -2.515625 Z M 12.4375 0 "/></g></g><g style="fill:#ffffff;fill-opacity:1;"><g transform="translate(520.586251, 260.762546)"><path style="stroke:none" d="M 7 0.34375 C 5.894531 0.34375 4.945312 0.203125 4.15625 -0.078125 C 3.375 -0.359375 2.734375 -0.738281 2.234375 -1.21875 C 1.734375 -1.695312 1.363281 -2.226562 1.125 -2.8125 C 0.882812 -3.40625 0.765625 -4 0.765625 -4.59375 L 3.578125 -4.59375 C 3.578125 -4.125 3.707031 -3.691406 3.96875 -3.296875 C 4.238281 -2.910156 4.628906 -2.597656 5.140625 -2.359375 C 5.648438 -2.128906 6.265625 -2.015625 6.984375 -2.015625 C 9.265625 -2.015625 10.40625 -2.78125 10.40625 -4.3125 C 10.40625 -4.78125 10.257812 -5.160156 9.96875 -5.453125 C 9.675781 -5.753906 9.265625 -6 8.734375 -6.1875 C 8.210938 -6.375 7.59375 -6.535156 6.875 -6.671875 C 6.363281 -6.773438 5.835938 -6.898438 5.296875 -7.046875 C 4.765625 -7.191406 4.25 -7.378906 3.75 -7.609375 C 3.257812 -7.835938 2.816406 -8.113281 2.421875 -8.4375 C 2.035156 -8.769531 1.726562 -9.171875 1.5 -9.640625 C 1.269531 -10.109375 1.15625 -10.660156 1.15625 -11.296875 C 1.15625 -12.128906 1.359375 -12.875 1.765625 -13.53125 C 2.171875 -14.195312 2.796875 -14.722656 3.640625 -15.109375 C 4.492188 -15.503906 5.582031 -15.703125 6.90625 -15.703125 C 8.175781 -15.703125 9.238281 -15.507812 10.09375 -15.125 C 10.945312 -14.738281 11.585938 -14.195312 12.015625 -13.5 C 12.453125 -12.8125 12.671875 -12.007812 12.671875 -11.09375 L 9.859375 -11.09375 C 9.859375 -11.488281 9.753906 -11.847656 9.546875 -12.171875 C 9.335938 -12.492188 9.015625 -12.75 8.578125 -12.9375 C 8.140625 -13.132812 7.570312 -13.234375 6.875 -13.234375 C 6.289062 -13.234375 5.8125 -13.175781 5.4375 -13.0625 C 5.0625 -12.957031 4.765625 -12.8125 4.546875 -12.625 C 4.335938 -12.4375 4.1875 -12.222656 4.09375 -11.984375 C 4.007812 -11.753906 3.96875 -11.519531 3.96875 -11.28125 C 3.96875 -10.644531 4.285156 -10.15625 4.921875 -9.8125 C 5.566406 -9.476562 6.53125 -9.207031 7.8125 -9 C 8.519531 -8.875 9.195312 -8.695312 9.84375 -8.46875 C 10.5 -8.25 11.082031 -7.957031 11.59375 -7.59375 C 12.101562 -7.238281 12.503906 -6.789062 12.796875 -6.25 C 13.097656 -5.71875 13.25 -5.066406 13.25 -4.296875 C 13.25 -3.304688 12.988281 -2.460938 12.46875 -1.765625 C 11.957031 -1.078125 11.234375 -0.550781 10.296875 -0.1875 C 9.359375 0.164062 8.257812 0.34375 7 0.34375 Z M 7 0.34375 "/></g></g><g style="fill:#ffffff;fill-opacity:1;"><g transform="translate(537.825392, 260.762546)"><path style="stroke:none" d=""/></g></g><g style="fill:#ffffff;fill-opacity:1;"><g transform="translate(546.731461, 260.762546)"><path style="stroke:none" d="M 4.640625 0 L 1.828125 0 L 1.828125 -15.328125 L 8.28125 -15.328125 C 9.0625 -15.328125 9.773438 -15.195312 10.421875 -14.9375 C 11.078125 -14.6875 11.640625 -14.332031 12.109375 -13.875 C 12.585938 -13.414062 12.957031 -12.867188 13.21875 -12.234375 C 13.476562 -11.597656 13.609375 -10.910156 13.609375 -10.171875 C 13.609375 -9.378906 13.476562 -8.660156 13.21875 -8.015625 C 12.957031 -7.367188 12.59375 -6.8125 12.125 -6.34375 C 11.65625 -5.882812 11.097656 -5.523438 10.453125 -5.265625 C 9.804688 -5.015625 9.097656 -4.890625 8.328125 -4.890625 L 4.640625 -4.890625 Z M 4.640625 -12.828125 L 4.640625 -7.390625 L 8.203125 -7.390625 C 8.691406 -7.390625 9.128906 -7.507812 9.515625 -7.75 C 9.910156 -8 10.222656 -8.332031 10.453125 -8.75 C 10.679688 -9.164062 10.796875 -9.640625 10.796875 -10.171875 C 10.796875 -10.640625 10.679688 -11.078125 10.453125 -11.484375 C 10.222656 -11.890625 9.910156 -12.210938 9.515625 -12.453125 C 9.117188 -12.703125 8.671875 -12.828125 8.171875 -12.828125 Z M 4.640625 -12.828125 "/></g></g><g style="fill:#ffffff;fill-opacity:1;"><g transform="translate(563.970603, 260.762546)"><path style="stroke:none" d="M 9.15625 0 L 6.59375 0 L 0.171875 -15.34375 L 3.140625 -15.34375 L 7.859375 -3.671875 L 7.90625 -3.6875 L 12.625 -15.34375 L 15.59375 -15.34375 Z M 9.15625 0 "/></g></g><g style="fill:#ffffff;fill-opacity:1;"><g transform="translate(583.013927, 260.762546)"><path style="stroke:none" d="M 7.84375 0 L 5.046875 0 L 5.046875 -12.828125 L 0.484375 -12.828125 L 0.484375 -15.328125 L 12.421875 -15.328125 L 12.421875 -12.828125 L 7.84375 -12.828125 Z M 7.84375 0 "/></g></g><g style="fill:#ffffff;fill-opacity:1;"><g transform="translate(599.19311, 260.762546)"><path style="stroke:none" d=""/></g></g><g style="fill:#ffffff;fill-opacity:1;"><g transform="translate(608.09918, 260.762546)"><path style="stroke:none" d="M 11.5625 0 L 1.828125 0 L 1.828125 -15.328125 L 4.640625 -15.328125 L 4.640625 -2.515625 L 11.5625 -2.515625 Z M 11.5625 0 "/></g></g><g style="fill:#ffffff;fill-opacity:1;"><g transform="translate(623.387548, 260.762546)"><path style="stroke:none" d="M 7.84375 0 L 5.046875 0 L 5.046875 -12.828125 L 0.484375 -12.828125 L 0.484375 -15.328125 L 12.421875 -15.328125 L 12.421875 -12.828125 L 7.84375 -12.828125 Z M 7.84375 0 "/></g></g><g style="fill:#ffffff;fill-opacity:1;"><g transform="translate(639.566732, 260.762546)"><path style="stroke:none" d="M 7.765625 0 L 1.828125 0 L 1.828125 -15.328125 L 7.734375 -15.328125 C 8.960938 -15.328125 10.078125 -15.144531 11.078125 -14.78125 C 12.078125 -14.414062 12.9375 -13.894531 13.65625 -13.21875 C 14.375 -12.550781 14.925781 -11.75 15.3125 -10.8125 C 15.695312 -9.875 15.890625 -8.828125 15.890625 -7.671875 C 15.890625 -6.523438 15.695312 -5.476562 15.3125 -4.53125 C 14.925781 -3.59375 14.375 -2.785156 13.65625 -2.109375 C 12.9375 -1.429688 12.078125 -0.910156 11.078125 -0.546875 C 10.085938 -0.179688 8.984375 0 7.765625 0 Z M 4.59375 -12.84375 L 4.59375 -2.5 L 7.671875 -2.5 C 8.796875 -2.5 9.757812 -2.707031 10.5625 -3.125 C 11.363281 -3.539062 11.976562 -4.132812 12.40625 -4.90625 C 12.84375 -5.675781 13.0625 -6.585938 13.0625 -7.640625 C 13.0625 -8.679688 12.847656 -9.59375 12.421875 -10.375 C 12.003906 -11.15625 11.390625 -11.757812 10.578125 -12.1875 C 9.773438 -12.625 8.800781 -12.84375 7.65625 -12.84375 Z M 4.59375 -12.84375 "/></g></g><path style="fill:none;stroke-width:1;stroke-linecap:round;stroke-linejoin:miter;stroke:#ffffff;stroke-opacity:1;stroke-miterlimit:4;" d="M 0.500778 0.499563 L 237.185119 0.499563 " transform="matrix(2.258034,-0.00000000000000112,0.00000000000000112,2.258034,157.736414,234.973531)"/></g></svg>